<svg xmlns="http://www.w3.org/2000/svg" width="141.865" height="141.865" viewBox="0 0 141.865 141.865">
  <g id="noun_customer_2477868" transform="translate(-1 -1)">
    <g id="Group_6541" data-name="Group 6541" transform="translate(1 1)">
      <path id="Path_883" data-name="Path 883" d="M131.424,33.034H91.2l-.43-.856c.126-.281.243-.563.355-.847l3.691-1.222V17.653l-3.688-1.224c-.112-.284-.231-.565-.355-.847L92.519,12.1,83.71,3.3l-3.48,1.748c-.281-.126-.563-.243-.844-.355L78.161,1H65.707L64.482,4.691c-.281.11-.563.229-.844.355L60.158,3.3l-8.809,8.809L53.1,15.585c-.126.281-.243.563-.355.847l-3.691,1.222V30.108l3.688,1.224c.112.284.231.565.355.847l-.428.856H12.441A11.454,11.454,0,0,0,1,44.475V117.7a11.454,11.454,0,0,0,11.441,11.441H42.187v9.153H33.034v4.576h77.8v-4.576h-9.153v-9.153h29.746A11.454,11.454,0,0,0,142.865,117.7V44.475A11.454,11.454,0,0,0,131.424,33.034Zm-77.8-12.077,2.714-.9.355-1.1a15.469,15.469,0,0,1,.984-2.348l.529-1.034-1.286-2.565,4.135-4.135,2.567,1.288,1.032-.531a16.082,16.082,0,0,1,2.35-.982l1.1-.357.9-2.716h5.851l.9,2.714,1.1.357a15.876,15.876,0,0,1,2.35.982l1.032.531L82.81,8.871l4.135,4.135-1.286,2.565.529,1.034a15.807,15.807,0,0,1,.984,2.348l.355,1.1,2.711.9v5.851l-2.714.9-.355,1.1a15.47,15.47,0,0,1-.984,2.348l-.529,1.034,1.286,2.565-4.135,4.135-1.879-.945-1.167,1.1a11.429,11.429,0,0,1-2.119,1.6L76.5,41.3l.009,7.244,13.1,3.277a6.908,6.908,0,0,1,1.565.627,16.143,16.143,0,0,0-7.221,5.75H59.673a16.323,16.323,0,0,0-7.08-5.7,6.89,6.89,0,0,1,1.657-.684L67.356,48.55V41.306l-1.14-.661a11.631,11.631,0,0,1-2.117-1.6l-1.165-1.1-1.881.945L56.92,34.762,58.206,32.2l-.529-1.034a15.807,15.807,0,0,1-.984-2.348l-.355-1.1-2.711-.906Zm48.053,68.779,13.379,3.345a6.5,6.5,0,0,1,4.512,4.02H74.635a6.5,6.5,0,0,1,4.512-4.02l13.379-3.345V82.492l-1.142-.661a11.484,11.484,0,0,1-5.723-9.9V67.356a11.443,11.443,0,0,1,11.8-11.434c6.112.183,11.086,5.569,11.086,12.008v4a11.478,11.478,0,0,1-5.727,9.9l-1.144.664ZM71.933,92.652a11.052,11.052,0,0,0-6.1-4.011l-9.915-2.478v-1.1A16.072,16.072,0,0,0,62.78,71.933v-4a16.775,16.775,0,0,0-.819-5.151h19.79a16.146,16.146,0,0,0-.666,4.576v4.576A16.069,16.069,0,0,0,87.95,85.062v1.1l-9.912,2.478A11.052,11.052,0,0,0,71.933,92.652ZM41.045,81.831a11.484,11.484,0,0,1-5.723-9.9V67.356a11.443,11.443,0,0,1,11.8-11.434c6.112.183,11.086,5.569,11.086,12.008v4a11.477,11.477,0,0,1-5.727,9.9l-1.144.664.009,7.242L64.72,93.082a6.5,6.5,0,0,1,4.512,4.02H24.3a6.5,6.5,0,0,1,4.512-4.02l13.379-3.345V82.492ZM12.441,37.61H53.3l6.855,6.855L62.2,43.438c.19.149.384.293.579.43v1.107l-9.638,2.409a11.34,11.34,0,0,0-6.107,3.963,15.724,15.724,0,0,0-11.427,4.51,15.9,15.9,0,0,0-4.865,11.5v4.576A16.069,16.069,0,0,0,37.61,85.062v1.1L27.7,88.641a11.064,11.064,0,0,0-8.393,10.75v2.288H124.56V99.39a11.064,11.064,0,0,0-8.393-10.75l-9.915-2.478v-1.1a16.072,16.072,0,0,0,6.867-13.132v-4c0-8.889-6.965-16.328-15.525-16.585-.254-.009-.5.009-.757.011a11.33,11.33,0,0,0-6.114-3.972l-9.64-2.409V43.871c.194-.14.389-.284.581-.432l2.046,1.027,6.853-6.855h40.862a6.873,6.873,0,0,1,6.864,6.864v66.356h-97.7l-6.864-4.576H5.576V44.475A6.873,6.873,0,0,1,12.441,37.61Zm118.984,86.95H97.1v13.729H46.763v-9.153H92.526V124.56H12.441A6.873,6.873,0,0,1,5.576,117.7v-6.864H32.341l6.864,4.576h99.084V117.7A6.873,6.873,0,0,1,131.424,124.56Z" transform="translate(-1 -1)" fill="#fff"/>
      <rect id="Rectangle_153" data-name="Rectangle 153" width="4" height="5" transform="translate(27.933 113.933)" fill="#fff"/>
      <rect id="Rectangle_154" data-name="Rectangle 154" width="5" height="5" transform="translate(17.933 113.933)" fill="#fff"/>
      <rect id="Rectangle_155" data-name="Rectangle 155" width="5" height="5" transform="translate(8.933 113.933)" fill="#fff"/>
      <path id="Path_884" data-name="Path 884" d="M38.441,28.881A11.441,11.441,0,1,0,27,17.441,11.454,11.454,0,0,0,38.441,28.881Zm0-18.305a6.864,6.864,0,1,1-6.864,6.864A6.873,6.873,0,0,1,38.441,10.576Z" transform="translate(32.492 5.441)" fill="#fff"/>
    </g>
  </g>
</svg>
