<svg xmlns="http://www.w3.org/2000/svg" width="141.125" height="141.125" viewBox="0 0 141.125 141.125">
  <path id="Path_880" data-name="Path 880" d="M140.773,37.281H105.492V4.352A2.352,2.352,0,0,0,103.14,2H41.985a2.352,2.352,0,0,0-2.352,2.352V37.281H4.352A2.352,2.352,0,0,0,2,39.633v84.675a2.352,2.352,0,0,0,2.352,2.352H9.268a14.112,14.112,0,0,0-.212,2.352v11.76a2.352,2.352,0,0,0,2.352,2.352H133.717a2.352,2.352,0,0,0,2.352-2.352v-11.76a14.11,14.11,0,0,0-.212-2.352h4.916a2.352,2.352,0,0,0,2.352-2.352V39.633A2.352,2.352,0,0,0,140.773,37.281ZM103.015,102.1c0,.024.016.045.021.068a4.589,4.589,0,0,1,0,1.938.254.254,0,0,1-.021.068,4.7,4.7,0,0,1-1.451,2.441v.016a4.664,4.664,0,0,1-3.128,1.209,4.755,4.755,0,0,1-.986-.108c-.108-.024-.209-.066-.313-.1a4.777,4.777,0,0,1-.6-.2c-.127-.056-.235-.132-.367-.2a4.591,4.591,0,0,1-.47-.28,4.06,4.06,0,0,1-.343-.282,4.637,4.637,0,0,1-.381-.365,4.341,4.341,0,0,1-.282-.341,4.5,4.5,0,0,1-.3-.44c-.078-.132-.153-.263-.219-.4a4.61,4.61,0,0,1-.181-.47c-.052-.148-.1-.294-.141-.449a4.765,4.765,0,0,1-.078-.52c-.019-.151-.042-.3-.047-.452a4.925,4.925,0,0,1,.038-.555c.014-.153.016-.308.045-.454a4.424,4.424,0,0,1,.369-1.087,3.716,3.716,0,0,1,.179-.329,4.8,4.8,0,0,1,.586-.814c.045-.049.078-.1.125-.151a4.829,4.829,0,0,1,.924-.72c.1-.059.2-.111.3-.162a4.507,4.507,0,0,1,.99-.379c.052-.014.1-.035.153-.047a4.66,4.66,0,0,1,1.214-.085,3.4,3.4,0,0,1,.409.04,4.77,4.77,0,0,1,.753.169c.089.028.179.052.263.082a5.071,5.071,0,0,1,1.477.91A4.7,4.7,0,0,1,103.015,102.1Zm-60.919.068a.3.3,0,0,1,.019-.061,4.7,4.7,0,0,1,1.451-2.449,5.021,5.021,0,0,1,1.489-.913c.073-.028.151-.047.235-.071a4.284,4.284,0,0,1,.8-.179c.125-.019.249-.033.379-.04a4.73,4.73,0,0,1,1.223.085c.052.012.1.033.153.047a4.507,4.507,0,0,1,.99.379c.1.052.2.1.3.162a4.829,4.829,0,0,1,.924.72c.047.047.08.1.125.151a4.8,4.8,0,0,1,.586.814,3.719,3.719,0,0,1,.179.329,4.424,4.424,0,0,1,.369,1.087c.028.146.031.3.045.454a4.923,4.923,0,0,1,.038.555,3.627,3.627,0,0,1-.047.452,4.77,4.77,0,0,1-.078.52c-.038.155-.089.3-.141.449a4.611,4.611,0,0,1-.181.47c-.066.141-.141.273-.219.4a4.5,4.5,0,0,1-.3.44,4.347,4.347,0,0,1-.282.341,4.634,4.634,0,0,1-.381.365c-.113.1-.221.2-.343.282a4.6,4.6,0,0,1-.47.28c-.122.066-.235.141-.367.2a4.77,4.77,0,0,1-.6.2c-.1.031-.2.073-.313.1a4.757,4.757,0,0,1-.99.1,4.664,4.664,0,0,1-3.117-1.209v-.016a4.69,4.69,0,0,1-1.454-2.449.306.306,0,0,0-.019-.061,4.589,4.589,0,0,1,0-1.938Zm-9.519,36.25H13.76v-9.408a9.324,9.324,0,0,1,1.519-5.09c.113-.176.235-.336.367-.5a9.2,9.2,0,0,1,.656-.8c.141-.151.282-.3.43-.437a9.5,9.5,0,0,1,.92-.76c.113-.082.216-.176.332-.254a9.385,9.385,0,0,1,1.378-.748c.155-.071.315-.122.47-.183a9.683,9.683,0,0,1,1.138-.353c.169-.04.336-.082.508-.115a8.468,8.468,0,0,1,3.368,0c.172.033.339.073.508.115a9.854,9.854,0,0,1,1.141.353c.158.061.318.113.47.183a9.389,9.389,0,0,1,1.378.748c.115.078.219.172.332.254a9.5,9.5,0,0,1,.92.76c.148.139.289.287.43.435a9.737,9.737,0,0,1,.659.8c.122.165.254.325.365.5a9.324,9.324,0,0,1,1.527,5.09ZM18.465,110.2a4.7,4.7,0,1,1,4.7,4.7A4.7,4.7,0,0,1,18.465,110.2Zm17.979,2.086c-.132.139-.261.278-.386.421-.183.212-.358.426-.527.647-.118.151-.235.3-.343.456-.162.235-.318.47-.47.706-.1.155-.193.308-.285.47-.148.256-.282.522-.412.788-.075.153-.153.3-.221.47-.127.282-.235.572-.346.863-.056.153-.115.3-.167.47-.1.3-.179.6-.256.9-.033.125-.075.235-.106.372-.108-.106-.235-.2-.341-.3-.191-.172-.379-.343-.579-.5-.146-.118-.3-.235-.449-.336-.212-.158-.423-.318-.642-.47-.143-.094-.294-.179-.44-.266s-.332-.212-.5-.306a9.408,9.408,0,1,0-13.609,0c-.052.028-.1.061-.151.089-.106.061-.209.129-.313.193q-.576.346-1.11.743c-.111.082-.221.162-.329.235a14.319,14.319,0,0,0-2.378,2.38l-.2.268a14.652,14.652,0,0,0-.842,1.258c-.024.042-.056.08-.08.122H6.7V41.985H39.633V96.954c-.068.078-.115.169-.181.247a9.576,9.576,0,0,0-.746,1.018c-.092.148-.167.308-.252.47a9.242,9.242,0,0,0-.513,1.051c-.092.235-.151.47-.235.727-.089.3-.2.6-.256.915a8.8,8.8,0,0,0,0,3.528c.061.318.167.612.256.915.075.235.134.492.235.727a9.244,9.244,0,0,0,.513,1.051c.085.155.16.315.252.47a9.577,9.577,0,0,0,.746,1.018c.066.078.113.169.181.247v.421c-.064.035-.118.08-.181.115-.313.191-.621.386-.92.6-.122.085-.235.176-.355.266-.252.191-.5.386-.732.59-.136.118-.266.235-.4.36-.209.181-.412.386-.607.59ZM56.1,138.421H37.281V121.956a9.462,9.462,0,0,1,.169-1.684c.033-.172.073-.339.115-.508a9.857,9.857,0,0,1,.353-1.141c.061-.158.113-.318.183-.47a9.387,9.387,0,0,1,.748-1.378c.078-.115.172-.219.254-.332a9.5,9.5,0,0,1,.76-.92c.139-.148.287-.289.435-.43a9.74,9.74,0,0,1,.8-.659c.165-.122.325-.254.5-.365a9.377,9.377,0,0,1,14.5,7.887Zm28.225,0H60.8V121.956a11.76,11.76,0,0,1,23.521,0ZM65.506,98.435a7.056,7.056,0,1,1,7.056,7.056A7.056,7.056,0,0,1,65.506,98.435Zm22.613,13.922c-.127.136-.254.273-.376.414-.216.254-.421.515-.621.783-.075.1-.16.193-.235.3-.052-.092-.12-.174-.174-.263-.261-.44-.539-.866-.84-1.28-.111-.151-.221-.3-.339-.452a15.678,15.678,0,0,0-1.054-1.223c-.073-.078-.141-.162-.214-.235a16.7,16.7,0,0,0-1.425-1.28c-.129-.1-.263-.2-.4-.294-.393-.3-.8-.576-1.216-.835-.162-.1-.322-.2-.487-.3-.2-.115-.4-.235-.607-.334a11.76,11.76,0,1,0-15.152,0c-.2.106-.407.219-.607.334-.165.1-.327.2-.489.3q-.623.39-1.211.833c-.134.1-.268.193-.4.3a16.7,16.7,0,0,0-1.425,1.28c-.073.075-.141.16-.214.235q-.557.586-1.054,1.223c-.118.151-.235.3-.339.454-.3.412-.579.837-.84,1.277-.054.089-.122.172-.174.263-.073-.1-.158-.2-.235-.3-.2-.268-.4-.529-.621-.783-.122-.141-.249-.278-.376-.414-.216-.235-.44-.456-.67-.673-.136-.129-.273-.256-.414-.379-.247-.214-.506-.419-.767-.616-.136-.1-.27-.209-.412-.306-.313-.219-.64-.421-.971-.614-.085-.052-.165-.111-.252-.16.125-.132.235-.266.365-.407a4.028,4.028,0,0,0,.261-.39,8.955,8.955,0,0,0,.616-.92,7.711,7.711,0,0,0,.4-.729,9.452,9.452,0,0,0,.419-1.077c.082-.235.169-.487.235-.741A9.508,9.508,0,0,0,56,104.151c.026-.259.071-.508.078-.769,0-.082.024-.16.024-.235a9.253,9.253,0,0,0-.1-.995c-.021-.214,0-.428-.04-.642a.85.85,0,0,0-.042-.169c-.019-.1-.052-.2-.075-.306a9.121,9.121,0,0,0-.428-1.374c-.045-.111-.089-.221-.139-.329A9.381,9.381,0,0,0,54.548,98c-.031-.045-.054-.094-.085-.139a9.773,9.773,0,0,0-1.108-1.343c-.026-.024-.054-.045-.078-.068a9.4,9.4,0,0,0-1.2-.995l-.294-.2a9.319,9.319,0,0,0-1.251-.68c-.089-.04-.174-.087-.263-.122a9.043,9.043,0,0,0-1.576-.5.532.532,0,0,0-.059,0,9.269,9.269,0,0,0-1.94-.219c-.045,0-.085.012-.127.012-.16,0-.315.038-.47.049a9.574,9.574,0,0,0-1.571.216.935.935,0,0,0-.179.026V6.7h56.445V94.035c-.059-.016-.12,0-.179-.026a9.571,9.571,0,0,0-1.55-.214c-.169-.012-.332-.049-.5-.052-.04,0-.08-.012-.122-.012a9.27,9.27,0,0,0-1.94.207.536.536,0,0,0-.059,0,9.044,9.044,0,0,0-1.576.5c-.089.035-.174.082-.263.122a9.32,9.32,0,0,0-1.251.68l-.294.2a9.4,9.4,0,0,0-1.2.995c-.024.024-.052.045-.078.068a9.772,9.772,0,0,0-1.108,1.343c-.031.045-.054.094-.085.139a9.379,9.379,0,0,0-.724,1.336c-.049.108-.094.219-.139.329a9.119,9.119,0,0,0-.428,1.374c-.024.1-.056.2-.075.306-.012.056-.033.111-.042.169-.038.214-.019.428-.04.642a9.253,9.253,0,0,0-.1,1c0,.082.024.16.024.235a7.671,7.671,0,0,0,.078.769,9.51,9.51,0,0,0,.188,1.195,7.522,7.522,0,0,0,.235.741,9.456,9.456,0,0,0,.419,1.077c.12.252.256.489.4.729a8.956,8.956,0,0,0,.616.92c.1.125.16.27.261.39s.235.275.365.407c-.087.049-.167.108-.252.16-.332.193-.659.4-.971.614-.141.1-.275.2-.412.306-.261.2-.52.4-.767.616-.141.122-.278.249-.414.379C88.557,111.9,88.336,112.125,88.119,112.357Zm19.725,11.951v14.113H89.027V121.956a9.38,9.38,0,0,1,14.5-7.889,5.788,5.788,0,0,1,.5.365,9.739,9.739,0,0,1,.8.659c.148.141.3.282.435.43a9.5,9.5,0,0,1,.76.92c.082.113.176.216.254.332a9.388,9.388,0,0,1,.748,1.378c.071.155.122.315.183.47a9.859,9.859,0,0,1,.353,1.141c.042.169.082.336.115.508a9.46,9.46,0,0,1,.169,1.686Zm23.521,14.113H112.548v-9.408a9.324,9.324,0,0,1,1.519-5.09c.113-.176.235-.336.367-.5a9.2,9.2,0,0,1,.656-.8c.141-.151.282-.3.43-.437a9.5,9.5,0,0,1,.92-.76c.113-.082.216-.176.332-.254a9.386,9.386,0,0,1,1.378-.748c.155-.071.315-.122.47-.183a9.682,9.682,0,0,1,1.138-.353c.169-.04.336-.082.508-.115a8.467,8.467,0,0,1,3.368,0c.172.033.339.073.508.115a9.856,9.856,0,0,1,1.141.353c.158.061.318.113.47.183a9.389,9.389,0,0,1,1.378.748c.115.078.219.172.332.254a9.5,9.5,0,0,1,.92.76c.148.139.289.287.43.435a9.744,9.744,0,0,1,.659.8c.122.165.254.325.365.5a9.323,9.323,0,0,1,1.527,5.09ZM117.252,110.2a4.7,4.7,0,1,1,4.7,4.7A4.7,4.7,0,0,1,117.252,110.2Zm21.169,11.76h-4.255c-.024-.042-.056-.08-.08-.122a14.648,14.648,0,0,0-.842-1.258l-.2-.268a14.319,14.319,0,0,0-2.385-2.378c-.108-.085-.219-.165-.329-.235q-.536-.4-1.11-.743c-.1-.064-.207-.132-.313-.193-.052-.028-.1-.061-.151-.089a9.408,9.408,0,1,0-13.609,0c-.174.1-.336.2-.506.306s-.294.172-.435.266c-.221.146-.433.306-.644.47-.151.111-.3.219-.449.336-.2.16-.388.332-.579.5-.113.1-.235.193-.341.3-.031-.127-.073-.235-.106-.372-.078-.306-.158-.607-.256-.9-.052-.155-.111-.306-.167-.47-.108-.292-.219-.581-.346-.863-.068-.158-.146-.308-.221-.47-.129-.266-.263-.532-.412-.788-.092-.16-.188-.313-.285-.47-.151-.235-.306-.47-.47-.706-.111-.155-.235-.306-.343-.456-.169-.221-.343-.435-.527-.647-.125-.143-.254-.282-.386-.421-.2-.209-.4-.409-.607-.6-.129-.122-.259-.235-.4-.36-.235-.2-.47-.4-.731-.59-.118-.089-.235-.181-.355-.266-.3-.214-.607-.409-.92-.6-.063-.035-.118-.08-.181-.115v-.421c.068-.078.115-.169.181-.247a9.575,9.575,0,0,0,.746-1.018c.092-.148.167-.308.252-.47a9.246,9.246,0,0,0,.513-1.051c.092-.235.151-.47.235-.727.089-.3.2-.6.256-.915a8.794,8.794,0,0,0,0-3.528c-.061-.318-.167-.612-.256-.915-.075-.235-.134-.492-.235-.727a9.245,9.245,0,0,0-.513-1.051c-.085-.155-.16-.315-.252-.47a9.579,9.579,0,0,0-.746-1.018c-.066-.078-.113-.169-.181-.247V41.985h32.936Z" transform="translate(-2 -2)" fill="#fff"/>
</svg>
