<svg xmlns="http://www.w3.org/2000/svg" width="38" height="38" viewBox="0 0 38 38"><defs><style>.a{fill:#fff;}.b{fill:rgba(0,0,0,0);stroke:#707070;stroke-linejoin:round;stroke-width:4px;}.c{stroke:none;}.d{fill:none;}</style></defs><g transform="translate(-138 -35)"><path class="a" d="M15.585,11.337l-3.509-1.5a.752.752,0,0,0-.877.216l-1.554,1.9A11.614,11.614,0,0,1,4.092,6.4l1.9-1.554a.75.75,0,0,0,.216-.877L4.7.455A.757.757,0,0,0,3.841.019L.583.771A.752.752,0,0,0,0,1.5,14.537,14.537,0,0,0,14.539,16.043a.752.752,0,0,0,.733-.583l.752-3.259a.761.761,0,0,0-.439-.865Z" transform="translate(148.295 45.111)"/><g class="b" transform="translate(142 39)"><circle class="c" cx="15" cy="15" r="15"/><circle class="d" cx="15" cy="15" r="17"/></g></g></svg>