<svg xmlns="http://www.w3.org/2000/svg" xmlns:xlink="http://www.w3.org/1999/xlink" width="54.259" height="55.691" viewBox="0 0 54.259 55.691"><defs><style>.a{fill:url(#a);}.b{fill:#f7f7f7;}</style><radialGradient id="a" cx="0.5" cy="0.5" r="0.5" gradientUnits="objectBoundingBox"><stop offset="0" stop-color="#fad419"/><stop offset="1" stop-color="#db9d48"/></radialGradient></defs><g transform="translate(-336.908 -110.541)"><rect class="a" width="54.259" height="55.691" rx="7" transform="translate(336.908 110.541)"/><path class="b" d="M15.958,13.776,3.533.477a1.461,1.461,0,0,0-2.16,0l-.915.979a1.719,1.719,0,0,0,0,2.312L10.892,14.935.446,26.115a1.721,1.721,0,0,0,0,2.312l.915.979a1.461,1.461,0,0,0,2.16,0L15.958,16.1a1.733,1.733,0,0,0,0-2.32Z" transform="translate(357.098 122.766)"/></g></svg>