<svg xmlns="http://www.w3.org/2000/svg" xmlns:xlink="http://www.w3.org/1999/xlink" width="1899.577" height="576.251" viewBox="0 0 1899.577 576.251"><defs><style>.a,.c{fill:url(#a);}.b{fill:none;stroke:#f5f5f5;stroke-miterlimit:10;stroke-width:12px;}.c{opacity:0.28;}.d{isolation:isolate;}.e{fill:#3b3041;}</style><radialGradient id="a" cx="0.5" cy="0.5" r="0.5" gradientUnits="objectBoundingBox"><stop offset="0" stop-color="#fad419"/><stop offset="1" stop-color="#db9d48"/></radialGradient></defs><g transform="translate(-10.213 -4937.855)"><g transform="translate(526.717 5151.407)"><g transform="translate(0 17.225)"><path class="a" d="M272.891,247.211a18.877,18.877,0,0,1,1.01,6.546,30.41,30.41,0,0,1-.97,7.688,34.476,34.476,0,0,1-2.736,7.208,29.571,29.571,0,0,1-4.167,6.1,21.324,21.324,0,0,1-5.224,4.336,11.345,11.345,0,0,1-5.254,1.715,6.326,6.326,0,0,1-4.163-1.293,8.883,8.883,0,0,1-2.768-4.029,18.922,18.922,0,0,1-1.021-6.538,30.308,30.308,0,0,1,.981-7.693,34.185,34.185,0,0,1,2.736-7.223,30.637,30.637,0,0,1,4.143-6.115,20.69,20.69,0,0,1,5.247-4.377,11.009,11.009,0,0,1,5.232-1.673,6.5,6.5,0,0,1,4.188,1.307A8.857,8.857,0,0,1,272.891,247.211Zm-6.319,15.056a21.681,21.681,0,0,0,.448-4.538,15.391,15.391,0,0,0-.473-4.05,6.021,6.021,0,0,0-1.312-2.6,2.984,2.984,0,0,0-1.985-1.034,4.387,4.387,0,0,0-2.526.694,9.345,9.345,0,0,0-2.57,2.246,14.632,14.632,0,0,0-1.985,3.328,20.628,20.628,0,0,0-1.293,4.111,22.931,22.931,0,0,0-.448,4.579,15.6,15.6,0,0,0,.471,4.008,6.358,6.358,0,0,0,1.314,2.575,2.946,2.946,0,0,0,2,1.029,4.5,4.5,0,0,0,2.573-.722,9.2,9.2,0,0,0,2.52-2.22,14.938,14.938,0,0,0,1.974-3.32,19.365,19.365,0,0,0,1.293-4.082" transform="translate(-168.596 -280.861)"/></g><g transform="translate(30.783)"><path class="a" d="M276.831,234.91a16.864,16.864,0,0,1,4.649-1.963,6.468,6.468,0,0,1,3.445.068,3.856,3.856,0,0,1,2.146,1.929,7.712,7.712,0,0,1,.749,3.583,12.347,12.347,0,0,1-.654,4.018,21.893,21.893,0,0,1-1.669,3.785,31.461,31.461,0,0,1-2.216,3.418c-.794,1.072-1.566,2.044-2.312,2.948-.614.745-1.3,1.6-2.085,2.552s-1.554,1.966-2.312,3.016-1.469,2.072-2.108,3.093a17.61,17.61,0,0,0-1.479,2.757l15.451-8.921.021,7.088-24.578,14.19a32.261,32.261,0,0,1,.348-4.98,22.108,22.108,0,0,1,1.244-4.678,26.97,26.97,0,0,1,2.43-4.808,52.19,52.19,0,0,1,3.939-5.385c1.4-1.67,2.626-3.129,3.7-4.4,1.061-1.252,1.953-2.363,2.664-3.316a16.412,16.412,0,0,0,1.624-2.619,5.271,5.271,0,0,0,.562-2.284,2.267,2.267,0,0,0-1.238-2.312q-1.217-.55-3.517.779a12,12,0,0,0-2.244,1.671,17.938,17.938,0,0,0-1.9,2.127,26.635,26.635,0,0,0-1.626,2.369c-.493.813-.94,1.626-1.348,2.46l-4.4-3.269a26.226,26.226,0,0,1,1.878-2.876,40.061,40.061,0,0,1,2.881-3.483,39.065,39.065,0,0,1,3.664-3.521A28.554,28.554,0,0,1,276.831,234.91Z" transform="translate(-184.877 -271.751)"/></g></g><g transform="translate(1176.004 5150.66)"><g transform="translate(0 18.959)"><path class="a" d="M616.281,247.734a18.858,18.858,0,0,1,1.01,6.544,30.4,30.4,0,0,1-.97,7.688,34.364,34.364,0,0,1-2.736,7.208,29.513,29.513,0,0,1-4.167,6.1,21.352,21.352,0,0,1-5.222,4.336,11.308,11.308,0,0,1-5.256,1.715,6.318,6.318,0,0,1-4.162-1.293A8.849,8.849,0,0,1,592.01,276,18.95,18.95,0,0,1,591,269.458a30.326,30.326,0,0,1,.97-7.688,34.178,34.178,0,0,1,2.738-7.221,30.7,30.7,0,0,1,4.141-6.117,20.779,20.779,0,0,1,5.249-4.377,11.013,11.013,0,0,1,5.23-1.671,6.494,6.494,0,0,1,4.188,1.3A8.824,8.824,0,0,1,616.281,247.734Zm-6.317,15.054a21.683,21.683,0,0,0,.446-4.538,15.3,15.3,0,0,0-.471-4.048,6.234,6.234,0,0,0-1.3-2.611,3.06,3.06,0,0,0-2-1.029,4.405,4.405,0,0,0-2.526.694,9.289,9.289,0,0,0-2.568,2.248,14.617,14.617,0,0,0-1.987,3.328,20.58,20.58,0,0,0-1.293,4.109,22.822,22.822,0,0,0-.446,4.579,15.419,15.419,0,0,0,.471,4.008,6.366,6.366,0,0,0,1.312,2.577,2.948,2.948,0,0,0,2,1.027,4.5,4.5,0,0,0,2.573-.72,9.235,9.235,0,0,0,2.52-2.22,15.106,15.106,0,0,0,1.985-3.33,19.781,19.781,0,0,0,1.284-4.075" transform="translate(-508.998 -280.383)"/></g><g transform="translate(29.844)"><path class="a" d="M628.486,257.478l4.49-2.592.021,7.032-4.49,2.594.025,8.726-6.822,3.937-.025-8.724L606.8,277.044l-.019-6.977,17-35.034,4.636-2.677Zm-6.06,3.5-.038-13.235L613.6,266.072l8.824-5.094" transform="translate(-524.782 -270.356)"/></g></g><g transform="translate(844.064 4992.797)"><g transform="translate(0 16.569)"><path class="a" d="M440.733,162.957a19.239,19.239,0,0,1,1.01,6.544,30.805,30.805,0,0,1-.968,7.688,33.78,33.78,0,0,1-2.749,7.228,29.559,29.559,0,0,1-4.167,6.1,21.278,21.278,0,0,1-5.211,4.33,11.325,11.325,0,0,1-5.254,1.713,6.421,6.421,0,0,1-4.175-1.284,8.724,8.724,0,0,1-2.757-4.05,18.818,18.818,0,0,1-1.023-6.538,30.571,30.571,0,0,1,.983-7.7,33.685,33.685,0,0,1,2.724-7.2,30.655,30.655,0,0,1,4.154-6.122,20.659,20.659,0,0,1,5.247-4.377,10.946,10.946,0,0,1,5.219-1.666,6.441,6.441,0,0,1,4.188,1.3A8.736,8.736,0,0,1,440.733,162.957Zm-6.317,15.069a22.351,22.351,0,0,0,.446-4.553,15.731,15.731,0,0,0-.471-4.035,6.176,6.176,0,0,0-1.312-2.619,3.037,3.037,0,0,0-1.987-1.021,4.433,4.433,0,0,0-2.524.694,9.469,9.469,0,0,0-2.581,2.256,14.959,14.959,0,0,0-1.974,3.307,19.724,19.724,0,0,0-1.3,4.124,22.941,22.941,0,0,0-.446,4.564,15.54,15.54,0,0,0,.471,4.022,5.986,5.986,0,0,0,1.314,2.577,2.984,2.984,0,0,0,1.985,1.034,4.59,4.59,0,0,0,2.585-.741,9.225,9.225,0,0,0,2.522-2.207,14.862,14.862,0,0,0,1.972-3.32,19.367,19.367,0,0,0,1.3-4.082" transform="translate(-327.438 -196.627)"/></g><g transform="translate(30.286)"><path class="a" d="M444.147,151.089a17.321,17.321,0,0,1,4.734-1.982,7.681,7.681,0,0,1,3.713-.032,4.036,4.036,0,0,1,2.4,1.879,7.37,7.37,0,0,1,.857,3.757,15.1,15.1,0,0,1-.45,3.608,18.425,18.425,0,0,1-1.32,3.625,20.239,20.239,0,0,1-2.057,3.371,14.718,14.718,0,0,1-2.63,2.685c2.114-.79,3.819-.609,5.141.518q1.966,1.722,1.976,5.822a17.02,17.02,0,0,1-.928,5.523,22.748,22.748,0,0,1-2.632,5.3,27.868,27.868,0,0,1-4.146,4.8,30.644,30.644,0,0,1-5.5,4.024,17.509,17.509,0,0,1-6.862,2.53,6.645,6.645,0,0,1-4.984-1.318l3.859-7.8a4.6,4.6,0,0,0,3.171,1.157,9.752,9.752,0,0,0,4.591-1.6,14.4,14.4,0,0,0,4.727-4.133,9.015,9.015,0,0,0,1.619-5.283c-.006-2.025-.639-3.229-1.9-3.587s-3.167.176-5.716,1.645l-1.424.822-.017-5.854,1.582-.913a14.291,14.291,0,0,0,4.884-4.432,9.223,9.223,0,0,0,1.726-5.137c0-1.6-.49-2.509-1.433-2.742a5.378,5.378,0,0,0-3.734.974,15.128,15.128,0,0,0-4.2,3.66,20.175,20.175,0,0,0-3.02,5.2l-4.3-3.033a20.433,20.433,0,0,1,2.033-3.606,31.845,31.845,0,0,1,2.88-3.538,33.838,33.838,0,0,1,3.487-3.25A30.027,30.027,0,0,1,444.147,151.089Z" transform="translate(-343.456 -187.864)"/></g></g><g transform="translate(1496.553 4989.488)"><g transform="translate(0 19.933)"><path class="a" d="M785.815,162.993a18.976,18.976,0,0,1,1.01,6.544,30.264,30.264,0,0,1-.97,7.69,34.206,34.206,0,0,1-2.738,7.221,29.933,29.933,0,0,1-4.165,6.1,21.327,21.327,0,0,1-5.224,4.335,11.323,11.323,0,0,1-5.254,1.715,6.4,6.4,0,0,1-4.163-1.293,8.858,8.858,0,0,1-2.768-4.042,18.876,18.876,0,0,1-1.01-6.546,30.412,30.412,0,0,1,.97-7.688,34.371,34.371,0,0,1,2.736-7.208,30.74,30.74,0,0,1,4.143-6.115,20.7,20.7,0,0,1,5.247-4.377,11.009,11.009,0,0,1,5.232-1.673,6.491,6.491,0,0,1,4.186,1.307A8.873,8.873,0,0,1,785.815,162.993ZM779.5,178.062a21.584,21.584,0,0,0,.446-4.551,15.215,15.215,0,0,0-.471-4.037,6.365,6.365,0,0,0-1.3-2.624,3.1,3.1,0,0,0-2-1.013,4.387,4.387,0,0,0-2.526.694,9.348,9.348,0,0,0-2.569,2.246,15.164,15.164,0,0,0-1.985,3.314,21.177,21.177,0,0,0-1.3,4.124,22.95,22.95,0,0,0-.446,4.566,15.626,15.626,0,0,0,.471,4.022,6.358,6.358,0,0,0,1.314,2.575,3,3,0,0,0,2,1.029,4.532,4.532,0,0,0,2.573-.735,9.142,9.142,0,0,0,2.52-2.206,15.24,15.24,0,0,0,1.985-3.328,19.817,19.817,0,0,0,1.282-4.075" transform="translate(-680.532 -191.656)"/></g><g transform="translate(30.328)"><path class="a" d="M799.41,147.114l.021,7.143-12.9,7.451-1.446,10.159a10.141,10.141,0,0,1,1.806-2.28,15.1,15.1,0,0,1,2.932-2.152,13.364,13.364,0,0,1,4.734-1.775,6.194,6.194,0,0,1,3.787.55A5.773,5.773,0,0,1,800.827,169a11.942,11.942,0,0,1,.9,4.929,20.8,20.8,0,0,1-.974,6.315,26.678,26.678,0,0,1-2.764,6.028,28.949,28.949,0,0,1-4.216,5.311,25.86,25.86,0,0,1-5.309,4.094,13.516,13.516,0,0,1-7.115,2.163,5.7,5.7,0,0,1-4.772-2.524l3.91-6.941a5.205,5.205,0,0,0,3.572,1.564,8.022,8.022,0,0,0,4.447-1.218,12.437,12.437,0,0,0,4.5-4.5,11.568,11.568,0,0,0,1.749-6.081c-.006-2.025-.565-3.354-1.668-3.969s-2.517-.424-4.218.56a11.805,11.805,0,0,0-3.124,2.692,14.564,14.564,0,0,0-2.312,3.738l-5.963,3.443c0-.125.06-.59.2-1.435s.3-1.923.5-3.22c.2-1.312.416-2.77.652-4.379.225-1.588.475-3.233.749-4.92.605-3.948,1.269-8.348,2.006-13.233Z" transform="translate(-696.572 -181.114)"/></g></g><g transform="translate(194.416 4991.79)"><g transform="translate(97 -17.068)"><path class="a" d="M97.127,162.095a18.917,18.917,0,0,1,1.023,6.538,30.4,30.4,0,0,1-.983,7.693,33.191,33.191,0,0,1-2.736,7.223,29.612,29.612,0,0,1-4.167,6.1,21.352,21.352,0,0,1-5.222,4.335,11.319,11.319,0,0,1-5.243,1.707,6.422,6.422,0,0,1-4.175-1.286,8.829,8.829,0,0,1-2.768-4.042,19.133,19.133,0,0,1-1.01-6.546,30.975,30.975,0,0,1,.968-7.688,34.377,34.377,0,0,1,2.738-7.208,30.712,30.712,0,0,1,4.154-6.122,20.655,20.655,0,0,1,5.236-4.37,11,11,0,0,1,5.23-1.673,6.432,6.432,0,0,1,4.188,1.307A8.609,8.609,0,0,1,97.127,162.095Zm-6.306,15.062a22.317,22.317,0,0,0,.446-4.551,15.712,15.712,0,0,0-.471-4.035,6.356,6.356,0,0,0-1.312-2.619,2.987,2.987,0,0,0-2-1.013,4.392,4.392,0,0,0-2.524.692,9.461,9.461,0,0,0-2.57,2.248,15,15,0,0,0-1.974,3.307,19.718,19.718,0,0,0-1.3,4.124,22.944,22.944,0,0,0-.446,4.566,15.621,15.621,0,0,0,.471,4.022,5.978,5.978,0,0,0,1.314,2.575,2.979,2.979,0,0,0,1.985,1.036,4.6,4.6,0,0,0,2.573-.736,9.147,9.147,0,0,0,2.52-2.206,14.663,14.663,0,0,0,1.987-3.328,20.018,20.018,0,0,0,1.293-4.082" transform="translate(-71.846 -156.757)"/></g><g transform="translate(31.005)"><path class="a" d="M103.476,148.331l.074,26.355,6.47-3.734.021,7.088L89.35,189.986l-.021-7.088,7.23-4.175-.049-17.756a12.964,12.964,0,0,1-1.445,2.278c-.664.87-1.386,1.745-2.157,2.621a32.029,32.029,0,0,1-2.424,2.456,13.306,13.306,0,0,1-2.22,1.7l-.021-7.323a10.3,10.3,0,0,0,2.244-1.978c.879-.953,1.747-1.995,2.6-3.114.841-1.112,1.577-2.148,2.2-3.12a13.522,13.522,0,0,0,1.191-2.12Z" transform="translate(8.756 -181.331)"/></g></g><path class="b" d="M130.289,205.471l336.36,163.861L784.226,205.471l333.162,163.861,320.44-161.987" transform="translate(174.629 4894.356)"/><g transform="translate(491.926 5187.978)"><g transform="translate(0 1.062)"><rect class="c" width="298.134" height="120.067" transform="translate(0 55)"/></g><g transform="translate(47.562)"><path class="a" d="M446.917,297.9,381.47,335.93c-13.942,8.1-36.616,8.1-50.651,0L264.945,297.9c-7.062-4.078-10.588-9.429-10.573-14.772l-.021,7.569c-.015,5.343,3.511,10.694,10.573,14.772L330.8,343.5c14.033,8.1,36.709,8.1,50.651,0l65.445-38.034c6.928-4.025,10.393-9.291,10.409-14.566l.023-7.569C457.31,288.6,453.842,293.872,446.917,297.9Z" transform="translate(-254.351 -224.45)"/><g transform="translate(0.021)"><path class="a" d="M446.74,296.2c14.035,8.1,14.109,21.237.166,29.339L381.46,363.573c-13.942,8.1-36.616,8.1-50.651,0l-65.874-38.031c-14.033-8.1-14.107-21.237-.164-29.339l65.446-38.034c13.942-8.1,36.616-8.1,50.65,0Z" transform="translate(-254.362 -252.093)"/></g></g></g><g transform="translate(612.268 5230.748)"><g class="d"><g transform="translate(34.187 19.482)"><path class="e" d="M318.218,285.752c1.711.987,1.755,2.583.1,3.57a6.624,6.624,0,0,1-6.088,0c-1.7-.981-1.741-2.575-.083-3.564A6.619,6.619,0,0,1,318.218,285.752Zm-4.678,2.787a3.719,3.719,0,0,0,3.417,0c.925-.55.9-1.439-.053-2a3.737,3.737,0,0,0-3.4.008c-.925.55-.913,1.446.04,2" transform="translate(-310.925 -285.018)"/></g><g transform="translate(26.052 14.785)"><path class="e" d="M313.926,283.274c1.711.987,1.753,2.583.095,3.57a6.619,6.619,0,0,1-6.086,0c-1.711-.989-1.753-2.583-.095-3.57A6.62,6.62,0,0,1,313.926,283.274Zm-4.678,2.787a3.742,3.742,0,0,0,3.417,0c.925-.55.889-1.446-.053-2a3.759,3.759,0,0,0-3.417,0c-.925.55-.9,1.452.053,2" transform="translate(-306.622 -282.534)"/></g><g transform="translate(17.925 10.093)"><path class="e" d="M309.618,280.787c1.709.987,1.753,2.581.094,3.57a6.624,6.624,0,0,1-6.088,0c-1.7-.979-1.741-2.575-.083-3.562A6.617,6.617,0,0,1,309.618,280.787Zm-4.68,2.787a3.719,3.719,0,0,0,3.417,0c.925-.55.9-1.441-.053-2a3.738,3.738,0,0,0-3.4.008c-.925.55-.913,1.446.04,2" transform="translate(-302.324 -280.052)"/></g><path class="e" d="M349.442,291.126c4.02,2.32,4.12,6.088.223,8.408L337.4,306.846c-3.9,2.322-10.322,2.324-14.341,0l-12.829-7.406-16.5-.83a1.325,1.325,0,0,1-.584-.159.628.628,0,0,1-.233-.216c-.125-.2-.059-.422.2-.579l6.905-4.114-2.371-1.367c-4.02-2.322-4.12-6.088-.223-8.41l12.271-7.312c3.9-2.322,10.32-2.322,14.34,0Zm-13.415,14.929,12.271-7.31a4,4,0,0,0,2.314-3.417c-.021-1.235-.858-2.467-2.5-3.413L322.7,277.244a11.954,11.954,0,0,0-5.873-1.416,11.609,11.609,0,0,0-5.786,1.411l-12.271,7.311a4.058,4.058,0,0,0-2.326,3.422c.032,1.242.872,2.477,2.509,3.42l3.054,1.764a.515.515,0,0,1,.287.388.5.5,0,0,1-.267.389l-6.158,3.668,14.829.753a1.294,1.294,0,0,1,.594.163l13.073,7.548a11.881,11.881,0,0,0,5.861,1.41,11.548,11.548,0,0,0,5.8-1.42" transform="translate(-292.844 -274.714)"/></g></g><g transform="translate(1140.832 5187.979)"><g transform="translate(0 1.062)"><rect class="c" width="298.588" height="106.067" transform="translate(0 62)"/></g><g transform="translate(47.795)"><path class="a" d="M790.24,297.9,724.795,335.93c-13.942,8.1-36.618,8.1-50.651,0L608.27,297.9c-7.062-4.078-10.588-9.429-10.573-14.772l-.023,7.569c-.015,5.343,3.513,10.694,10.575,14.772L674.123,343.5c14.033,8.1,36.707,8.1,50.65,0l65.446-38.034c6.926-4.025,10.393-9.291,10.409-14.566l.021-7.569C800.635,288.6,797.167,293.872,790.24,297.9Z" transform="translate(-597.674 -224.45)"/><g transform="translate(0.023)"><path class="a" d="M790.065,296.2c14.033,8.1,14.107,21.237.164,29.339l-65.445,38.032c-13.942,8.1-36.618,8.1-50.651,0l-65.874-38.031c-14.033-8.1-14.107-21.237-.165-29.339l65.445-38.034c13.942-8.1,36.618-8.1,50.651,0Z" transform="translate(-597.686 -252.093)"/></g></g></g><g transform="translate(1262.201 5230.331)"><g transform="translate(15.261 9.577)"><path class="e" d="M665.142,281.636c4.789,2.764,4.931,7.251.289,10.017s-12.307,2.761-17.108,0c-4.778-2.774-4.908-7.253-.255-10.027S660.353,278.87,665.142,281.636Zm-8.24,10.985a14.373,14.373,0,0,0,7.174-1.751c1.953-1.165,2.9-2.689,2.859-4.226s-1.08-3.055-3.108-4.226a14.868,14.868,0,0,0-7.253-1.757,14.342,14.342,0,0,0-7.147,1.751c-1.966,1.172-2.912,2.7-2.883,4.228.053,1.53,1.08,3.054,3.106,4.226a14.859,14.859,0,0,0,7.253,1.755" transform="translate(-644.658 -279.558)"/></g><path class="e" d="M687.435,299.952c.259.219.217.514-.1.705l-5.7,3.394a1.449,1.449,0,0,1-1.189.064l-4.33-1.658a32,32,0,0,1-5.283,1.393l-.906,2.847a.937.937,0,0,1-.915.446h-8.179a1.411,1.411,0,0,1-.673-.168.593.593,0,0,1-.267-.276l-.966-2.641a34.65,34.65,0,0,1-5.948-1.393l-3.717,1.454a1.478,1.478,0,0,1-1.191-.062l-5.878-3.394c-.329-.189-.386-.486-.138-.705l2.43-2.2a11.3,11.3,0,0,1-2.5-3.581l-4.451-.418a1.294,1.294,0,0,1-.529-.155.483.483,0,0,1-.28-.38l-.14-4.8c.006-.276.337-.5.792-.543l4.753-.459a10.876,10.876,0,0,1,2.469-3.335l-3.008-2.388c-.282-.217-.242-.528.078-.718l5.7-3.394a1.45,1.45,0,0,1,1.225-.057l4.492,1.893a33.439,33.439,0,0,1,5.16-1.161l.807-3.3c.064-.267.458-.473.913-.473l8.195.006a1.368,1.368,0,0,1,.673.163.537.537,0,0,1,.265.3l1.057,3.507a30.517,30.517,0,0,1,4.655,1.157l4.9-2.1a1.468,1.468,0,0,1,1.229.057l5.877,3.392c.331.191.386.5.115.72l-3.507,2.895a11.191,11.191,0,0,1,1.981,2.571l6.094.713a1.31,1.31,0,0,1,.488.149.5.5,0,0,1,.283.4l.129,4.8c.006.268-.312.488-.745.543l-5.7.675a10.114,10.114,0,0,1-1.715,2.779Zm-6.621,3,4.63-2.759-3.1-2.653a.37.37,0,0,1-.04-.579l.2-.217A9.3,9.3,0,0,0,684.174,294l.055-.163a.8.8,0,0,1,.6-.4l5.661-.677-.115-3.887-5.444-.641h-.24a1.4,1.4,0,0,1-.682-.164.549.549,0,0,1-.242-.246l-.091-.2a10.544,10.544,0,0,0-1.919-2.511l-.235-.219a.382.382,0,0,1-.017-.649l3.415-2.81-4.729-2.728-4.746,2.038a1.581,1.581,0,0,1-1.057.028l-.41-.157a29.488,29.488,0,0,0-4.362-1.087l-.522-.087a1.282,1.282,0,0,1-.433-.146.53.53,0,0,1-.265-.3l-1.015-3.381-6.569,0-.781,3.2c-.055.233-.352.408-.734.465l-.446.047A29.7,29.7,0,0,0,654,280.4c-.144.042-.3.106-.49.163a1.545,1.545,0,0,1-1.023-.036l-4.32-1.826-4.583,2.732,2.925,2.328a.38.38,0,0,1,.042.633l-.24.2a10.534,10.534,0,0,0-2.378,3.171l-.125.3a.906.906,0,0,1-.747.4l-4.572.431.113,3.859,4.307.4a1.321,1.321,0,0,1,.531.153.556.556,0,0,1,.261.291l.083.248a10.668,10.668,0,0,0,2.324,3.366c.049.055.172.155.322.31a.369.369,0,0,1-.034.563l-2.339,2.11,4.778,2.759,3.572-1.4a1.509,1.509,0,0,1,.938-.044c.238.072.412.146.543.195a33.03,33.03,0,0,0,5.495,1.274l.477.04a1.39,1.39,0,0,1,.522.159.558.558,0,0,1,.259.278l.934,2.57,6.642,0,.877-2.73a.752.752,0,0,1,.662-.424l.482-.081a29.164,29.164,0,0,0,4.982-1.322l.318-.136a1.516,1.516,0,0,1,1.072-.008l4.2,1.622" transform="translate(-636.587 -274.493)"/></g><g transform="translate(809.119 5027.796)"><g transform="translate(0 1.06)"><rect class="c" width="298.588" height="108.067" transform="translate(0 61)"/></g><g transform="translate(47.727)"><path class="a" d="M614.764,213.18l-65.446,38.033c-13.942,8.1-36.616,8.1-50.649,0L432.792,213.18c-7.062-4.076-10.588-9.429-10.573-14.772l-.021,7.571c-.015,5.343,3.511,10.694,10.573,14.771l65.874,38.032c14.033,8.1,36.709,8.1,50.651,0l65.445-38.032c6.928-4.025,10.4-9.293,10.409-14.566l.023-7.571C625.157,203.887,621.689,209.155,614.764,213.18Z" transform="translate(-422.198 -139.731)"/><g transform="translate(0.021)"><path class="a" d="M614.589,211.485c14.033,8.1,14.107,21.235.165,29.339l-65.446,38.033c-13.942,8.1-36.616,8.1-50.649,0l-65.876-38.033c-14.033-8.1-14.107-21.237-.164-29.339l65.446-38.032c13.942-8.1,36.616-8.1,50.649,0Z" transform="translate(-422.209 -167.374)"/></g></g></g><g transform="translate(928.572 5068.055)"><g transform="translate(8.029 4.704)"><path class="e" d="M498.926,194.651c8.075,4.663,8.264,12.218.435,16.884s-20.713,4.672-28.789.009-8.278-12.226-.448-16.89S490.848,189.988,498.926,194.651Zm-13.9,19.278A25.88,25.88,0,0,0,498,210.751c3.553-2.116,5.285-4.882,5.211-7.661s-1.951-5.532-5.606-7.654a27.039,27.039,0,0,0-13.15-3.175,25.872,25.872,0,0,0-12.98,3.178c-3.553,2.116-5.285,4.882-5.211,7.661s1.951,5.546,5.617,7.661a26.838,26.838,0,0,0,13.137,3.167" transform="translate(-464.38 -191.155)"/></g><g class="d"><g transform="translate(20.665 11.779)"><path class="e" d="M480.725,199.448c1.356,1.284,2.753,2.687.633,3.95-1.528.911-4.027,1.025-6.746-.308l-1.741,1.036-1.013-.584L473.6,202.5a5,5,0,0,1-2.535-3.033l1.794-.382a4.125,4.125,0,0,0,2.055,2.632l3.577-2.131c-1.344-1.263-2.645-2.653-.548-3.9,1.528-.909,3.99-1.059,6.659.261l1.766-1.051,1.013.584-1.741,1.038a5.393,5.393,0,0,1,2.29,2.433l-1.757.431a4.79,4.79,0,0,0-1.847-2.082Zm-4.786,2.851c1.62.768,2.944.754,3.772.259.995-.592.422-1.369-.456-2.235l-3.316,1.976m4.02-3.585,3.339-1.991a4.108,4.108,0,0,0-3.721-.176c-.961.573-.471,1.327.382,2.167" transform="translate(-471.063 -194.897)"/></g><path class="e" d="M508.286,193.543c11.252,6.5,11.532,17.038.624,23.536s-28.881,6.5-40.135.006-11.556-17.036-.637-23.542S497.021,187.041,508.286,193.543Zm-19.342,27.306c6.773-.008,13.517-1.518,18.611-4.553s7.561-7.013,7.468-10.985-2.8-7.951-8.051-10.983c-5.268-3.04-12.08-4.557-18.853-4.549s-13.532,1.513-18.624,4.547-7.563,7.013-7.468,10.985,2.8,7.951,8.062,10.991,12.069,4.549,18.855,4.547" transform="translate(-460.134 -188.667)"/></g></g><g transform="translate(1461.656 5027.796)"><g transform="translate(0 1.06)"><rect class="c" width="298.134" height="112.067" transform="translate(0 59)"/></g><g transform="translate(47.638)"><path class="a" d="M959.837,213.18l-65.445,38.033c-13.942,8.1-36.618,8.1-50.651,0L777.867,213.18c-7.062-4.076-10.588-9.429-10.573-14.772l-.023,7.571c-.015,5.343,3.513,10.694,10.575,14.771l65.874,38.032c14.033,8.1,36.707,8.1,50.65,0l65.447-38.032c6.926-4.025,10.393-9.293,10.408-14.566l.021-7.571C970.23,203.887,966.764,209.155,959.837,213.18Z" transform="translate(-767.271 -139.731)"/><g transform="translate(0.023)"><path class="a" d="M959.661,211.485c14.033,8.1,14.107,21.235.164,29.339l-65.445,38.033c-13.942,8.1-36.618,8.1-50.651,0l-65.874-38.033c-14.033-8.1-14.107-21.237-.164-29.339l65.445-38.032c13.942-8.1,36.618-8.1,50.651,0Z" transform="translate(-767.283 -167.374)"/></g></g></g><g transform="translate(1583.213 5069.281)"><g transform="translate(20.9 13.512)"><path class="e" d="M852.32,204.244a.484.484,0,0,1,.289.418c0,.3-.456.545-.974.524l-33.118-.836a1.345,1.345,0,0,1-.626-.161.476.476,0,0,1-.28-.389l-.191-6.78c0-.3.418-.55.936-.558a1.405,1.405,0,0,1,.669.168.518.518,0,0,1,.295.389l.155,6.243,32.215.815A1.392,1.392,0,0,1,852.32,204.244Z" transform="translate(-817.42 -196.462)"/></g><path class="e" d="M859.718,202.2c2.1,1.214,2.9,2.9,2.441,4.466-.089.295-.588.493-1.095.437a1.277,1.277,0,0,1-.49-.153c-.219-.127-.329-.31-.274-.5.365-1.221-.271-2.534-1.9-3.471l-19.792-11.426a10.177,10.177,0,0,0-9.312,0l-19.187,11.431c-2.536,1.511-2.469,3.952.146,5.461l19.792,11.426a10.178,10.178,0,0,0,9.312,0l7.461-4.447a1.451,1.451,0,0,1,1.337-.008c.378.219.388.573.021.79l-7.463,4.447a13.061,13.061,0,0,1-11.982,0L808.941,209.23c-3.36-1.94-3.443-5.086-.185-7.026l19.185-11.433a13.065,13.065,0,0,1,11.984,0Z" transform="translate(-806.366 -189.316)"/></g><g transform="translate(160.213 5027.796)"><g transform="translate(0 1.06)"><rect class="c" width="298.134" height="104.067" transform="translate(0 63)"/></g><g transform="translate(47.492)"><path class="a" d="M271.44,213.18l-65.446,38.033c-13.942,8.1-36.616,8.1-50.649,0L89.47,213.18c-7.062-4.076-10.59-9.429-10.575-14.772l-.021,7.571c-.015,5.343,3.511,10.694,10.573,14.771l65.874,38.032c14.035,8.1,36.709,8.1,50.651,0l65.446-38.032c6.926-4.025,10.393-9.293,10.409-14.566l.021-7.571C281.833,203.887,278.365,209.155,271.44,213.18Z" transform="translate(-78.874 -139.731)"/><g transform="translate(0.021)"><path class="a" d="M271.265,211.485c14.033,8.1,14.107,21.235.165,29.339l-65.446,38.033c-13.942,8.1-36.616,8.1-50.649,0L89.46,240.824c-14.035-8.1-14.109-21.237-.166-29.339l65.446-38.032c13.942-8.1,36.616-8.1,50.651,0Z" transform="translate(-78.885 -167.374)"/></g></g></g><g transform="translate(279.279 5067.144)"><g transform="translate(58.796 33.846)"><path class="e" d="M147.831,206.086l.405,0,9.425.047-.03,1.087-8.588-.037.013-.723-1.231,0Z" transform="translate(-147.825 -206.086)"/></g><g class="d"><g transform="translate(58.022 34.215)"><path class="e" d="M147.532,206.281l.658,0,1.231,0-.013.723-.091,4.978-1.9-.014.1-5.135Z" transform="translate(-147.416 -206.281)"/></g><g transform="translate(55.136 32.074)"><path class="e" d="M145.89,206.084l.019-.935,1.055,0,3,1.77-.405,0-.006.372-.658,0-.011.56Z" transform="translate(-145.89 -205.149)"/></g><g transform="translate(53.165 31.351)"><path class="e" d="M144.963,204.766l.653,0,1.236,0-.015.716-.019.935-.082,4.043-1.889-.007.1-5.139Z" transform="translate(-144.847 -204.766)"/></g><g transform="translate(53.934 30.967)"><path class="e" d="M145.264,204.563l.388,0,9.443.047-.018,1.094-7.547-.032-1.055,0,.015-.716-1.236,0Z" transform="translate(-145.254 -204.563)"/></g><path class="e" d="M125.7,193.141c11.77-6.686,30.7-6.595,42.2.2,11.29,6.657,11.284,17.338.183,24.05l-1.322-.781c10.367-6.294,10.341-16.274-.214-22.5-10.758-6.364-28.494-6.447-39.526-.187l-.157.091c-10.864,6.272-11.006,16.468-.3,22.8,10.562,6.234,27.8,6.442,38.844.563l1.322.781c-11.808,6.3-30.235,6.09-41.517-.577-11.441-6.761-11.284-17.648.318-24.347Z" transform="translate(-116.728 -188.185)"/><g transform="translate(29.148 16.895)"><path class="e" d="M132.145,197.887l1.352-.767,5.127,3.028,1.329.785,4.94,2.918,1.334.788,6.8,4.015,1.321.78,2.983,1.762-.388,0-.011.386-.653,0-.011.556L153,210.2l-1.321-.78-6.8-4.015-1.323-.782L138.6,201.7l-1.329-.785Z" transform="translate(-132.145 -197.121)"/></g><g transform="translate(20.553 11.905)"><path class="e" d="M130.383,196.022a14.494,14.494,0,0,1,13.128.062c3.356,1.978,3.5,5.107.492,7.2l-1.329-.785c2.276-1.668,2.108-4.1-.514-5.65a10.451,10.451,0,0,0-5.2-1.274,10.625,10.625,0,0,0-5.241,1.233c-2.91,1.681-2.95,4.371-.119,6.043a11.658,11.658,0,0,0,9.726.414l1.329.785c-3.674,1.7-9.055,1.556-12.407-.431-3.562-2.1-3.519-5.485.091-7.571Z" transform="translate(-127.599 -194.481)"/></g><g transform="translate(11.59 6.719)"><path class="e" d="M128.265,194.815l.091-.053c7.194-4.084,18.758-4.022,25.786.132,3.405,2.008,5.243,4.67,5.192,7.493-.061,2.636-1.766,5.114-4.837,7.043l-1.333-.787c2.653-1.74,4.222-3.923,4.267-6.27.062-2.524-1.6-4.914-4.642-6.712-6.3-3.729-16.669-3.772-23.114-.119l-.1.057c-6.349,3.666-6.432,9.631-.172,13.339a23.214,23.214,0,0,0,11.5,2.823,24.166,24.166,0,0,0,10.917-2.345l1.324.783a26.95,26.95,0,0,1-12.258,2.657,25.893,25.893,0,0,1-12.834-3.15C121.058,205.57,121.126,198.937,128.265,194.815Z" transform="translate(-122.858 -191.739)"/></g></g></g></g></svg>