<svg xmlns="http://www.w3.org/2000/svg" xmlns:xlink="http://www.w3.org/1999/xlink" width="172.405" height="169.388" viewBox="0 0 172.405 169.388"><defs><style>.a{fill:#edffd9;}.b{fill:url(#a);}.c{fill:#f5c594;}.c,.d,.e,.f,.g,.h,.i,.j,.k,.l,.m,.n,.o,.p,.q,.v{fill-rule:evenodd;}.ab,.d{fill:#ecaeab;}.ac,.e{fill:#d17875;}.f{fill:#d72906;}.g{fill:#aa2005;}.h{fill:#ffe19b;}.i{fill:#db9d48;}.j{fill:#eeb526;}.k{fill:#fad419;}.l{fill:#f7917a;}.m{fill:#bd2305;}.n{fill:#b67a39;}.o{fill:#f6c796;}.p,.r{fill:#2a344a;}.q,.w{fill:#fff;}.s{fill:#721b29;}.t{fill:none;stroke:#edffd9;stroke-width:8px;}.u{fill:#3b3041;}.v{fill:#666;}.x{fill:#333;}.y{fill:#1a4754;}.z{fill:#4c7c8e;}.aa{fill:#002a42;}.ad{fill:#a2543d;}</style><radialGradient id="a" cx="0.5" cy="0.5" r="0.5" gradientUnits="objectBoundingBox"><stop offset="0" stop-color="#fad419"/><stop offset="1" stop-color="#db9d48"/></radialGradient></defs><g transform="translate(4.001)"><g transform="translate(0)"><circle class="a" cx="60.785" cy="60.785" r="60.785" transform="translate(15.125 13.275)"/><circle class="b" cx="52.369" cy="52.369" r="52.369" transform="translate(1.85 74.06) rotate(-45)"/><path class="a" d="M1181.1,1034.318l-18.533-26.095,14.078,28.744-15.7-27.889,11,30.058-12.7-29.378,7.794,31.043-9.562-30.545,4.505,31.688-6.316-31.377,1.169,31.985-3-31.865-2.181,31.932.345-32-5.506,31.529,3.689-31.793-8.773,30.781,6.992-31.233-11.942,29.695,10.218-30.331-14.98,28.284,13.333-29.1-17.855,26.564,16.3-27.544-20.534,24.552,19.091-25.689-22.987,22.271,21.672-23.553-25.189,19.746,24.015-21.159-27.115,17,26.095-18.532-28.744,14.077,27.889-15.7-30.058,11,29.378-12.7-31.043,7.793,30.545-9.562-31.687,4.506,31.377-6.317-31.985,1.169,31.865-3-31.932-2.181,32,.345-31.529-5.507,31.793,3.689-30.78-8.772,31.233,6.992-29.695-11.942,30.331,10.219-28.284-14.98,29.1,13.333-26.563-17.855,27.544,16.3-24.552-20.533,25.689,19.091-22.271-22.987,23.553,21.672-19.746-25.189,21.158,24.015-17-27.116,18.532,26.1-14.077-28.745,15.7,27.889-11-30.058,12.7,29.378-7.793-31.043,9.561,30.545-4.506-31.687,6.316,31.377-1.169-31.985,3,31.865,2.181-31.932-.346,32,5.507-31.529-3.689,31.793,8.772-30.781-6.992,31.233,11.942-29.7-10.219,30.331,14.98-28.284-13.333,29.1,17.855-26.563-16.3,27.544,20.534-24.552-19.091,25.689,22.987-22.271-21.672,23.553,25.19-19.746-24.015,21.158,27.115-17-26.095,18.532,28.744-14.077-27.889,15.7,30.058-11-29.378,12.7,31.043-7.793-30.545,9.562,31.688-4.506-31.377,6.316,31.985-1.169-31.865,3,31.932,2.181-32-.345,31.529,5.507-31.793-3.689,30.781,8.772-31.234-6.992,29.7,11.942-30.332-10.218,28.285,14.981-29.1-13.333,26.564,17.855-27.544-16.3,24.551,20.534-25.689-19.091,22.271,22.987-23.553-21.672,19.746,25.189L1164.1,1007.2Z" transform="translate(-1077.693 -919.078)"/><g transform="translate(50.983 32.447)"><path class="c" d="M1537.111,1564.168a8.512,8.512,0,0,1-.919-.425,6.688,6.688,0,0,1-2.718-2.623l-.009-.016-.005-.017a26.557,26.557,0,0,1-1.045-11.348,34.066,34.066,0,0,1,3.459-11.011l.164-.329.146.337q.133.31.284.606-4.567,10.318-2.881,18.209a11.657,11.657,0,0,1,.169-2.878q.4,6.44,3.354,9.495" transform="translate(-1531.479 -1511.139)"/><path class="d" d="M1983.025,1311.124a4.3,4.3,0,0,1-1.779-.892,12.193,12.193,0,0,1-3.148-5l-.077-.2.212-.031a6.263,6.263,0,0,1,2.88.166,3.166,3.166,0,0,1,1.914,1.7,4.407,4.407,0,0,1,.193,2.357,5.15,5.15,0,0,0,.007,1.7l.065.266Z" transform="translate(-1950.959 -1291.438)"/><path class="e" d="M1983.025,1311.124l-.1-.025a3.4,3.4,0,0,1-.283-2.2,2.973,2.973,0,0,0-.4-2.272c-.795-1.045-2.216-1.288-3.977-.97q-.088-.218-.169-.43l-.077-.2.212-.031a6.263,6.263,0,0,1,2.88.166,3.166,3.166,0,0,1,1.914,1.7,4.407,4.407,0,0,1,.193,2.357,5.15,5.15,0,0,0,.007,1.7l.065.266Z" transform="translate(-1950.959 -1291.438)"/><path class="f" d="M2000.118,1236a18.41,18.41,0,0,0,2.38-1.158,15.585,15.585,0,0,0,2.914-2.175l.078-.074.1.038a6.33,6.33,0,0,0,.912.275l.347.075-.275.224a6.12,6.12,0,0,0-1.751,2.269,3.394,3.394,0,0,0-.129,2.748,2.028,2.028,0,0,0,.1.176,10.774,10.774,0,0,1,1.54,3.174,1.009,1.009,0,0,1-.566,1.273,5.062,5.062,0,0,1-1.543.326l-.109,0-.05-.1a3.491,3.491,0,0,1-.124-1.846,4.807,4.807,0,0,0-.24-2.648,3.7,3.7,0,0,0-2.244-1.993,5.381,5.381,0,0,0-1.292-.261l-.714-.061Z" transform="translate(-1971.124 -1223.392)"/><path class="g" d="M2000.118,1255.449a18.347,18.347,0,0,0,2.38-1.158,16.051,16.051,0,0,0,1.555-1.028,5.081,5.081,0,0,0-.641,1.524,1.42,1.42,0,0,1-.126-.522,5,5,0,0,0-.378,2.64,3.855,3.855,0,0,0-1.45-.866,5.387,5.387,0,0,0-1.292-.262l-.714-.061Zm4.977,7.049a4.612,4.612,0,0,1-.869.122l-.109.005-.05-.1a3.49,3.49,0,0,1-.124-1.846c.031-.3.059-.6.068-.891A3.5,3.5,0,0,1,2005.095,1262.5Z" transform="translate(-1971.124 -1242.844)"/><path class="h" d="M1566.38,1574.286a8.156,8.156,0,0,0,1.427-4.006.28.28,0,0,0-.557-.058,7.572,7.572,0,0,1-1.346,3.767v0l-.035.046a5.912,5.912,0,0,1-3.071,2.031l-.013,0h-.014a7.144,7.144,0,0,1-5.474-1.09c-2.661-2.137-2.471-6.7-2.081-9.722a.279.279,0,1,0-.554-.069c-.347,2.687-.5,6.286.884,8.73l.09.157-.163.08a6.948,6.948,0,0,1-2.8.666,13.462,13.462,0,0,1-4.288-.637.28.28,0,0,0-.157.537,13.969,13.969,0,0,0,4.467.658,7.443,7.443,0,0,0,3.133-.774l.125-.064.087.11c1.554,1.962,4.069,2.27,6.416,2.02l.156-.017.029.155c.469,2.506,1.562,5.192,4.437,5.449l.127.011.025.125a6,6,0,0,0,1.562,2.842,15.2,15.2,0,0,0,3.619,2.741l.044.025.024.047a8.271,8.271,0,0,1,.791,2.21l.024.139-.132.05a2.387,2.387,0,0,1-1.151.142,3.592,3.592,0,0,1-1.585-.675.28.28,0,0,0-.322.458,4.144,4.144,0,0,0,1.84.773,2.89,2.89,0,0,0,1.157-.087l.242-.069-.025.25a2.161,2.161,0,0,1-.964,1.625l-.006,0-.006,0c-.184.1-.372.2-.564.289l-.035.017h-.038a4.142,4.142,0,0,1-1.772-.377,2.635,2.635,0,0,1-1.146-1.1.279.279,0,1,0-.488.271,3.175,3.175,0,0,0,1.371,1.322l.732.369-.819-.047a3.966,3.966,0,0,1-1.232-.273,8.353,8.353,0,0,1-3.617-3.523l-.006-.01,0-.01a19.234,19.234,0,0,0-2.16-3.726,16.84,16.84,0,0,0-1.962-2.2l-.306-.287.419-.008c.205,0,.41-.01.615-.018a.28.28,0,0,0-.019-.559,24.433,24.433,0,0,1-16.392-4.982c-4.682-3.639-7.943-8.861-10.273-14.241l-.257-.594.517.391a7.951,7.951,0,0,0,1.022.653,11.689,11.689,0,0,0,4.208,1.218l.183.021-.035.181a10.22,10.22,0,0,0-.2,2.062,5.2,5.2,0,0,0,1.148,3.405,4.556,4.556,0,0,0,1.966,1.308l.021.007a5.681,5.681,0,0,0,.617.178,7.1,7.1,0,0,0,1.684.17h.006c.367-.013.732-.039,1.1-.086h.01l.034,0,.01,0a3.9,3.9,0,0,0,2.658-1.259c.971-1.2.92-3.254.809-4.706a9.2,9.2,0,0,0-1.7-4.792,11.91,11.91,0,0,0-4.444-3.568.268.268,0,0,0-.033-.014l-.008,0-.007,0a11.128,11.128,0,0,1-5.081-4.116,9.779,9.779,0,0,1-1.266-6.145.279.279,0,0,0-.556-.047,10.31,10.31,0,0,0,1.347,6.485,11.666,11.666,0,0,0,5.328,4.332l.005,0,.021.011a11.372,11.372,0,0,1,4.24,3.391,8.655,8.655,0,0,1,1.589,4.507c.1,1.286.177,3.245-.686,4.315a2.725,2.725,0,0,1-1.387.867l-.353.106.147-.338a6.341,6.341,0,0,0,.4-1.281,8.422,8.422,0,0,0,.093-2.531.28.28,0,0,0-.556.057,7.885,7.885,0,0,1-.083,2.366,5.606,5.606,0,0,1-.665,1.755l-.043.074-.085.01c-.284.03-.569.047-.859.058a6.583,6.583,0,0,1-1.54-.158l-.23-.052.115-.2a7.081,7.081,0,0,0,.985-4.01.28.28,0,1,0-.559.032,6.6,6.6,0,0,1-1.007,3.862l-.078.129-.137-.061a3.91,3.91,0,0,1-1.4-1.013,4.657,4.657,0,0,1-1.012-3.045,10.214,10.214,0,0,1,.284-2.4l0-.01a.26.26,0,0,0,.01-.056.281.281,0,0,0-.257-.3,11.579,11.579,0,0,1-4.49-1.2,6.688,6.688,0,0,1-2.718-2.623l-.009-.016-.005-.017a26.557,26.557,0,0,1-1.045-11.348,34.066,34.066,0,0,1,3.459-11.011l.164-.329.146.337a9.281,9.281,0,0,0,2.021,2.993,12.23,12.23,0,0,0,7.348,3.057,17.183,17.183,0,0,0,8.083-.877,13.8,13.8,0,0,0,5.181-3.475l.119-.127.125.121a10.188,10.188,0,0,1,1.9,2.524,10.448,10.448,0,0,1,1.1,3.455,9.307,9.307,0,0,1-1.079,6.039,6.417,6.417,0,0,1-.889,1.1l-.013.012a8.645,8.645,0,0,1-3.533,2.01l-.156.049-.056-.154a19.782,19.782,0,0,0-.916-2.1.279.279,0,1,0-.5.249,18.184,18.184,0,0,1,1.019,2.414l0,.005v.006l.009.027,0,.009a7.918,7.918,0,0,1,.456,3.018v0a3.555,3.555,0,0,1-.984,2.255l-.167.172-.107-.214c-.511-1.02-1.058-2.034-1.668-3a.279.279,0,1,0-.473.3,35.1,35.1,0,0,1,1.725,3.125l.069.139-.132.082c-.115.072-.234.139-.36.2a4.675,4.675,0,0,1-.766.273l-.063.017-.058-.029a4.113,4.113,0,0,1-1.357-1.074,4.411,4.411,0,0,1-.836-1.739.28.28,0,1,0-.544.134,4.965,4.965,0,0,0,.947,1.958,4.465,4.465,0,0,0,.614.62l.368.305-.536,0a2.216,2.216,0,0,1-1.51-.462c-.2-.208-.4-.426-.586-.652a8.215,8.215,0,0,1-1.925-5.988,7.182,7.182,0,0,1,1.855-4.365l0,0c.075-.073.153-.145.234-.211q.413-.339.828-.676c1.858-1.513,4.229-3.306,5.018-5.661a.279.279,0,1,0-.53-.177c-.737,2.2-3.1,3.986-4.84,5.4q-.416.339-.83.679-.14.115-.27.242a7.781,7.781,0,0,0-2.027,4.722,8.761,8.761,0,0,0,2.053,6.388q.293.356.616.686a2.759,2.759,0,0,0,1.9.631,5.973,5.973,0,0,0,1.406-.156h.013a.218.218,0,0,0,.044-.01l.006,0,.006,0a5.28,5.28,0,0,0,1-.342l.027-.013a5.291,5.291,0,0,0,.743-.459l.024-.018a4.02,4.02,0,0,0,1.627-3.028v-.016a7.988,7.988,0,0,0-.359-2.815l-.046-.16.159-.05a9.357,9.357,0,0,0,3.539-1.943l.083-.076.1.046a16.819,16.819,0,0,1,5.951,4.164,8.947,8.947,0,0,1,2.2,5.535v.022l0,.022c-.134.6-.256,1.207-.357,1.815-.086.513-.159,1.033-.2,1.552a.281.281,0,0,0,.56.046c.042-.5.111-1.008.194-1.506.054-.324.115-.648.179-.971l.071-.358.229.285q.226.283.43.583l.013.02.007.023a.272.272,0,0,0,.08.121l.018.017.013.02a7.445,7.445,0,0,1,.966,2.271,5.021,5.021,0,0,1-.339,3.6,6.448,6.448,0,0,1-1.143,1.188c-.478.413-1.089.854-.869,1.565a.267.267,0,0,0,.026.059c.784,1.339,1.944,3.465,1.9,5.062a2.236,2.236,0,0,1-.569,1.488l-.191.214-.1-.269q-.18-.5-.4-.988a13.347,13.347,0,0,0-.764-1.472.279.279,0,1,0-.48.287,12.827,12.827,0,0,1,.73,1.41c.179.4.337.813.478,1.23l.046.135-.125.069a4.925,4.925,0,0,1-.623.286l-.019.007-.019,0a5.282,5.282,0,0,1-.617.052h-.052l-.044-.027a3.029,3.029,0,0,1-.915-.941,6.169,6.169,0,0,1-.73-1.761.28.28,0,0,0-.542.143,6.75,6.75,0,0,0,.8,1.92c.031.048.062.094.094.14l.328.47-.531-.215c-1.871-.754-2.615-2.939-2.954-4.759l-.027-.144.139-.048a6.333,6.333,0,0,0,3.012-2.118Z" transform="translate(-1531.479 -1511.139)"/><path class="i" d="M1595.541,1978.024a24.322,24.322,0,0,1-15.948-5c-4.682-3.639-7.942-8.861-10.273-14.241l-.258-.594.517.39a8.032,8.032,0,0,0,1.022.654q.148.079.3.152,4.344,10.324,11.73,14.854a37.008,37.008,0,0,0,12.912,3.782m9.618,3.713a20.009,20.009,0,0,0,1.927,1.245l.045.025.023.046a8.264,8.264,0,0,1,.791,2.21l.024.138-.131.051a2.383,2.383,0,0,1-1.152.141,3.589,3.589,0,0,1-1.585-.674.28.28,0,1,0-.322.458,4.142,4.142,0,0,0,1.84.773,2.9,2.9,0,0,0,1.158-.088l.242-.069-.025.25a2.158,2.158,0,0,1-.964,1.626l-.006,0-.006,0q-.275.157-.563.289l-.035.016h-.039a4.135,4.135,0,0,1-1.771-.376,2.634,2.634,0,0,1-1.146-1.1.279.279,0,1,0-.489.271,3.174,3.174,0,0,0,1.371,1.322l.733.369-.819-.046a3.981,3.981,0,0,1-1.232-.272,8.361,8.361,0,0,1-3.618-3.523l-.006-.01-.005-.01a19.21,19.21,0,0,0-2.159-3.726,16.773,16.773,0,0,0-1.962-2.2l-.306-.286.419-.009.437-.011a19.141,19.141,0,0,1,4.288,6.012q.226.282.734-.354A3.967,3.967,0,0,1,1605.159,1981.736Z" transform="translate(-1566.154 -1906.137)"/><path class="i" d="M1651.315,1640.954a9.759,9.759,0,0,1,1.479,4.319,2.239,2.239,0,0,1-.569,1.489l-.191.213-.1-.269q-.179-.5-.395-.987a13.5,13.5,0,0,0-.764-1.472.28.28,0,1,0-.48.287,13.009,13.009,0,0,1,.731,1.411c.178.4.337.813.478,1.23l.045.135-.125.068a4.88,4.88,0,0,1-.623.286l-.018.007-.02,0a5.321,5.321,0,0,1-.617.051l-.051,0-.043-.028a3.02,3.02,0,0,1-.916-.941,6.173,6.173,0,0,1-.73-1.761.28.28,0,1,0-.541.142,6.75,6.75,0,0,0,.8,1.921c.031.047.062.094.094.14l.328.47-.531-.214c-1.87-.754-2.615-2.94-2.953-4.759l-.027-.144.138-.048a6.615,6.615,0,0,0,2.247-1.294,5.632,5.632,0,0,1,3.353-.256m-13.606-20.554a16.47,16.47,0,0,1,.646,1.632v.011a.241.241,0,0,0,.009.027l0,.009a7.907,7.907,0,0,1,.456,3.017v0a3.553,3.553,0,0,1-.984,2.256l-.167.172-.107-.215c-.511-1.02-1.058-2.034-1.668-3a.28.28,0,1,0-.473.3,35.306,35.306,0,0,1,1.725,3.126l.069.138-.132.082c-.115.072-.234.139-.361.2a4.693,4.693,0,0,1-.766.274l-.063.017-.058-.03a4.1,4.1,0,0,1-1.356-1.074,4.417,4.417,0,0,1-.836-1.739.28.28,0,0,0-.544.134,4.967,4.967,0,0,0,.947,1.958,4.476,4.476,0,0,0,.614.62l.368.305-.535,0a2.214,2.214,0,0,1-1.51-.462q-.307-.313-.586-.651a8.217,8.217,0,0,1-1.925-5.988,7.184,7.184,0,0,1,1.855-4.364l0,0c.075-.073.153-.144.234-.211q.413-.339.828-.676c1.858-1.512,4.229-3.3,5.017-5.66a.279.279,0,0,0-.176-.354.262.262,0,0,0-.039-.01q.207-.425.357-.766.531-.207.48.48-.339,4.116-4.6,6.492-3.473,2.689-2.908,6.446a.2.2,0,0,0,.359.1C1632.869,1621.831,1635.313,1620.114,1637.709,1620.4Zm-6.061,10.411a9.614,9.614,0,0,1,.351,1.968c.1,1.286.177,3.245-.686,4.315a2.725,2.725,0,0,1-1.387.867l-.352.106.146-.338a6.325,6.325,0,0,0,.4-1.28,8.433,8.433,0,0,0,.092-2.531.28.28,0,0,0-.557.057,7.866,7.866,0,0,1-.083,2.365,5.629,5.629,0,0,1-.666,1.756l-.043.074-.085.009c-.284.03-.569.048-.859.059a6.59,6.59,0,0,1-1.54-.158l-.229-.052.115-.2a7.076,7.076,0,0,0,.985-4.01.28.28,0,1,0-.559.032,6.6,6.6,0,0,1-1.008,3.862l-.078.129-.137-.061a3.912,3.912,0,0,1-1.4-1.013,4.662,4.662,0,0,1-1.012-3.044,10.177,10.177,0,0,1,.284-2.4l0-.01a.256.256,0,0,0,.01-.056.271.271,0,0,0-.039-.167Q1627.286,1626.839,1631.648,1630.812Zm16.089,9.848a6.172,6.172,0,0,1-2.521,1.418l-.013,0-.014,0a7.146,7.146,0,0,1-5.474-1.091c-2.661-2.137-2.471-6.7-2.081-9.722a.279.279,0,1,0-.554-.069c-.347,2.687-.5,6.286.885,8.729l.09.158-.163.08a6.947,6.947,0,0,1-2.8.666,13.455,13.455,0,0,1-4.288-.637.278.278,0,0,0-.258.053,8.756,8.756,0,0,1-2.12-1.479c.205-.015.41-.034.613-.061h.01l.034,0,.01,0a3.9,3.9,0,0,0,2.657-1.259c.972-1.2.92-3.254.809-4.706a9.2,9.2,0,0,0-1.695-4.792,11.918,11.918,0,0,0-4.444-3.568.271.271,0,0,0-.034-.014l-.007,0-.007,0a11.128,11.128,0,0,1-5.081-4.117,9.782,9.782,0,0,1-1.266-6.145.28.28,0,0,0-.223-.3,12.957,12.957,0,0,1,1.777-5.249,13.2,13.2,0,0,0,6.392,2.244,17.175,17.175,0,0,0,8.083-.877q.654-.249,1.274-.559-.055,1.209-.224,2.583a20.848,20.848,0,0,1-4.06,3.891q-.416.338-.83.678c-.094.077-.184.158-.271.243a7.781,7.781,0,0,0-2.027,4.722,8.76,8.76,0,0,0,2.053,6.388q.293.357.616.686a2.755,2.755,0,0,0,1.9.631,5.99,5.99,0,0,0,1.406-.156h.013a.3.3,0,0,0,.044-.011l.006,0h.007a5.348,5.348,0,0,0,1-.342l.027-.014a5.285,5.285,0,0,0,.743-.459l.023-.017a4.076,4.076,0,0,0,.98-1.035,27.89,27.89,0,0,0-.237,9.713Q1640.52,1643.426,1647.737,1640.66Z" transform="translate(-1613.896 -1577.148)"/><path class="j" d="M1722.346,1565.769a1.725,1.725,0,0,1,0,2.817,3.079,3.079,0,0,1-3.681,0,1.725,1.725,0,0,1,0-2.817,3.079,3.079,0,0,1,3.681,0" transform="translate(-1706.233 -1536.317)"/><path class="k" d="M1718.325,1568.246a1.71,1.71,0,0,1-.39-1.069,1.826,1.826,0,0,1,.729-1.409,2.942,2.942,0,0,1,1.841-.611h.033a2.318,2.318,0,0,1,.349.23,1.519,1.519,0,0,1,0,2.48,2.594,2.594,0,0,1-1.621.538,2.794,2.794,0,0,1-.941-.16" transform="translate(-1706.233 -1536.317)"/><path class="f" d="M1601.532,1452.013a9.969,9.969,0,0,1-4.392-2.4,10.1,10.1,0,0,1-2.7-5.542l-.01-.057.026-.051c.18-.356.346-.719.512-1.081.288-.63.581-1.246.909-1.857l.054-.1.114.012a1.55,1.55,0,0,1,.739.309c.077.051.154.1.233.149l.16.095-.109.151a6.87,6.87,0,0,1-.473.589.283.283,0,0,0-.05.3,8.233,8.233,0,0,0,3.086,3.794,9.514,9.514,0,0,0,3.256,1.318l.544.116-.516.209a3.222,3.222,0,0,0-.812.473,2.375,2.375,0,0,0-.941,1.845,2.264,2.264,0,0,0,.547,1.459l.351.42Z" transform="translate(-1590.022 -1419.42)"/><path class="l" d="M1594.73,1445.333c-.116-.414-.211-.836-.291-1.263l-.01-.057.026-.051c.18-.356.346-.719.512-1.081.288-.63.581-1.246.909-1.857l.054-.1.114.012a1.55,1.55,0,0,1,.739.309c.077.051.154.1.233.149l.16.095-.109.151a6.87,6.87,0,0,1-.473.589.283.283,0,0,0-.05.3l.022.052a10.818,10.818,0,0,0-1.837,2.756m.953,2.358a9.8,9.8,0,0,1-.538-1.13,12.428,12.428,0,0,1,1.777-3.239,8.548,8.548,0,0,0,.633,1.015A14.265,14.265,0,0,0,1595.683,1447.691Z" transform="translate(-1590.022 -1419.42)"/><path class="f" d="M1786.095,1510.963a22.547,22.547,0,0,0,5.25-.531,18.658,18.658,0,0,0,5.914-2.444l.007,0,.006,0,.026-.015.13-.086.1.121q.054.067.1.136l.045.061-.015.075a8.827,8.827,0,0,0-.158,1.063,7.174,7.174,0,0,0-.016,1l0,.064-.041.051c-.146.185-.3.365-.455.546l0,.005-.017.019a13.265,13.265,0,0,1-5.257,3.647,15.659,15.659,0,0,1-5.687.975l-.581,0,.491-.311a2.969,2.969,0,0,0,.282-.2,2.278,2.278,0,0,0,0-3.689c-.071-.057-.144-.111-.219-.161l-.478-.32Z" transform="translate(-1769.755 -1482.421)"/><path class="m" d="M1849.346,1510.8a20.968,20.968,0,0,0,2.126-.366,18.658,18.658,0,0,0,5.914-2.444l.006,0,.007,0a.168.168,0,0,0,.026-.015l.13-.086.1.121c.036.045.07.09.1.136l.045.061-.016.075a8.877,8.877,0,0,0-.159,1.063,7.289,7.289,0,0,0-.016,1l0,.064-.041.051c-.146.185-.3.365-.455.546l-.006.005-.017.019a13.265,13.265,0,0,1-5.257,3.647,14.19,14.19,0,0,1-1.8.551q.162-1.336.293-3.644a2.247,2.247,0,0,0,.663.042,15.567,15.567,0,0,1-.113,2.879,4.23,4.23,0,0,0,1.157-1.031,4.9,4.9,0,0,0-.042-2.554,7.866,7.866,0,0,1-2.656-.113" transform="translate(-1829.882 -1482.421)"/><path class="h" d="M1667.845,1108.459l.42-.173-.164.384a2.691,2.691,0,0,1-.675.938,3.525,3.525,0,0,1-1.787.83,4.2,4.2,0,0,1-1.2.025l-.033,0h-.014a16.313,16.313,0,0,1-3.4-.777,10.611,10.611,0,0,1-2.759-1.233.28.28,0,0,0-.353.434,11.16,11.16,0,0,0,2.94,1.332c.477.156.959.3,1.446.418l.364.092-.308.214a8.192,8.192,0,0,0-1.32,1.113,3.37,3.37,0,0,0-.875,1.515l-.015.07-.061.037a18.124,18.124,0,0,1-5.6,2.283,22.975,22.975,0,0,1-6.764.445,10,10,0,0,1-4.788-1.477,7.633,7.633,0,0,1-2.762-3.288l-.044-.1.068-.083a8.219,8.219,0,0,0,.622-.866l0-.005,0-.005a.3.3,0,0,0,.023-.036l0-.005,0-.005a11.223,11.223,0,0,0,.648-1.22,17.331,17.331,0,0,0,.938-2.647l.059-.217.227.135a2.257,2.257,0,0,0,1.106.34c.127,0,.255,0,.382-.007a2.655,2.655,0,0,0,2.079-1.086,4.766,4.766,0,0,0,.726-2.661c.008-.316,0-.631-.023-.944v-.01a9.779,9.779,0,0,1,.347-4.208,3.651,3.651,0,0,1,1.971-2.171.28.28,0,1,0-.225-.514,4.179,4.179,0,0,0-2.27,2.489,10.309,10.309,0,0,0-.381,4.447c.021.3.031.6.024.9a4.227,4.227,0,0,1-.621,2.341,2.132,2.132,0,0,1-1.662.856c-.112.007-.224.01-.335.008a1.75,1.75,0,0,1-.835-.264,3.134,3.134,0,0,1-.465-.338l0,0,0,0a.276.276,0,0,0-.026-.023l0,0,0,0a6.644,6.644,0,0,1-1.516-2.229,10.169,10.169,0,0,1-.856-4.292,8.225,8.225,0,0,1,1.092-4,7.454,7.454,0,0,1,3.608-3.016c1.224-.509,3.162-.934,4.429-.36a.279.279,0,0,0,.287-.034,11.9,11.9,0,0,1,5.143-2.375,13.421,13.421,0,0,1,5.9.307,4.355,4.355,0,0,1,2.109,1.387l.433.459-.605-.178a5.406,5.406,0,0,1-1.086-.445.28.28,0,0,0-.269.491,7.1,7.1,0,0,0,2.633.772l.016,0,.015,0a12.494,12.494,0,0,0,1.553.357l.685.117-.661.214a4.232,4.232,0,0,0-1.212.576.279.279,0,0,0-.111.206.577.577,0,0,0,0,.074c.031.474.737,1.1,1.092,1.357a4.054,4.054,0,0,0,1.867.813,1.439,1.439,0,0,0,.189,0,.29.29,0,0,0,.113-.031,4.673,4.673,0,0,0,1.97-1.557,1.567,1.567,0,0,0,.258-.78.983.983,0,0,0-.069-.389l-.1-.242.26.007.5.011h.01a.523.523,0,0,1,.372.306,2.806,2.806,0,0,1,.289.982,6.177,6.177,0,0,1,.03,1.278c-.03.4-.138,1.429-.527,1.652a.3.3,0,0,0-.044.031l-.007.006a1.511,1.511,0,0,1-.5.251l-.023.006a2.023,2.023,0,0,1-.6.071,4.966,4.966,0,0,1-1.746-.437.281.281,0,0,0-.314.07l-.006.006a14.956,14.956,0,0,1-2.995,2.276,18.887,18.887,0,0,1-3.744,1.642h-.006l-.006,0c-.241.059-.484.113-.729.152l-.016,0h-.016a.28.28,0,0,0-.1.014l-.015,0-.016,0a2.709,2.709,0,0,1-1.157-.052,2.811,2.811,0,0,1-1.369-1.247l-.023-.035a1.742,1.742,0,0,1-.167-1.307,1.9,1.9,0,0,1,.689-1.076l.11-.074a.28.28,0,0,0-.309-.467l-.028.018-.056.038a4.434,4.434,0,0,0-1.24,1.219c-.308.475-.152.8-.173,1.362a.281.281,0,0,0,.051.171,4.158,4.158,0,0,0,1.744,1.642l.015.006.013.009a2.269,2.269,0,0,0,.575.274,2.944,2.944,0,0,0,1.125.1l.127-.01.046.119s0,.01.006.016l0,.006,0,.005c.719,1.981,1.827,4.366,3.5,5.726a4.712,4.712,0,0,0,4.921.739Z" transform="translate(-1632.984 -1088.494)"/><path class="n" d="M1915.577,1397.02a2.538,2.538,0,0,1-.25-.178.279.279,0,1,0-.353.434,11.138,11.138,0,0,0,2.939,1.332q.691.226,1.4.406-2.542,1.654-3.364,1.431-2.358-.716-2.625-3.867-.023-1.1.819-.79a8.142,8.142,0,0,0,1.4,1.2Z" transform="translate(-1890.079 -1376.885)"/><path class="i" d="M1720.508,1476.589q-.722.225-1.464.393a22.931,22.931,0,0,1-6.763.445,11.049,11.049,0,0,1-3.545-.811q4.1-4.23,7.6-3.632a4.661,4.661,0,0,1,4.171,3.606" transform="translate(-1697.577 -1449.517)"/><path class="c" d="M1640.55,1386.744c-.117-.209-.226-.425-.328-.647l-.044-.1.068-.082a8.223,8.223,0,0,0,.622-.866l0-.006,0,0a.269.269,0,0,0,.023-.037l0-.005,0-.005a11.087,11.087,0,0,0,.648-1.22,17.267,17.267,0,0,0,.938-2.647l.059-.217.226.136a2.617,2.617,0,0,0,.422.2,9.414,9.414,0,0,1-2.648,5.494" transform="translate(-1633.069 -1362.951)"/><path class="n" d="M1953.2,1307.564l.419-.173-.163.384a2.69,2.69,0,0,1-.675.938,3.525,3.525,0,0,1-1.787.83,4.2,4.2,0,0,1-1.2.024l-.033,0h-.014l-.051-.005a3.033,3.033,0,0,0,2.219-.824,3.492,3.492,0,0,1-1.157-.028c-3.524-.587-5.987-3.245-7.405-7.881.037.014.074.026.111.038a2.94,2.94,0,0,0,1.125.1l.127-.01.046.12a.132.132,0,0,0,.006.015l0,.005,0,.006c.719,1.981,1.827,4.366,3.5,5.726a4.712,4.712,0,0,0,4.921.739Z" transform="translate(-1918.333 -1287.599)"/><path class="n" d="M1934.671,1189.5a2.555,2.555,0,0,0,.751.186,1.509,1.509,0,0,0,.189,0,.281.281,0,0,0,.113-.032,5.973,5.973,0,0,0,1.287-.8,1.369,1.369,0,0,0,1.461,1.087,1.3,1.3,0,0,0,.789-.968c0,.1-.009.2-.016.3-.031.4-.138,1.43-.527,1.653a.262.262,0,0,0-.044.031l-.007.006a1.513,1.513,0,0,1-.5.251l-.023.006a2.038,2.038,0,0,1-.6.071,4.964,4.964,0,0,1-1.746-.437.281.281,0,0,0-.314.07l-.006.006a14.96,14.96,0,0,1-3,2.276,18.94,18.94,0,0,1-3.744,1.642h-.005l-.006,0c-.241.059-.484.113-.729.152l-.016,0h-.016a.277.277,0,0,0-.1.014l-.015,0-.016,0a2.7,2.7,0,0,1-1.156-.052,2.745,2.745,0,0,1-1.341-1.2q2.123,1.076,6.013-.861,2.9-1.873,3.311-3.407" transform="translate(-1901.396 -1182.24)"/><path class="c" d="M1797.592,1091.8a11.9,11.9,0,0,1,5.143-2.375,13.421,13.421,0,0,1,5.9.307,4.358,4.358,0,0,1,2.109,1.387l.433.459-.605-.178a5.389,5.389,0,0,1-1.086-.445.279.279,0,0,0-.314.031q-5.462-2.442-11.3,1.306-.631-.208-.285-.492" transform="translate(-1781.071 -1088.494)"/><path class="i" d="M1649.362,1132.555a.28.28,0,0,0-.31-.057,4.179,4.179,0,0,0-2.27,2.489,10.31,10.31,0,0,0-.381,4.447c.021.3.031.6.024.9a4.229,4.229,0,0,1-.621,2.342,2.131,2.131,0,0,1-1.662.855c-.112.008-.224.011-.335.008a1.748,1.748,0,0,1-.835-.264,3.16,3.16,0,0,1-.465-.338l0,0,0,0a.221.221,0,0,0-.026-.023l0,0,0,0a6.643,6.643,0,0,1-1.516-2.229,10.17,10.17,0,0,1-.856-4.292,8.225,8.225,0,0,1,1.092-4,7.452,7.452,0,0,1,3.608-3.016c1.224-.509,3.162-.935,4.429-.36a.28.28,0,0,0,.222,0,2.335,2.335,0,0,1-.08,3.55" transform="translate(-1632.984 -1125.663)"/><path class="o" d="M1641.233,1141.257c-.1-.2-.2-.394-.287-.589a10.17,10.17,0,0,1-.856-4.292,8.225,8.225,0,0,1,1.092-4,7.452,7.452,0,0,1,3.608-3.016c1.224-.509,3.162-.935,4.429-.36a.28.28,0,0,0,.222,0,4.228,4.228,0,0,1,.37.441,7.745,7.745,0,0,0-7.073,2.155,3.139,3.139,0,0,1-.4,1.693,4.692,4.692,0,0,1-1.326,1.3,12.069,12.069,0,0,0,.215,6.664" transform="translate(-1632.984 -1125.663)"/><path class="p" d="M2057.853,1156.329l-.068,0a3.467,3.467,0,0,1-1.57-.706,3.79,3.79,0,0,1-.739-.667l-.122-.16.177-.094a5.669,5.669,0,0,1,1.36-.474,8.578,8.578,0,0,1,2.172-.224h.017a.928.928,0,0,1,.528.209.4.4,0,0,1,.114.3,1.02,1.02,0,0,1-.175.5,4.028,4.028,0,0,1-1.656,1.307Z" transform="translate(-2023.723 -1149.439)"/><path class="i" d="M2160.47,1783.183a7.369,7.369,0,0,1-3.43,2.437,10.638,10.638,0,0,1-5.911.3,12.583,12.583,0,0,1-3.233-1.222l-.038-.02-.023-.036a9.617,9.617,0,0,0-.992-1.242l-.043-.045,0-.062a9.524,9.524,0,0,0-.525-2.673l-.159-.45.409.248c.215.13.437.25.664.358a7.614,7.614,0,0,0,3.63.741,4.475,4.475,0,0,0,2.8-1.027,2.3,2.3,0,0,0,.5-.677,4.7,4.7,0,0,0,.473-2.045,3.783,3.783,0,0,0-.557-1.987,3.98,3.98,0,0,0-1.7-1.481,6.425,6.425,0,0,0-2.307-.564l-.316-.023.192-.251a2.835,2.835,0,0,1,.234-.268,5.452,5.452,0,0,1,3.049-1.322,7.632,7.632,0,0,1,3.542.29,3.392,3.392,0,0,1,1.234.73,6.585,6.585,0,0,1,2.077,4.483,11.936,11.936,0,0,1-1.675,5.97.28.28,0,0,0,.332.4,6.162,6.162,0,0,0,1.544-.8l.852-.585Z" transform="translate(-2109.121 -1730.74)"/><path class="h" d="M2217.721,1783.183a7.377,7.377,0,0,1-3.43,2.437,10.179,10.179,0,0,1-3.99.564,5.158,5.158,0,0,0,3.171-1.917,7.048,7.048,0,0,0-.113-6.774,7.055,7.055,0,0,1-.282,2.117,7.037,7.037,0,0,0-1.237-1.964,3.764,3.764,0,0,0-.555-1.866,3.989,3.989,0,0,0-1.7-1.481,6.437,6.437,0,0,0-2.308-.564l-.315-.023.192-.251a2.769,2.769,0,0,1,.234-.268,5.454,5.454,0,0,1,3.049-1.322,7.632,7.632,0,0,1,3.542.29,3.378,3.378,0,0,1,1.233.73,6.585,6.585,0,0,1,2.077,4.483,11.925,11.925,0,0,1-1.674,5.97.28.28,0,0,0,.332.4,6.136,6.136,0,0,0,1.545-.8l.852-.585Z" transform="translate(-2166.373 -1730.74)"/><path class="q" d="M1730.078,1575.755a.438.438,0,0,1,.356.622.783.783,0,0,1-.813.466.439.439,0,0,1-.357-.623.783.783,0,0,1,.814-.466" transform="translate(-1716.857 -1546.28)"/><g transform="translate(41.114 3.91)"><path class="j" d="M2228.42,1150.7a4.855,4.855,0,1,1-4.854,4.855,4.855,4.855,0,0,1,4.854-4.855" transform="translate(-2223.114 -1150.25)"/><path class="k" d="M2231.533,1150.7a4.87,4.87,0,0,1,.873.079,3.63,3.63,0,1,1-5.532,3.409,4.856,4.856,0,0,1,4.659-3.488" transform="translate(-2226.227 -1150.25)"/><path class="q" d="M2249.086,1163.892a1.818,1.818,0,1,1-1.817,1.818,1.817,1.817,0,0,1,1.817-1.818" transform="translate(-2245.417 -1162.661)"/><path class="r" d="M2224.338,1145.247a4.4,4.4,0,1,0,1.289,3.114,4.391,4.391,0,0,0-1.289-3.114m-3.114-2.193a5.307,5.307,0,1,1-3.752,1.554A5.292,5.292,0,0,1,2221.224,1143.054Z" transform="translate(-2215.918 -1143.054)"/></g><path class="s" d="M1558.668,1130.66a12.386,12.386,0,0,0,3.19,1.2,10.444,10.444,0,0,0,5.815-.294,7.187,7.187,0,0,0,3.351-2.378,6.385,6.385,0,0,1-1.589.822.45.45,0,0,1-.535-.641,11.558,11.558,0,0,0,1.655-5.882,6.411,6.411,0,0,0-2.027-4.369,3.212,3.212,0,0,0-1.172-.691,7.47,7.47,0,0,0-3.459-.28,5.243,5.243,0,0,0-2.953,1.273,2.721,2.721,0,0,0-.219.25,6.559,6.559,0,0,1,2.368.581,4.147,4.147,0,0,1,1.776,1.545,3.952,3.952,0,0,1,.583,2.077,4.879,4.879,0,0,1-.49,2.12,2.485,2.485,0,0,1-.535.727,4.592,4.592,0,0,1-2.912,1.075,7.778,7.778,0,0,1-3.712-.759,7.608,7.608,0,0,1-.679-.366,4.631,4.631,0,0,0,1.544,3.985m-6.752-34.288a5.267,5.267,0,0,1-.011-1.753,4.273,4.273,0,0,0-.177-2.268,2.994,2.994,0,0,0-1.814-1.61,6.06,6.06,0,0,0-2.8-.159,11.7,11.7,0,0,0,3.1,4.934A4.125,4.125,0,0,0,1551.916,1096.372Zm-3.046-6.756a5.559,5.559,0,0,1,1.332.271,3.869,3.869,0,0,1,2.343,2.082,4.98,4.98,0,0,1,.256,2.738,3.3,3.3,0,0,0,.106,1.751,4.873,4.873,0,0,0,1.491-.315c.42-.169.564-.523.457-1.08a10.234,10.234,0,0,0-1.516-3.115c-.044-.069-.081-.134-.11-.192a3.508,3.508,0,0,1,.125-2.891,6.278,6.278,0,0,1,1.8-2.333,6.5,6.5,0,0,1-.937-.282,15.7,15.7,0,0,1-2.946,2.2A18.52,18.52,0,0,1,1548.87,1089.616Zm13.5,66.59a.383.383,0,0,1,.006.06,4.072,4.072,0,0,1,.017.522,2.866,2.866,0,0,1-1.306,2.408l-.033.021a7.751,7.751,0,0,1-.732.372l-.01,0a4.893,4.893,0,0,1-3.892.153,8.841,8.841,0,0,1-3.99-3.844c-.01-.018-.02-.035-.029-.054a18.484,18.484,0,0,0-2.091-3.615,15.956,15.956,0,0,0-2.624-2.763,24.565,24.565,0,0,1-14.883-5.149q-7.047-5.476-11.4-16.754c-.087-.135-.171-.274-.25-.417a.43.43,0,0,1-.035-.083,27.238,27.238,0,0,1-1.091-11.7,35.182,35.182,0,0,1,3.914-12,14.935,14.935,0,0,1-.452-1.882.447.447,0,0,1,.043-.293c.219-.421.388-.791.568-1.183.28-.611.585-1.277,1.053-2.13a.451.451,0,0,1,.37-.245,2.031,2.031,0,0,1,1.459.432c.074.049.149.1.228.143q.223-.393.427-.838a17.246,17.246,0,0,0,1-2.911,7.631,7.631,0,0,1-1.524-2.31,10.931,10.931,0,0,1-.915-4.6,8.96,8.96,0,0,1,1.192-4.354,8.192,8.192,0,0,1,3.957-3.322,7.2,7.2,0,0,1,4.752-.454,12.508,12.508,0,0,1,5.253-2.358,14.09,14.09,0,0,1,6.224.318,5.442,5.442,0,0,1,2.733,1.893c.2.217.4.431.6.626a14.638,14.638,0,0,0,2.458.467q1.57.182,3.639.218h.027a1.2,1.2,0,0,1,.953.672,3.511,3.511,0,0,1,.376,1.249,6.957,6.957,0,0,1,.036,1.429,3.049,3.049,0,0,1-.862,2.214,2.2,2.2,0,0,1-.708.365,6.126,6.126,0,0,0-.536.3,5.512,5.512,0,0,0-2.106,2.4,2.629,2.629,0,0,0-.143,2.133,1.2,1.2,0,0,0,.061.11,11.008,11.008,0,0,1,1.643,3.429q.027.145.042.28a.431.431,0,0,1,.034.114,3.85,3.85,0,0,1,.031,1.111,3.36,3.36,0,0,1-1.1,2.11,4.253,4.253,0,0,1-2.156,1.011,4.917,4.917,0,0,1-1.408.03l-.025,0c-.271-.026-.56-.066-.86-.118a9.05,9.05,0,0,0-1.931,1.483,3.313,3.313,0,0,0-.524.718c.054.053.108.109.161.168a4.606,4.606,0,0,1,.4.518.447.447,0,0,1,.071.357,8.351,8.351,0,0,0-.182,1.155,6.258,6.258,0,0,0,0,1.051h0a.449.449,0,0,1-.093.312q-.156.2-.317.4a10.9,10.9,0,0,1,2.07,2.739,11.139,11.139,0,0,1,1.173,3.7l0,.014a9.874,9.874,0,0,1-1.19,6.514,7.106,7.106,0,0,1-.557.757,17.06,17.06,0,0,1,5.919,4.224,10.693,10.693,0,0,1,.943,1.29,6.78,6.78,0,0,0,1.959,1.4,6.867,6.867,0,0,0,3.279.674,3.7,3.7,0,0,0,2.337-.828,1.585,1.585,0,0,0,.341-.462,3.991,3.991,0,0,0,.405-1.729,3.053,3.053,0,0,0-.449-1.6,3.256,3.256,0,0,0-1.4-1.206,6.218,6.218,0,0,0-2.721-.519.45.45,0,0,1-.452-.448.456.456,0,0,1,.031-.168,3.193,3.193,0,0,1,.742-1.147,6.129,6.129,0,0,1,3.464-1.53,8.385,8.385,0,0,1,3.889.326,4.1,4.1,0,0,1,1.5.9,7.279,7.279,0,0,1,2.292,4.966,11.278,11.278,0,0,1-1.167,5.149c.161-.1.32-.214.474-.328l.024-.017a5.143,5.143,0,0,0,1.23-1.213.449.449,0,0,1,.825.326,6.094,6.094,0,0,1-.624,1.635,7.781,7.781,0,0,1-4.238,3.414,11.347,11.347,0,0,1-6.316.325,13.029,13.029,0,0,1-2.256-.728,7.873,7.873,0,0,1,.437,1.318,5.591,5.591,0,0,1-.451,4.185,7.031,7.031,0,0,1-1.266,1.325c-.381.329-.671.58-.656.765,1.331,2.284,2,4.037,1.967,5.386-.038,1.471-.85,2.447-2.483,3.064a.456.456,0,0,1-.125.037c-.174.025-.343.044-.51.056a5.385,5.385,0,0,0,1.341,2.31,14.608,14.608,0,0,0,3.559,2.667.453.453,0,0,1,.178.187A8.484,8.484,0,0,1,1562.371,1156.206Zm-18.595-28.187-.03.022a5.447,5.447,0,0,1-.762.47l-.027.014a5.526,5.526,0,0,1-1.036.356.447.447,0,0,1-.072.016,6.164,6.164,0,0,1-1.446.16,2.874,2.874,0,0,1-2.024-.682q-.333-.34-.626-.7a8.907,8.907,0,0,1-2.091-6.51,7.882,7.882,0,0,1,2.078-4.83c.091-.089.185-.173.281-.253.324-.267.58-.475.831-.679,2.3-1.875,4.128-3.36,4.786-5.325a.45.45,0,0,1,.854.286c-.741,2.213-2.656,3.771-5.072,5.738l-.827.676c-.073.06-.147.128-.223.2l0,0a6.945,6.945,0,0,0-1.806,4.258,8.029,8.029,0,0,0,1.887,5.865q.263.32.576.641a2.031,2.031,0,0,0,1.389.411h.057a4.579,4.579,0,0,1-.637-.643,5.134,5.134,0,0,1-.98-2.025.45.45,0,0,1,.875-.215,4.239,4.239,0,0,0,.8,1.672,3.917,3.917,0,0,0,1.3,1.029,4.514,4.514,0,0,0,.738-.263c.119-.062.234-.126.342-.194a35.144,35.144,0,0,0-1.716-3.111.45.45,0,0,1,.762-.48q.794,1.256,1.676,3.014a3.379,3.379,0,0,0,.936-2.15v-.007a7.667,7.667,0,0,0-.448-2.947.338.338,0,0,1-.014-.044v0a18.042,18.042,0,0,0-1.01-2.391.45.45,0,0,1,.8-.4,19.866,19.866,0,0,1,.924,2.123,8.429,8.429,0,0,0,3.464-1.968l.016-.016a6.226,6.226,0,0,0,.862-1.068,9.023,9.023,0,0,0,1.053-5.929,10.268,10.268,0,0,0-1.077-3.393,9.983,9.983,0,0,0-1.87-2.482,13.953,13.953,0,0,1-5.245,3.518,17.235,17.235,0,0,1-8.164.887,12.193,12.193,0,0,1-7.448-3.1,9.433,9.433,0,0,1-2.058-3.047,33.76,33.76,0,0,0-3.443,10.955,26.35,26.35,0,0,0,1.038,11.277,6.516,6.516,0,0,0,2.65,2.557,11.335,11.335,0,0,0,4.424,1.182.452.452,0,0,1,.4.577,9.988,9.988,0,0,0-.28,2.357,4.435,4.435,0,0,0,.971,2.936,3.739,3.739,0,0,0,1.335.969,6.415,6.415,0,0,0,.983-3.764.451.451,0,1,1,.9-.052,7.23,7.23,0,0,1-1.007,4.1h.005a6.371,6.371,0,0,0,1.5.154c.3-.011.58-.03.843-.058a5.431,5.431,0,0,0,.645-1.7,7.662,7.662,0,0,0,.081-2.314.45.45,0,0,1,.9-.091,8.545,8.545,0,0,1-.095,2.582,6.5,6.5,0,0,1-.409,1.314,2.544,2.544,0,0,0,1.3-.81c.618-.767.811-2.077.649-4.195a8.481,8.481,0,0,0-1.557-4.42,11.1,11.1,0,0,0-4.178-3.339l-.02-.01a11.744,11.744,0,0,1-5.4-4.4,10.409,10.409,0,0,1-1.372-6.591.45.45,0,0,1,.9.078,9.55,9.55,0,0,0,1.241,6.04,10.868,10.868,0,0,0,5.006,4.05.525.525,0,0,1,.054.023,11.978,11.978,0,0,1,4.506,3.621,9.359,9.359,0,0,1,1.726,4.878c.18,2.36-.071,3.865-.846,4.826a4.008,4.008,0,0,1-2.768,1.321.415.415,0,0,1-.054.007c-.345.045-.716.073-1.113.087h-.011a7.247,7.247,0,0,1-1.722-.175,6.1,6.1,0,0,1-.635-.183l-.021-.007a4.745,4.745,0,0,1-2.039-1.358,5.313,5.313,0,0,1-1.19-3.514,10.323,10.323,0,0,1,.2-2.1,11.779,11.779,0,0,1-4.269-1.238,8.078,8.078,0,0,1-1.044-.667q4.069,9.391,10.222,14.174a24.148,24.148,0,0,0,16.28,4.946.45.45,0,1,1,.032.9q-.31.012-.617.018a16.952,16.952,0,0,1,1.982,2.22,19.408,19.408,0,0,1,2.179,3.759,7.977,7.977,0,0,0,3.536,3.454,3.79,3.79,0,0,0,1.179.261,3.349,3.349,0,0,1-1.443-1.391.45.45,0,0,1,.787-.437,2.46,2.46,0,0,0,1.073,1.029,3.938,3.938,0,0,0,1.7.36q.272-.125.549-.283a1.988,1.988,0,0,0,.891-1.5,3.046,3.046,0,0,1-1.226.093,4.265,4.265,0,0,1-1.917-.8.451.451,0,1,1,.519-.737,3.394,3.394,0,0,0,1.508.644,2.2,2.2,0,0,0,1.069-.131,8.074,8.074,0,0,0-.775-2.164,15.271,15.271,0,0,1-3.66-2.773,6.119,6.119,0,0,1-1.6-2.924q-3.6-.323-4.589-5.589-4.535.483-6.567-2.083a7.593,7.593,0,0,1-3.2.793,14.066,14.066,0,0,1-4.522-.665.451.451,0,1,1,.254-.865,13.184,13.184,0,0,0,4.233.63,6.746,6.746,0,0,0,2.733-.648q-1.667-2.938-.905-8.836a.45.45,0,0,1,.892.113q-1.525,11.795,7.363,10.622a5.719,5.719,0,0,0,2.985-1.972h0a7.314,7.314,0,0,0,1.347-3.728.45.45,0,0,1,.9.095,8.192,8.192,0,0,1-1.53,4.183h0a6.492,6.492,0,0,1-3.092,2.174q.7,3.766,2.85,4.632c-.033-.047-.065-.1-.1-.145a6.9,6.9,0,0,1-.821-1.97.451.451,0,0,1,.871-.229,6,6,0,0,0,.708,1.713,2.851,2.851,0,0,0,.863.89,5.335,5.335,0,0,0,.6-.05,4.773,4.773,0,0,0,.6-.276q-.212-.628-.472-1.215a12.7,12.7,0,0,0-.721-1.392.45.45,0,0,1,.773-.462,13.526,13.526,0,0,1,.774,1.49q.215.485.4,1a2.069,2.069,0,0,0,.526-1.379c.031-1.184-.609-2.8-1.879-4.971a.44.44,0,0,1-.042-.1c-.231-.749.262-1.175.921-1.744a6.3,6.3,0,0,0,1.114-1.156,4.68,4.68,0,0,0,.314-3.469,7.257,7.257,0,0,0-.945-2.219.451.451,0,0,1-.128-.2q-.193-.286-.422-.571-.1.5-.177.966-.137.82-.192,1.492a.452.452,0,0,1-.9-.074q.057-.692.2-1.566.136-.82.359-1.823a8.773,8.773,0,0,0-2.164-5.432,16.466,16.466,0,0,0-5.892-4.118,9.478,9.478,0,0,1-3.6,1.979,8.107,8.107,0,0,1,.365,2.876l0,.014A4.189,4.189,0,0,1,1543.776,1128.019Zm-7.958-21.581a2.908,2.908,0,0,0-3.467,0,1.555,1.555,0,0,0,0,2.551,2.908,2.908,0,0,0,3.467,0,1.555,1.555,0,0,0,0-2.551Zm-4.449,2.844a2.433,2.433,0,0,1-.587-1.568,2.543,2.543,0,0,1,1-1.978,3.371,3.371,0,0,1,.855-.5,9.651,9.651,0,0,1-3.313-1.342,8.4,8.4,0,0,1-3.15-3.871.453.453,0,0,1,.081-.476,6.886,6.886,0,0,0,.461-.575c-.084-.05-.163-.1-.241-.153a1.4,1.4,0,0,0-.663-.281c-.4.736-.66,1.314-.9,1.847-.174.38-.339.739-.515,1.087a9.912,9.912,0,0,0,2.653,5.452A9.723,9.723,0,0,0,1531.369,1109.281Zm4.781-3.716c.081.054.158.111.232.17a2.449,2.449,0,0,1,0,3.955,3.172,3.172,0,0,1-.3.213,15.448,15.448,0,0,0,5.625-.964,13.082,13.082,0,0,0,5.19-3.6l.016-.018.009-.01q.229-.261.446-.536a7.383,7.383,0,0,1,.017-1.022,8.981,8.981,0,0,1,.161-1.084c-.033-.046-.067-.089-.1-.131a.368.368,0,0,1-.042.025,18.8,18.8,0,0,1-5.968,2.466A22.674,22.674,0,0,1,1536.15,1105.565Zm8.417-20.2c.349.527-.642.8-.854,1.673a1.563,1.563,0,0,0,.146,1.177l.02.03a2.536,2.536,0,0,0,1.278,1.179,2.508,2.508,0,0,0,1.083.046.459.459,0,0,1,.155-.023c.218-.035.456-.086.716-.149a18.714,18.714,0,0,0,3.71-1.627,14.745,14.745,0,0,0,2.961-2.25.45.45,0,0,1,.5-.112,4.727,4.727,0,0,0,1.684.424,1.9,1.9,0,0,0,.548-.064l.023-.006a1.338,1.338,0,0,0,.438-.222.417.417,0,0,1,.071-.05c.227-.13.385-.775.441-1.517a5.979,5.979,0,0,0-.029-1.242,2.636,2.636,0,0,0-.267-.921c-.076-.131-.156-.214-.236-.22l-.5-.011a1.154,1.154,0,0,1,.081.456,1.721,1.721,0,0,1-.283.867,4.722,4.722,0,0,1-2.043,1.622.447.447,0,0,1-.174.047,1.649,1.649,0,0,1-.211,0,4.174,4.174,0,0,1-1.956-.846,2.615,2.615,0,0,1-1.162-1.484.742.742,0,0,1,0-.1.449.449,0,0,1,.178-.331,4.4,4.4,0,0,1,1.263-.6,12.622,12.622,0,0,1-1.574-.362,7.222,7.222,0,0,1-2.7-.792.451.451,0,0,1,.434-.79,5.192,5.192,0,0,0,1.052.431,4.22,4.22,0,0,0-2.029-1.339,13.213,13.213,0,0,0-5.828-.3,11.7,11.7,0,0,0-5.07,2.342.452.452,0,0,1-.462.055,5.954,5.954,0,0,0-4.293.362,7.3,7.3,0,0,0-3.526,2.944,8.06,8.06,0,0,0-1.069,3.917,10.019,10.019,0,0,0,.842,4.218,6.448,6.448,0,0,0,1.473,2.171.4.4,0,0,1,.043.038,2.988,2.988,0,0,0,.439.32,1.583,1.583,0,0,0,.753.241c.1,0,.21,0,.32-.007a1.956,1.956,0,0,0,1.535-.786,3.97,3.97,0,0,0,.589-2.245q.009-.407-.023-.885a10.291,10.291,0,0,1,.391-4.518,4.348,4.348,0,0,1,2.361-2.586.451.451,0,1,1,.363.826,3.48,3.48,0,0,0-1.88,2.074,9.435,9.435,0,0,0-.337,4.132v.012q.034.5.024.962a4.829,4.829,0,0,1-.758,2.757,2.82,2.82,0,0,1-2.206,1.156c-.122.008-.254.011-.4.008a2.46,2.46,0,0,1-1.19-.365l-.033-.02a17.51,17.51,0,0,1-.947,2.673,11.408,11.408,0,0,1-.658,1.239.465.465,0,0,1-.036.059,8.345,8.345,0,0,1-.635.884,7.452,7.452,0,0,0,2.7,3.216,9.757,9.757,0,0,0,4.707,1.449,22.682,22.682,0,0,0,6.713-.441,17.905,17.905,0,0,0,5.547-2.261,3.485,3.485,0,0,1,.916-1.594,8.375,8.375,0,0,1,1.347-1.137c-.49-.124-.984-.267-1.458-.422a11.074,11.074,0,0,1-2.994-1.361.45.45,0,0,1,.568-.7,10.385,10.385,0,0,0,2.7,1.2,16.834,16.834,0,0,0,3.365.77.413.413,0,0,1,.052,0,4.03,4.03,0,0,0,1.15-.023,3.359,3.359,0,0,0,1.7-.788,2.511,2.511,0,0,0,.632-.878l-.039.016-.01,0a4.867,4.867,0,0,1-5.083-.768,13.155,13.155,0,0,1-3.551-5.8c0-.008-.007-.016-.01-.024a3.082,3.082,0,0,1-1.19-.107c-1.99-.624-3.12-2.187-2.318-3.722a4.736,4.736,0,0,1,1.418-1.258C1544.207,1085.158,1544.417,1085.137,1544.567,1085.363Zm9.34-1.794a3.758,3.758,0,0,0,1.584-1.243.85.85,0,0,0,.149-.409.233.233,0,0,0-.064-.173.747.747,0,0,0-.429-.161,8.5,8.5,0,0,0-2.128.22,5.587,5.587,0,0,0-1.319.459,3.725,3.725,0,0,0,.7.633,3.285,3.285,0,0,0,1.479.673Z" transform="translate(-1519.813 -1076.853)"/></g><g transform="translate(0 107.767)"><path class="t" d="M671.533,2695.867q-2.913,12.005-5.816,24.065a3.025,3.025,0,0,0,2.2-.067c4.668-1.779,8.017-12.223,8.417-20.237.27-5.393-1.951-6.687-5.369-5.419-5.854,2.171-10.444,7.61-10.742,13.651a4.16,4.16,0,0,0,.413,2.482c-2.578,1.049-4.126.732-3.993-1.975.268-5.449,7.1-13.3,15.081-16.231,7.628-2.788,10.253,1.673,9.946,7.717-.457,9.114-6.037,20.531-11.847,22.721a5.627,5.627,0,0,1-4.68-.273l-.392,1.712q-2.819,1.105-5.63,2.262,3.279-13.74,6.57-27.412Q668.605,2697.337,671.533,2695.867Z" transform="translate(-656.63 -2671.251)"/><path class="t" d="M1080.709,2758.406a12.876,12.876,0,0,0,4.781-3.516,10.072,10.072,0,0,1-7.146,7.962c-3.678,1.174-6.032.192-5.808-4.29.23-4.538,3.266-15.037,11.387-17.506,3.528-1.054,4.271.541,4.171,2.514-.232,4.585-4.774,9.315-9.534,11.108-.06.409-.121.857-.139,1.214C1078.3,2758.387,1079.324,2758.836,1080.709,2758.406Zm3.425-15.348c-1.982.593-4.182,5.606-5.2,9.631a10.389,10.389,0,0,0,6.111-8.305C1085.094,2743.4,1084.887,2742.833,1084.135,2743.058Z" transform="translate(-1047.957 -2717.767)"/><path class="t" d="M1363.138,2475.208q-.394,1.531-.786,3.063-2.909.672-5.814,1.394-1.989,7.822-3.976,15.665-2.863.749-5.723,1.545,3.527-14,7.06-27.921c-3.07.906-5.262,3.229-5.583,9.549a4.432,4.432,0,0,0,.42,2.535c-2.741.75-4.2.2-4.055-2.646.268-5.23,4.244-11.434,14.079-13.844,1.593-.387,4.078-.5,6.59-1.059a14.75,14.75,0,0,0,3.613-1.248c-.642,1.775-.885,4.192-4.029,5.548a28.923,28.923,0,0,1-5.541.541q-1.036,4.124-2.071,8.257Q1360.228,2475.871,1363.138,2475.208Z" transform="translate(-1304.033 -2455.735)"/><path class="t" d="M1641.221,2480.712q-2.836,11.08-5.671,22.21a6.032,6.032,0,0,0-.224,1.295c-.056,1.1.444,1.345,1.561,1.109,1.556-.328,3.068-2.113,3.767-4.2q.838-.167,1.676-.328c-2.6,6.848-6.6,8.54-8.748,9.022-2.393.528-4.193-.449-4.024-3.763a14.3,14.3,0,0,1,.449-2.637q2.633-10.372,5.27-20.7Q1638.249,2481.688,1641.221,2480.712Z" transform="translate(-1572.083 -2473.115)"/><path class="t" d="M1819.363,2561.425q-1.779,6.928-3.557,13.876a4.552,4.552,0,0,0-.17,1.005c-.046.905.191,1.679,1.109,1.514,1.557-.279,2.671-1.949,3.371-4.015q1.68-6.538,3.36-13.059,2.895-.458,5.788-.866-3.017,11.726-6.035,23.506c-1.485,5.8-4.973,7.438-7.607,7.924-2.435.443-4.623-.8-4.492-3.358.187-3.659,3.357-5.419,7.206-7.179l.487-1.8a8.206,8.206,0,0,1-4.986,3.159c-2.395.45-4.2-.585-4.029-3.893a14.137,14.137,0,0,1,.45-2.622q1.679-6.588,3.358-13.159Q1816.489,2561.916,1819.363,2561.425Zm-4.481,26.553c.8-.148,1.874-1.082,2.512-3.494q.3-1.2.6-2.4c-2.557,1.266-4.531,2.773-4.64,4.9A1.209,1.209,0,0,0,1814.882,2587.979Z" transform="translate(-1741.686 -2547.607)"/><path class="t" d="M2304.61,2355.776q-1.157,4.4-2.316,8.815l.239-.018c3.186-.237,5.9-3.774,6.054-6.7.113-2.223-1.254-4.153-5.035-3.89-4.657.318-10.117,3.908-10.449,10.377a4.863,4.863,0,0,0,.422,2.607c-2.632.268-4.218-.517-4.083-3.146.277-5.41,7.475-11.194,15-11.692,5.85-.388,8.314,2.549,8.151,5.741a8.331,8.331,0,0,1-4.292,6.41c3.346.478,4.518,3.131,4.368,6.057-.193,3.762-2.638,11.3-9.285,11.754-1.712.121-3.917-.2-3.794-2.59a6.824,6.824,0,0,1,.634-2.312,3.166,3.166,0,0,0,2.6,1.2c2.906-.211,4.148-4.328,4.3-7.3.14-2.733-.62-4.92-3.526-4.718-.318.022-1.117.119-1.837.252q-2.017,7.616-4.034,15.257-2.869.255-5.741.56,3.351-12.748,6.7-25.426Q2301.644,2356.366,2304.61,2355.776Z" transform="translate(-2192.995 -2352.09)"/><path class="t" d="M2713.584,2501.867q-1.757,6.586-3.516,13.192a5.433,5.433,0,0,0-.222,1.244c-.056,1.092.428,1.679,1.533,1.695,1.54.022,2.691-1.665,3.382-3.6q.829.021,1.655.046c-2.568,6.268-6.163,7.069-8.3,7.065a3.4,3.4,0,0,1-3.693-3.58c-1.318,1.8-3.271,3.613-6.086,3.685-2.7.068-5.194-1.461-4.956-6.108.268-5.26,4-13.841,10.888-13.9,2.256-.015,3.16.85,3.1,1.979,0,.091-.01.182-.014.272q.27-1.032.54-2.063Q2710.746,2501.806,2713.584,2501.867Zm-14.3,12.909c-.154,3,1.113,3.014,1.826,3,1.149-.02,2.872-1.207,3.462-3.47q1.174-4.41,2.348-8.812a1.432,1.432,0,0,0-1.546-1.479C2702.011,2504.03,2699.47,2511.11,2699.283,2514.776Z" transform="translate(-2573.07 -2492.776)"/><path class="t" d="M3059.379,2382.507q-2.786,10.354-5.582,20.756a5.38,5.38,0,0,0-.22,1.237c-.056,1.09.438,1.459,1.538,1.51,1.533.071,3.02-1.327,3.707-3.235q.823.048,1.646.1c-2.554,6.182-6.486,6.849-8.612,6.779-2.361-.085-4.144-1.525-3.977-4.8a12.841,12.841,0,0,1,.444-2.522q2.607-9.7,5.205-19.348Q3056.458,2382.721,3059.379,2382.507Z" transform="translate(-2906.635 -2380.71)"/><path class="t" d="M3230.274,2415.244a5.943,5.943,0,0,0-.213,1.115,1.437,1.437,0,0,0,1.524,1.677,2.543,2.543,0,0,0,1.261-.131,4.031,4.031,0,0,1-4.507,3.745c-2.348-.163-4.12-1.7-3.952-5a12.568,12.568,0,0,1,.442-2.507q2.592-9.61,5.178-19.178,2.914-.172,5.818-.29Q3233.054,2404.933,3230.274,2415.244Z" transform="translate(-3072.716 -2392.157)"/><path class="u" d="M671.533,2695.867q-2.913,12.005-5.816,24.065a3.025,3.025,0,0,0,2.2-.067c4.668-1.779,8.017-12.223,8.417-20.237.27-5.393-1.951-6.687-5.369-5.419-5.854,2.171-10.444,7.61-10.742,13.651a4.16,4.16,0,0,0,.413,2.482c-2.578,1.049-4.126.732-3.993-1.975.268-5.449,7.1-13.3,15.081-16.231,7.628-2.788,10.253,1.673,9.946,7.717-.457,9.114-6.037,20.531-11.847,22.721a5.627,5.627,0,0,1-4.68-.273l-.392,1.712q-2.819,1.105-5.63,2.262,3.279-13.74,6.57-27.412Q668.605,2697.337,671.533,2695.867Z" transform="translate(-656.63 -2671.251)"/><path class="u" d="M1080.709,2758.406a12.876,12.876,0,0,0,4.781-3.516,10.072,10.072,0,0,1-7.146,7.962c-3.678,1.174-6.032.192-5.808-4.29.23-4.538,3.266-15.037,11.387-17.506,3.528-1.054,4.271.541,4.171,2.514-.232,4.585-4.774,9.315-9.534,11.108-.06.409-.121.857-.139,1.214C1078.3,2758.387,1079.324,2758.836,1080.709,2758.406Zm3.425-15.348c-1.982.593-4.182,5.606-5.2,9.631a10.389,10.389,0,0,0,6.111-8.305C1085.094,2743.4,1084.887,2742.833,1084.135,2743.058Z" transform="translate(-1047.957 -2717.767)"/><path class="u" d="M1363.138,2475.208q-.394,1.531-.786,3.063-2.909.672-5.814,1.394-1.989,7.822-3.976,15.665-2.863.749-5.723,1.545,3.527-14,7.06-27.921c-3.07.906-5.262,3.229-5.583,9.549a4.432,4.432,0,0,0,.42,2.535c-2.741.75-4.2.2-4.055-2.646.268-5.23,4.244-11.434,14.079-13.844,1.593-.387,4.078-.5,6.59-1.059a14.75,14.75,0,0,0,3.613-1.248c-.642,1.775-.885,4.192-4.029,5.548a28.923,28.923,0,0,1-5.541.541q-1.036,4.124-2.071,8.257Q1360.228,2475.871,1363.138,2475.208Z" transform="translate(-1304.033 -2455.735)"/><path class="u" d="M1641.221,2480.712q-2.836,11.08-5.671,22.21a6.032,6.032,0,0,0-.224,1.295c-.056,1.1.444,1.345,1.561,1.109,1.556-.328,3.068-2.113,3.767-4.2q.838-.167,1.676-.328c-2.6,6.848-6.6,8.54-8.748,9.022-2.393.528-4.193-.449-4.024-3.763a14.3,14.3,0,0,1,.449-2.637q2.633-10.372,5.27-20.7Q1638.249,2481.688,1641.221,2480.712Z" transform="translate(-1572.083 -2473.115)"/><path class="u" d="M1819.363,2561.425q-1.779,6.928-3.557,13.876a4.552,4.552,0,0,0-.17,1.005c-.046.905.191,1.679,1.109,1.514,1.557-.279,2.671-1.949,3.371-4.015q1.68-6.538,3.36-13.059,2.895-.458,5.788-.866-3.017,11.726-6.035,23.506c-1.485,5.8-4.973,7.438-7.607,7.924-2.435.443-4.623-.8-4.492-3.358.187-3.659,3.357-5.419,7.206-7.179l.487-1.8a8.206,8.206,0,0,1-4.986,3.159c-2.395.45-4.2-.585-4.029-3.893a14.137,14.137,0,0,1,.45-2.622q1.679-6.588,3.358-13.159Q1816.489,2561.916,1819.363,2561.425Zm-4.481,26.553c.8-.148,1.874-1.082,2.512-3.494q.3-1.2.6-2.4c-2.557,1.266-4.531,2.773-4.64,4.9A1.209,1.209,0,0,0,1814.882,2587.979Z" transform="translate(-1741.686 -2547.607)"/><path class="u" d="M2304.61,2355.776q-1.157,4.4-2.316,8.815l.239-.018c3.186-.237,5.9-3.774,6.054-6.7.113-2.223-1.254-4.153-5.035-3.89-4.657.318-10.117,3.908-10.449,10.377a4.863,4.863,0,0,0,.422,2.607c-2.632.268-4.218-.517-4.083-3.146.277-5.41,7.475-11.194,15-11.692,5.85-.388,8.314,2.549,8.151,5.741a8.331,8.331,0,0,1-4.292,6.41c3.346.478,4.518,3.131,4.368,6.057-.193,3.762-2.638,11.3-9.285,11.754-1.712.121-3.917-.2-3.794-2.59a6.824,6.824,0,0,1,.634-2.312,3.166,3.166,0,0,0,2.6,1.2c2.906-.211,4.148-4.328,4.3-7.3.14-2.733-.62-4.92-3.526-4.718-.318.022-1.117.119-1.837.252q-2.017,7.616-4.034,15.257-2.869.255-5.741.56,3.351-12.748,6.7-25.426Q2301.644,2356.366,2304.61,2355.776Z" transform="translate(-2192.995 -2352.09)"/><path class="u" d="M2713.584,2501.867q-1.757,6.586-3.516,13.192a5.433,5.433,0,0,0-.222,1.244c-.056,1.092.428,1.679,1.533,1.695,1.54.022,2.691-1.665,3.382-3.6q.829.021,1.655.046c-2.568,6.268-6.163,7.069-8.3,7.065a3.4,3.4,0,0,1-3.693-3.58c-1.318,1.8-3.271,3.613-6.086,3.685-2.7.068-5.194-1.461-4.956-6.108.268-5.26,4-13.841,10.888-13.9,2.256-.015,3.16.85,3.1,1.979,0,.091-.01.182-.014.272q.27-1.032.54-2.063Q2710.746,2501.806,2713.584,2501.867Zm-14.3,12.909c-.154,3,1.113,3.014,1.826,3,1.149-.02,2.872-1.207,3.462-3.47q1.174-4.41,2.348-8.812a1.432,1.432,0,0,0-1.546-1.479C2702.011,2504.03,2699.47,2511.11,2699.283,2514.776Z" transform="translate(-2573.07 -2492.776)"/><path class="u" d="M3059.379,2382.507q-2.786,10.354-5.582,20.756a5.38,5.38,0,0,0-.22,1.237c-.056,1.09.438,1.459,1.538,1.51,1.533.071,3.02-1.327,3.707-3.235q.823.048,1.646.1c-2.554,6.182-6.486,6.849-8.612,6.779-2.361-.085-4.144-1.525-3.977-4.8a12.841,12.841,0,0,1,.444-2.522q2.607-9.7,5.205-19.348Q3056.458,2382.721,3059.379,2382.507Z" transform="translate(-2906.635 -2380.71)"/><path class="u" d="M3230.274,2415.244a5.943,5.943,0,0,0-.213,1.115,1.437,1.437,0,0,0,1.524,1.677,2.543,2.543,0,0,0,1.261-.131,4.031,4.031,0,0,1-4.507,3.745c-2.348-.163-4.12-1.7-3.952-5a12.568,12.568,0,0,1,.442-2.507q2.592-9.61,5.178-19.178,2.914-.172,5.818-.29Q3233.054,2404.933,3230.274,2415.244Z" transform="translate(-3072.716 -2392.157)"/></g><path class="v" d="M2078.728,1161.038h-.038a2.637,2.637,0,0,1-.875-.241,2.106,2.106,0,0,1-.413-.228l-.067-.055.1-.032a4.575,4.575,0,0,1,.758-.162,7.7,7.7,0,0,1,1.211-.077h.01a.72.72,0,0,1,.295.072.115.115,0,0,1,.064.1.282.282,0,0,1-.1.17,2.415,2.415,0,0,1-.923.446Z" transform="translate(-1993.423 -1122.868)"/><g transform="translate(72.974 35.407)"><path class="w" d="M1901.895,1135.088c-.337.172-.678.321-.975.019a1.674,1.674,0,0,1-.355-.844,2.213,2.213,0,0,1,.376-1.607,1.186,1.186,0,0,1,.659-.577.623.623,0,0,1,.679.321,2.488,2.488,0,0,1,.288.956,5.817,5.817,0,0,1,.1.85.054.054,0,0,0,0,.017,2.132,2.132,0,0,1-.657.907A.078.078,0,0,0,1901.895,1135.088Z" transform="translate(-1900.036 -1131.762)"/><path class="x" d="M1893.106,1130.338c.281.283.6.143.92-.018.08-.04.145.048.093.1a1.024,1.024,0,0,1-1.068.3,1.5,1.5,0,0,1-.745-.814,2.261,2.261,0,0,1,.295-2.141,1.764,1.764,0,0,1,.941-.765,1.217,1.217,0,0,1,1.167.286,2.1,2.1,0,0,1,.185,2.214c-.022.067-.143.054-.141-.016a5.389,5.389,0,0,0-.091-.8,2.312,2.312,0,0,0-.271-.9.589.589,0,0,0-.641-.3,1.117,1.117,0,0,0-.623.542,2.071,2.071,0,0,0-.355,1.509A1.571,1.571,0,0,0,1893.106,1130.338Z" transform="translate(-1892.149 -1126.958)"/></g><g transform="translate(73.945 36.803)"><path class="y" d="M1910.135,1166.7a1.107,1.107,0,0,1,.467.213.766.766,0,0,1-.7.508.779.779,0,0,1-.727-.6A1.227,1.227,0,0,1,1910.135,1166.7Z" transform="translate(-1909.143 -1165.704)"/><path class="z" d="M1909.346,1150.592a.815.815,0,0,1,.763.86.945.945,0,0,1-.067.352,1.11,1.11,0,0,0-.467-.213,1.228,1.228,0,0,0-.957.12.964.964,0,0,1-.035-.258A.816.816,0,0,1,1909.346,1150.592Z" transform="translate(-1908.584 -1150.592)"/><path class="aa" d="M1917.448,1160.294a.272.272,0,0,0-.255.287" transform="translate(-1916.685 -1159.721)"/><path class="w" d="M1922.862,1153.454a.213.213,0,1,0,.212-.225A.219.219,0,0,0,1922.862,1153.454Z" transform="translate(-1922.019 -1153.073)"/></g><g transform="translate(78.258 45.917)"><path class="ab" d="M2019.6,1331.464a1.852,1.852,0,0,1-.909-1.5,26.708,26.708,0,0,0-.821-3.14c-.117-.349-.03-.872.323-.8a1.562,1.562,0,0,1,.67.247,5.564,5.564,0,0,1,.678,1.232,11.51,11.51,0,0,1,.719,2.851.015.015,0,0,0,.031,0,6.376,6.376,0,0,0-.52-3.115c-.057-.137-.118-.272-.183-.405a.466.466,0,0,1,.277-.322.409.409,0,0,1,.1-.034,4.03,4.03,0,0,1,1.106,1.576,5.534,5.534,0,0,1,.345,1.74,3.562,3.562,0,0,1-.248,1.677l-.022.042A1.992,1.992,0,0,1,2019.6,1331.464Z" transform="translate(-2015.687 -1324.769)"/><path class="ac" d="M1986.293,1311.475c.209.054.42.108.629.169a2.108,2.108,0,0,1,.287.222,4.773,4.773,0,0,1,.466.489c.02.025.039.052.059.078a1.57,1.57,0,0,0-.67-.247c-.352-.07-.44.453-.323.8a26.827,26.827,0,0,1,.821,3.14,1.851,1.851,0,0,0,.909,1.5,1.99,1.99,0,0,0,1.542.047,1.108,1.108,0,0,1-1.154.609,1.619,1.619,0,0,1-1.16-.6,6.682,6.682,0,0,1-.9-2.939,4.424,4.424,0,0,0-1.156-2.742c-.04-.033-.08.037-.05.077a2.957,2.957,0,0,1,.445.92l-.169-.171a8.155,8.155,0,0,1-1.135-1.456A3.1,3.1,0,0,1,1986.293,1311.475Z" transform="translate(-1984.552 -1310.934)"/><path class="ad" d="M1981.6,1305.021a3.819,3.819,0,0,1,2.28.184,7.138,7.138,0,0,1,1.362.521,2.664,2.664,0,0,0,.513.288v.028l.074.055a4.439,4.439,0,0,1,1.407,1.8,5.854,5.854,0,0,1,.418,1.814c0,.049.008.1.011.149,0,.338-.022.679-.032,1.018a1.915,1.915,0,0,1-1.129,1.743,1.963,1.963,0,0,1-1.519-.223,2.345,2.345,0,0,1-.886-1.072,7.45,7.45,0,0,1-.5-1.82h0a10.109,10.109,0,0,0-.547-2.576l.045.045a2.951,2.951,0,0,0-.445-.92c-.03-.04.009-.109.05-.077a4.422,4.422,0,0,1,1.156,2.742,6.682,6.682,0,0,0,.9,2.939,1.619,1.619,0,0,0,1.16.6,1.111,1.111,0,0,0,1.175-.652,3.557,3.557,0,0,0,.248-1.677,5.526,5.526,0,0,0-.345-1.74,4.17,4.17,0,0,0-2.166-2.263c.025.027.049.054.072.081a5.179,5.179,0,0,1,.8,1.367,6.381,6.381,0,0,1,.521,3.115.015.015,0,0,1-.031,0,11.508,11.508,0,0,0-.719-2.851,5.463,5.463,0,0,0-.737-1.311,4.732,4.732,0,0,0-.466-.489,2.113,2.113,0,0,0-.287-.222c-.209-.061-.421-.116-.629-.169a3.1,3.1,0,0,0-1.556-.1c.026.042.053.083.079.125A3.893,3.893,0,0,1,1981.6,1305.021Z" transform="translate(-1981.605 -1304.907)"/></g></g></g></svg>