<svg xmlns="http://www.w3.org/2000/svg" xmlns:xlink="http://www.w3.org/1999/xlink" width="570.507" height="414.937" viewBox="0 0 570.507 414.937"><defs><style>.a{fill:#f2f2f0;}.b{fill:#686867;}.c{fill:none;}.d,.o{fill:#c4c3c2;}.d,.j,.k,.n,.q{mix-blend-mode:multiply;}.d,.j,.k,.m,.n,.p,.q{isolation:isolate;}.e{fill:#35302c;}.f{fill:#fdfcf8;}.g,.p{fill:#fff;}.h{fill:#c8c7c7;}.i{fill:url(#a);}.j,.k{opacity:0.7;}.j{fill:url(#b);}.l{fill:#ffc281;}.l,.q{opacity:0.5;}.m{fill:#7b6a5c;opacity:0.3;}.m,.p{mix-blend-mode:screen;}</style><linearGradient id="a" x1="0.787" y1="-0.187" x2="0.368" y2="0.979" gradientUnits="objectBoundingBox"><stop offset="0" stop-color="#111021"/><stop offset="0.541" stop-color="#824126"/><stop offset="0.776" stop-color="#ffc281"/><stop offset="0.995" stop-color="#b26500"/></linearGradient><linearGradient id="b" x1="0.787" y1="-0.187" x2="0.368" y2="0.979" gradientUnits="objectBoundingBox"><stop offset="0.212" stop-color="#824126"/><stop offset="0.995" stop-color="#b26500"/></linearGradient></defs><g transform="translate(0)"><g transform="translate(0 3.486)"><path class="a" d="M1008.543,242.525a14.752,14.752,0,0,0,6.083,4.137c3.535,1.1,1.469,6.822-5.232,6.942.365,5.967.851,7.793-5.353,8.4s-10.614,3.685-22.884,10.967-17.983,8.27-26.261,11.988-17.838,11.274-21.693,16.556-5.651,8.656-14.4,6.469c-10.61,17.5-21.062,39.27-33.486,73.738-9.627,23.332-11.988,29.12-10.913,43.456s-.573,28.332-3.423,54.025-.394,29.286,6.3,35.494,25.527,24.021,37.373,39.435,24.183,35.456,34.892,46.17c10.278,10.274,11.353,8.133,12.423,12.415.51.938,3.477,2.025,6.025,1.241s5.755-1.212,6.963-.668c0,0,6-4.3,8.722,1.029s2.668,17.274-4.963,16.664c-2.3,2.967-6.427,2.241-6.971,1.7-3.515,3.51-14.419,3.444-18.415-.266s-4.216-10.776-7.78-10.776-4.784-.432-4.992-3.5.531-6.921-6.851-12.6c-5.245-3.635-9.1-4.813-12.1-4.706s-3.639-3-3.639-6.851-1.178-6.888-7.6-15.452-27.689-23.548-41.1-34.394-20.7-15.415-23.552-15.274-9.419-2.423-10.278-11.27-4.427-27.4-9.129-37.108c0,0-9.9,3.428-14.369,6.805s-16.1,14.531-20.6,33.581-14.349,49.668-17.124,62.514-4.78,19.431,1.075,34.241c1.772,5.851,5.581,7.975,7.618,8.685s3.639-.266,6.3.975c5.763-3.809,9.838-1.593,10.809,4.88s-3.1,9.747-6.465,9.3c-2.037,4.432-5.5,3.191-6.826,2.307-4.523,1.6-10.382.448-14.809-.535s-7.266.407-8.514-6.378c-.963-5.307-2.676-9.27-4.286-10.768s-.963-2.245-.751-6.743a65.369,65.369,0,0,0-4.846-25.262c-4.29-10.564-.718-12.7,1.423-17.419,2.145-4.7,8.992-24.116,10.921-38.245S768,513.6,766.938,506.749s-2.361-12.631-2.361-12.631a79.308,79.308,0,0,1-48.166-9.2c-23.979-13.49-36.087-29.394-50.182-34.481s-21.042.51-25.9,8.5-4.763,15.56-1.556,32.178,1.129,23.124-16.353,49.253c-19.477,29.108-28.681,39.386-25.9,50.946s5.141,17.34,11.353,25.265,7.776,11.481,11.34,9.49,5.855-3.137,9.71-.291c.855-3.568,7.415-1.714,8.988.145,3.427-2.423,6.572.145,7.992,5.419,1.435,5.286-1.564,7.423-8.56,6.855-6.141,2.141-8.137.286-8.137.286-9.133,2.286-21.975,3.141-25.406-2.643a24.051,24.051,0,0,0-8.768-9.2c-2.577-1.718-1.934-4.286-3.436-9.211s-9.2-19.909-14.336-27.614-8.137-10.278-.436-18.627,24.838-23.12,6.423-61.017c-16.05,14.345-31.253,19.054-51.373,29.12s-27.49,16.2-31.046,24.195c-8.776,19.693-16.054,41.315-18.842,49.021s-5.925,14.643-11.95,21.494-11.1,7.44-13.581,7.091a3.906,3.906,0,0,1-3.307-4.137c-5.792-2.481-4.846-4.61-4.61-6.025-2.008-1.419-2.955-6.378.24-11.34s8.149-4.61,11.1-6.734-2.008-6.855,4.253-7.56,6.382-2.6,9.336-13.826,6.452-21.925,8.743-30.913.56-11.133.141-15.274,0-6.564,6.274-8.706,25.266-16.556,38.536-29.4,14.552-31.037,9.2-55.017-7.349-26.618-8.489-46.315,11.991-37.676,20.842-49.95c4.851-8.564-1.718-10.851-7.718-14.556s-34.908-16.17-40.809-37.967c-5.328-19.676,3.9-27.485,9.269-37.2,5.843-10.544,7.307-16.544,5.357-22.705s4.32-6.436,6.975,5.51c2.274,10.22-11.373,19.514-13.946,32.925-1.618,8.44,6.647,31.154,25.465,41.851s32.12,12.822,40.552,8.112,17.523-8.759,51.091,3.411c10.709,3.892,10.709,2.755,27.253,5.353s39.8,8.768,59.713,9.627,55.44,4.494,70.643,3.639,20.124-.859,29.548-6.423,32.324-16.7,47.95-49.025c-7.7-10.705-6.639-17.129-5.137-25.693s4.282-9.631,14.987-13.058c6-2.141,7.274-4.925,10.062-8.992s7.274-9.419,16.054-2.353c0,0,13.7-3.427,20.129-4.494,5.56-10.71,10.274-13.705,16.693-3.639,2.149,3.207,8.992,3,19.054,2.78s17.344-1.071,27.618-4.71,11.772-4.066,16.054-2.78S1008.543,242.525,1008.543,242.525Z" transform="translate(-446.257 -233.621)"/><path class="b" d="M789.8,645.4c1.278,0,3.05-.552,4.344-3.137a6.008,6.008,0,0,0,4.876-2.17,9.385,9.385,0,0,0,1.755-7.66c-.676-4.523-2.9-7.112-6.1-7.112a9.789,9.789,0,0,0-5.166,1.813,7.876,7.876,0,0,0-3.344-.631l-.793,0a5.676,5.676,0,0,1-1.979-.266c-2.008-.7-5.631-2.726-7.357-8.407-5.477-13.88-4.079-20.274-1.535-31.9l.465-2.133c1.361-6.266,4.44-16.888,7.7-28.137,3.5-12.1,7.129-24.618,9.423-34.361,4.88-20.676,17.892-31.407,20.448-33.344,3.88-2.942,12.075-5.963,13.892-6.614,4.415,9.365,8,27.191,8.921,36.614.925,9.527,8.046,11.664,10.469,11.664h.253l.112,0c2.942,0,10.519,4.967,23.145,15.179,3.705,3,7.938,6.249,12.419,9.7,11.8,9.079,24,18.469,28.614,24.622,6.469,8.631,7.515,11.548,7.515,15.2,0,3.39.448,7.278,3.921,7.278h.166c3.257-.12,7.162,1.394,11.838,4.635,6.39,4.913,6.515,8.415,6.614,11.224.008.357.021.705.054,1.045.241,3.51,1.913,3.9,5.415,3.9,1.689,0,2.56,1.963,3.656,4.444a18.049,18.049,0,0,0,3.834,6.216c1.967,1.826,5.768,2.959,9.93,2.959,3.8,0,7.062-.917,8.83-2.473a5.412,5.412,0,0,0,2.162.39,6.354,6.354,0,0,0,4.946-2.178,5.588,5.588,0,0,0,5.307-2.813c2.324-3.809,1.793-10.693-.145-14.482a4.826,4.826,0,0,0-4.432-2.9,9.535,9.535,0,0,0-4.739,1.581c-1.328-.427-4.382-.079-7.033.747a6.112,6.112,0,0,1-1.751.249,5.33,5.33,0,0,1-3.755-1.245c-.606-2.411-1.3-2.938-3.328-4.465a81.323,81.323,0,0,1-9.178-8.091c-6.851-6.842-14.207-17.3-22-28.378-4.228-6-8.6-12.216-12.863-17.751-11.054-14.4-28.187-30.925-37.415-39.49-6.49-6.025-9.013-9.5-6.166-35.133L872,477.22c2.706-24.378,4.2-37.8,3.166-51.743-1.075-14.307,1.22-19.867,10.888-43.266,11.311-31.4,21.581-54.058,33.282-73.415a19.3,19.3,0,0,0,4.494.614h0c4.763,0,6.705-2.689,9.4-6.419l.651-.9c4.054-5.552,13.709-12.913,21.523-16.419,2.593-1.166,4.884-2.042,7.315-2.967a109.206,109.206,0,0,0,18.992-9.046c1.539-.917,2.958-1.768,4.278-2.544,8.988-5.382,13.091-7.838,18.423-8.361,6.278-.618,6.141-2.751,5.813-7.9l-.037-.519c4.066-.237,6.568-2.568,6.875-4.726a2.649,2.649,0,0,0-1.975-3.037,14.536,14.536,0,0,1-5.884-4l-.087-.083c-.361-.232-8.792-5.784-13.087-7.075a13.1,13.1,0,0,0-3.846-.672c-2.581,0-5.689,1.062-12.473,3.461-10.357,3.672-17.647,4.477-27.481,4.689l-.61.012c-2.253.05-4.386.1-6.3.1-6.162,0-10.286-.452-11.78-2.7-2.73-4.278-5.265-6.361-7.759-6.361-3.05,0-6.008,3.037-9.581,9.846-6.008,1.029-18.021,3.988-19.734,4.415-2.855-2.261-5.514-3.4-7.917-3.4-3.967,0-6.568,3.021-8.6,5.975-.307.456-.6.9-.888,1.319-2.187,3.286-3.768,5.66-8.963,7.515-10.846,3.473-13.751,4.739-15.27,13.39-1.46,8.382-2.618,15.021,5.075,25.8-14.34,29.5-34.419,41-45.216,47.191-.9.51-1.726.988-2.469,1.423-8.846,5.228-13.813,5.506-27.087,6.232l-2.257.133c-1.527.087-3.315.129-5.344.129-10.315,0-25.348-1.087-39.88-2.141-9.431-.68-18.349-1.319-25.386-1.626-13.415-.577-28.465-3.6-41.759-6.266-6.432-1.295-12.519-2.515-17.892-3.357-5.116-.8-8.606-1.241-11.411-1.6a55.449,55.449,0,0,1-15.763-3.73c-14.967-5.423-26.311-8.054-34.685-8.054-7.742,0-12.174,2.112-16.759,4.676-8.631,4.809-22.29,2.05-40.141-8.108-18.573-10.568-26.913-32.813-25.262-41.4,1.158-6.012,4.523-11.124,7.784-16.062,3.83-5.8,7.448-11.29,6.166-17.037-1.527-6.892-4.353-10.033-6.323-10.033a1.658,1.658,0,0,0-1.369.7c-.627.851-.66,2.286-.112,4.041,1.892,6,.506,11.859-5.319,22.378-.988,1.784-2.092,3.481-3.266,5.278-5.12,7.88-10.432,16.025-6.046,32.232,5.112,18.913,27.647,30.987,37.266,36.145,1.626.876,2.913,1.56,3.743,2.075.722.444,1.448.871,2.162,1.286,5.286,3.087,9.461,5.527,5.39,12.7l-.249.344c-8.672,12.025-21.776,30.2-20.635,49.842.834,14.423,2.1,19.581,4.855,30.892.979,4.021,2.2,9.029,3.647,15.486,5.813,26.07,3.013,42.913-9.087,54.622-13.058,12.635-32.07,27.154-38.377,29.307-6.212,2.116-7.046,4.535-6.568,9.153.1,1.008.29,1.909.46,2.784.552,2.747,1.12,5.581-.6,12.332-1.145,4.531-2.606,9.494-4.149,14.759-1.531,5.2-3.125,10.593-4.581,16.162l-.493,1.863c-2.485,9.539-2.876,11-8.477,11.635-4.091.469-3.85,2.718-3.672,4.523.129,1.282.241,2.382-.78,3.12a13.832,13.832,0,0,1-3.552,1.593c-2.577.888-5.5,1.9-7.66,5.257-3.3,5.129-2.324,10.062-.349,11.751a.4.4,0,0,0-.012.079c-.29,1.465-.73,3.664,4.668,6.046a4.271,4.271,0,0,0,3.668,4.278,8.157,8.157,0,0,0,1.207.083c2.884,0,7.448-1.274,12.755-7.311,5.95-6.767,9.112-13.539,12.033-21.635.448-1.22,1-2.8,1.664-4.668,3.415-9.7,9.789-27.772,17.166-44.324C505.22,555.747,513,549.693,532.394,540c5.025-2.514,9.714-4.68,14.253-6.767,13.32-6.162,24.859-11.485,36.8-22.033,16.879,35.174,3.041,49.809-5.249,58.576-.469.5-.925.988-1.349,1.444-7.282,7.892-5.141,11.033-.871,17.3q.6.878,1.249,1.859c5,7.481,12.739,22.394,14.295,27.5a36.336,36.336,0,0,1,.975,4.162c.444,2.34.764,4.041,2.622,5.274l.295.2c2.511,1.672,5.108,3.4,8.353,8.875,1.78,3.008,6.141,4.593,12.606,4.593a56.313,56.313,0,0,0,13.075-1.709,5.447,5.447,0,0,0,3.05.714,16.346,16.346,0,0,0,5.237-1.029c4.328.349,7.066-.336,8.4-2.083.959-1.253,1.129-3.037.515-5.311-1.129-4.17-3.307-6.664-5.83-6.664a4.752,4.752,0,0,0-2.519.8,9.55,9.55,0,0,0-5.8-2.046c-1.726,0-2.938.631-3.473,1.78a7.2,7.2,0,0,0-4.1-1.465c-1.784,0-3.37.813-5.589,2.054a3.28,3.28,0,0,1-1.589.49c-1.73,0-3.34-2.133-6.265-6.012-.855-1.137-1.822-2.428-2.942-3.859-5.925-7.552-8.34-12.95-11.274-25.1C595,582.112,601,573.361,614.128,554.17c2.668-3.9,5.7-8.324,8.987-13.245,17.527-26.191,19.676-32.68,16.419-49.56-3.382-17.51-3.062-24.361,1.506-31.884,4.295-7.079,9.149-10.241,15.718-10.241a28.923,28.923,0,0,1,9.656,1.925c7.1,2.56,13.842,8.017,21.655,14.332s16.643,13.465,28.461,20.112a79.659,79.659,0,0,0,38.867,9.909,65.568,65.568,0,0,0,9.182-.589c.3,1.415,1.369,6.465,2.27,12.212,1.12,7.228.755,18.145-1.075,31.56-1.917,14.033-8.656,33.212-10.888,38.129-.386.863-.834,1.643-1.261,2.4-1.921,3.373-3.73,6.564-.17,15.348a65.306,65.306,0,0,1,4.826,25.083c-.062,1.1-.141,1.992-.2,2.7-.195,2.195-.282,3.1,1.087,4.377,1.627,1.527,3.266,5.656,4.149,10.527,1.054,5.706,3.274,5.967,6.353,6.336a24.063,24.063,0,0,1,2.485.39,46.082,46.082,0,0,0,9.647,1.332,16.8,16.8,0,0,0,5.2-.743A5.524,5.524,0,0,0,789.8,645.4Zm3.83-4.062-.133.286c-.892,1.938-2.133,2.921-3.7,2.921a4.813,4.813,0,0,1-2.5-.793l-.179-.12-.2.075a15.44,15.44,0,0,1-5.112.759,45.194,45.194,0,0,1-9.461-1.3,25.258,25.258,0,0,0-2.573-.407c-2.913-.349-4.68-.56-5.61-5.639-.929-5.116-2.622-9.332-4.419-11-1.05-.984-1-1.494-.809-3.664.062-.722.145-1.622.2-2.743a65.956,65.956,0,0,0-4.88-25.444c-3.411-8.407-1.776-11.278.12-14.61.44-.772.892-1.573,1.3-2.469,2.249-4.946,9.025-24.245,10.946-38.365,1.847-13.5,2.212-24.506,1.075-31.809-1.062-6.78-2.349-12.6-2.357-12.656l-.1-.4-.4.066a60.645,60.645,0,0,1-9.444.643,78.767,78.767,0,0,1-38.444-9.805c-11.759-6.606-20.568-13.734-28.348-20.025-7.871-6.365-14.664-11.863-21.9-14.473a29.763,29.763,0,0,0-9.946-1.975c-8.95,0-13.676,6.083-16.456,10.655-5.154,8.494-4.693,16.527-1.614,32.481,3.2,16.589,1.07,22.987-16.278,48.925-3.3,4.913-6.324,9.336-8.988,13.232-13.278,19.411-19.34,28.261-16.979,38.058,2.921,12.141,5.485,17.851,11.427,25.423,1.112,1.427,2.083,2.714,2.938,3.851,3.087,4.1,4.78,6.353,6.942,6.353a4.174,4.174,0,0,0,2.013-.6c2.1-1.178,3.585-1.946,5.166-1.946a6.888,6.888,0,0,1,4.07,1.627l.523.386.149-.627c.336-1.411,1.726-1.7,2.834-1.7a8.415,8.415,0,0,1,5.415,2.017l.253.3.324-.22a3.991,3.991,0,0,1,2.324-.846c2.116,0,3.987,2.257,5.008,6.029.535,2,.415,3.539-.381,4.568-1.125,1.481-3.743,2.066-7.739,1.743l-.087-.008-.091.033a15.771,15.771,0,0,1-5.033,1,4.288,4.288,0,0,1-2.672-.635l-.17-.145-.212.05a55.922,55.922,0,0,1-13.07,1.726c-4.286,0-9.826-.722-11.867-4.17a24.3,24.3,0,0,0-8.622-9.154l-.282-.191c-1.56-1.041-1.826-2.423-2.262-4.722a38.006,38.006,0,0,0-1-4.253c-1.573-5.17-9.369-20.2-14.394-27.73q-.66-.977-1.262-1.863c-4.261-6.257-6.029-8.842.8-16.232.419-.456.871-.938,1.344-1.44,7.925-8.382,22.668-23.983,5.145-60.049l-.253-.51-.419.374c-12,10.718-23.589,16.07-37.017,22.269-4.54,2.1-9.236,4.266-14.274,6.784-19.589,9.8-27.477,15.958-31.236,24.4-7.39,16.581-13.768,34.668-17.2,44.394-.66,1.859-1.216,3.432-1.656,4.66-2.892,8-6.012,14.693-11.871,21.357-5.369,6.1-9.9,7.021-12.116,7.021a7.617,7.617,0,0,1-1.087-.079c-2.8-.394-2.938-3.158-2.938-3.706V637l-.261-.116c-5.017-2.149-4.677-3.917-4.419-5.2.025-.125.05-.237.067-.353l.041-.266-.216-.154c-1.884-1.34-2.668-6.07.353-10.763,1.992-3.1,4.651-4.025,7.216-4.913a14.256,14.256,0,0,0,3.772-1.7c1.423-1.029,1.274-2.556,1.133-3.9-.187-1.863-.32-3.216,2.921-3.581,6.183-.7,6.705-2.693,9.208-12.274l.494-1.867c1.456-5.556,3.037-10.929,4.573-16.137,1.543-5.261,3.013-10.236,4.162-14.784,1.764-6.938,1.175-9.871.61-12.709-.183-.9-.353-1.739-.456-2.71-.419-4.079.029-6.224,5.991-8.253,6.4-2.183,25.568-16.793,38.7-29.5,12.344-11.946,15.216-29.033,9.328-55.427-1.444-6.465-2.668-11.477-3.655-15.5-2.743-11.257-4-16.394-4.83-30.739-1.124-19.336,11.88-37.365,20.482-49.29l.274-.39c4.51-7.942-.44-10.834-5.672-13.892-.714-.411-1.44-.834-2.153-1.274-.859-.531-2.141-1.228-3.788-2.1-31.822-17.05-35.344-30.058-36.846-35.61-4.282-15.834.917-23.826,5.946-31.552,1.125-1.726,2.29-3.506,3.3-5.332,5.95-10.747,7.357-16.776,5.382-23.037-.461-1.452-.465-2.672-.021-3.278a.806.806,0,0,1,.685-.348c1.311,0,3.975,2.539,5.49,9.353,1.2,5.4-2.162,10.494-6.05,16.386-3.153,4.776-6.718,10.191-7.9,16.373-1.7,8.8,6.768,31.548,25.672,42.3,18.162,10.332,32.071,13.087,40.975,8.12,4.481-2.5,8.805-4.569,16.349-4.569,8.266,0,19.523,2.618,34.394,8a56.855,56.855,0,0,0,15.942,3.784c2.8.353,6.282.793,11.386,1.589,5.361.838,11.436,2.054,17.867,3.353,13.315,2.672,28.406,5.7,41.883,6.278,7.033.3,15.934.946,25.357,1.631,14.556,1.046,29.6,2.141,39.946,2.141,2.05,0,3.859-.046,5.39-.133l2.261-.129c13.423-.743,18.444-1.021,27.473-6.357q1.108-.647,2.452-1.419c10.909-6.245,31.216-17.88,45.672-47.784l.1-.228-.137-.212c-7.651-10.614-6.573-16.8-5.07-25.361,1.44-8.216,3.8-9.245,14.7-12.726,5.473-1.954,7.124-4.432,9.4-7.855.282-.423.577-.851.884-1.3,1.992-2.921,4.328-5.61,7.888-5.61,2.241,0,4.784,1.125,7.544,3.349l.17.129.2-.05c.137-.033,13.759-3.436,20.1-4.49l.2-.033.1-.191c3.44-6.618,6.191-9.573,8.913-9.573,2.178,0,4.477,1.95,7.046,5.963,1.71,2.573,6.046,3.091,12.494,3.091,1.925,0,4.058-.046,6.315-.091l.61-.017c9.925-.212,17.29-1.029,27.755-4.734,6.68-2.373,9.751-3.415,12.187-3.415a12.41,12.41,0,0,1,3.6.635c4.013,1.208,12.091,6.469,12.8,6.938a15.057,15.057,0,0,0,6.249,4.224,1.8,1.8,0,0,1,1.373,2.1c-.266,1.892-2.631,3.938-6.49,4.008l-.444.008.083,1.407c.34,5.212.419,6.452-5.025,6.988-5.527.544-9.689,3.029-18.8,8.477-1.3.78-2.73,1.635-4.266,2.544a108.054,108.054,0,0,1-18.863,8.983c-2.328.888-4.747,1.813-7.357,2.979-7.938,3.56-17.743,11.046-21.867,16.7l-.647.909c-2.643,3.651-4.386,6.058-8.709,6.058h0a19.207,19.207,0,0,1-4.593-.656l-.311-.083-.158.274c-11.8,19.461-22.137,42.232-33.519,73.817-9.477,22.95-12.029,29.124-10.938,43.635,1.033,13.859-.465,27.261-3.162,51.581l-.27,2.361c-2.892,26.05-.274,29.618,6.436,35.859,9.207,8.552,26.3,25.029,37.328,39.377,4.249,5.527,8.61,11.73,12.83,17.73,7.822,11.1,15.2,21.593,22.1,28.485a80.492,80.492,0,0,0,9.274,8.166c2.017,1.519,2.494,1.884,3.029,4.05l.041.1c.519.942,2.589,1.734,4.527,1.734a6.777,6.777,0,0,0,2-.291,19.173,19.173,0,0,1,5.211-.892,3.678,3.678,0,0,1,1.456.207l.224.1.2-.137a8.926,8.926,0,0,1,4.431-1.564,3.968,3.968,0,0,1,3.668,2.44c1.83,3.581,2.295,10.183.178,13.647a4.739,4.739,0,0,1-4.73,2.39l-.237-.017-.137.182a5.5,5.5,0,0,1-4.419,2.025,4,4,0,0,1-1.917-.369l-.3-.282-.3.282c-1.515,1.51-4.763,2.448-8.477,2.448-3.95,0-7.535-1.042-9.349-2.722a17.689,17.689,0,0,1-3.639-5.942c-1.17-2.656-2.178-4.95-4.431-4.95-3.469,0-4.373-.365-4.564-3.1-.025-.332-.041-.672-.054-1.021-.1-2.992-.228-6.709-6.963-11.888-4.846-3.361-8.917-4.913-12.378-4.8l-.129.008c-2.149,0-3.062-1.925-3.062-6.427,0-3.847-1.066-6.884-7.685-15.706-4.693-6.253-16.942-15.672-28.784-24.788-4.473-3.448-8.7-6.7-12.394-9.685-12.975-10.49-20.5-15.373-23.689-15.373l-.154,0c-.062,0-.137,0-.212,0-2.22,0-8.751-2-9.618-10.888-.93-9.61-4.626-27.9-9.174-37.253l-.166-.344-.357.125c-.407.137-10.021,3.485-14.481,6.871-2.6,1.971-15.818,12.871-20.764,33.826-2.294,9.722-5.921,22.228-9.419,34.323-3.27,11.262-6.349,21.9-7.714,28.2l-.465,2.133c-2.494,11.39-4,18.265,1.568,32.353,1.892,6.249,6.137,8.332,7.88,8.938a6.661,6.661,0,0,0,2.261.315l.793,0a6.89,6.89,0,0,1,3.195.643l.22.1.2-.133a9.247,9.247,0,0,1,4.9-1.8c2.772,0,4.639,2.265,5.261,6.378a8.55,8.55,0,0,1-1.564,6.975,5.091,5.091,0,0,1-4.432,1.847Z" transform="translate(-446.592 -233.947)"/></g><g transform="translate(461.483 8.232)"><path class="c" d="M471.36,235.175a6.786,6.786,0,0,1-.365,1.145c-.037.087-.062.162-.1.249-.224.365-.448.734-.68,1.12C470.675,236.735,471.057,235.864,471.36,235.175Z" transform="translate(-460.374 -234.826)"/><path class="d" d="M492.822,244.519c.8,4.817-4.012-2.091-2.568,2.245s.8,8.672.319,9.473c-.967-3.207-1.124-2.407-1.124-2.407s2.568,10.274-3.208,18.145c-1.452,2.241,1.282,4.012-1.129,9.95-3.054-6.1-11.718-14.125-20.705-13-4.5.158,1.764-3.058,4.494-3.058,1.125-8.021,1.925-10.589,2.564-13.8s-.477-4.012-4.328-.315-2.411-.963.8-5.3a53.257,53.257,0,0,0,4.735-8.494c.232-.386.456-.755.68-1.12-2.506,6.311.855,6.523,3.95,1.461,3.141-5.141,4.992-3.568,8.274,1s5.423,4.423,3.855,1c-.573-1.145-1.183-2.461-1.755-3.747.087.129.174.257.257.4,1.963,2.934,7.863,3,16.548,2.83-.606.042-1.27.075-2.033.091C495.391,240.025,492.017,239.706,492.822,244.519Z" transform="translate(-462.828 -235.091)"/></g><path class="e" d="M482,272.68A20.74,20.74,0,0,0,479.615,269c3.876,0,8.324-5.693,6.834-21.319a6.191,6.191,0,0,1,1.178,1.925,24.222,24.222,0,0,0-4.075-10.917c-3.851-5.992-7.917-.108-10.054,5.033s-6.427,15.407-3.747,19.909a3.946,3.946,0,0,0-3.324.32S475.839,265.033,482,272.68Z" transform="translate(0.572 -223.473)"/><g transform="translate(406.955 14.129)"><g transform="translate(0)"><path class="f" d="M513.548,270.514c6.2,16.477,13.058,27.83,4.282,43.456s-15.635,22.693-17.768,13.062-4.066-23.34-19.485-36.826c-7.7-10.705-6.639-17.129-5.137-25.693s4.282-9.631,14.987-13.058c6-2.141,7.274-4.925,10.062-8.992s7.274-9.419,16.054-2.353l.058-.012a4.505,4.505,0,0,1-1.149,1.593C511.419,245.576,507.336,254.028,513.548,270.514Z" transform="translate(-473.731 -236.024)"/><path class="b" d="M503.841,332.545h0c3.4,0,8.324-5.813,15.033-17.772,7.751-13.8,3.56-24.315-1.747-37.622-.822-2.054-1.664-4.174-2.49-6.378-6.361-16.892-1.631-24.871,1.751-28.129a5.353,5.353,0,0,0,1.3-1.817l.482-1.183-.988.253c-2.859-2.245-5.539-3.386-7.963-3.386-4.066,0-6.718,3.075-8.776,6.079-.307.452-.6.9-.88,1.315-2.253,3.373-3.734,5.6-8.867,7.432-10.938,3.5-13.859,4.784-15.4,13.56-1.49,8.485-2.656,15.187,5.245,26.17l.1.112c14.108,12.344,16.817,25.008,18.8,34.261.162.755.324,1.5.477,2.216C500.641,330.9,501.957,332.545,503.841,332.545Zm12.415-91.739a4.6,4.6,0,0,1-.759.917c-3.61,3.469-8.68,11.921-2.058,29.5.834,2.224,1.676,4.349,2.5,6.4,5.174,12.988,9.266,23.257,1.822,36.514-7.942,14.154-11.954,17.124-13.917,17.124h0c-1.2,0-2.091-1.307-2.668-3.884-.149-.718-.315-1.448-.477-2.207-2.012-9.411-4.772-22.3-19.153-34.909-7.548-10.51-6.465-16.651-4.979-25.149,1.415-8.087,3.747-9.1,14.544-12.556,5.548-1.979,7.216-4.481,9.518-7.938.282-.419.577-.859.884-1.3,1.958-2.867,4.249-5.519,7.709-5.519C511.314,237.8,513.679,238.811,516.255,240.807Z" transform="translate(-474.219 -236.512)"/></g></g><g transform="translate(470.413 14.067)"><path class="g" d="M467.387,262.749c3.315,3,11.137,7.232,13.427,1.51a33.1,33.1,0,0,0,.813-20.639c-1.855-6.419-5.137-10.793-8.9-2.809-2.822,5.988-7.461,15.212-5.336,21.938C468.234,263.517,466.321,259.351,467.387,262.749Z" transform="translate(-466.846 -236.497)"/><path class="h" d="M472.935,240.81c2.917-6.183,5.548-4.95,7.44-1.1a5.707,5.707,0,0,0-1.622-1.5c-.585-.34-2.332-.967-2.456.208-.162,1.469.577,3.245.921,4.639a33.272,33.272,0,0,1,1.315,6.108c.07,1.44-1.245,14.378,1.054,13.747a5.493,5.493,0,0,0,2.643-2.481,26.163,26.163,0,0,1-1.2,3.83c-2.29,5.722-10.112,1.485-13.427-1.51a4.679,4.679,0,0,1-.332-1.336C466.068,254.839,470.3,246.416,472.935,240.81Z" transform="translate(-467.058 -236.496)"/><path class="i" d="M474.12,238.962c.315-.66.622-1.224.921-1.718,1.432-1,2.266,2.971,2.49,3.975a34.154,34.154,0,0,1,.892,5.378c.365,6.083-.527,12.639-3.606,17.983a19.851,19.851,0,0,1-6.033-3.68,4.676,4.676,0,0,1-.332-1.336C467.252,252.991,471.485,244.567,474.12,238.962Z" transform="translate(-468.242 -234.647)"/><path class="j" d="M474.12,238.962c.315-.66.622-1.224.921-1.718,1.432-1,2.266,2.971,2.49,3.975a34.154,34.154,0,0,1,.892,5.378c.365,6.083-.527,12.639-3.606,17.983a19.851,19.851,0,0,1-6.033-3.68,4.676,4.676,0,0,1-.332-1.336C467.252,252.991,471.485,244.567,474.12,238.962Zm.087,24.253a12.693,12.693,0,0,0,2.643-5.373c.436-1.805,1.486-10.17-.236-9.054-.851.548-1.141.95-1.249,1.614-.353,2.133.158,4.988-.486,7.1a17.606,17.606,0,0,1-1.83,5.3C472.929,263.011,474.041,263.41,474.207,263.215Z" transform="translate(-468.242 -234.647)"/><path class="k" d="M472.029,239.333c2.2,1.776,2.6,5.083,2.469,7.751a13.3,13.3,0,0,1-1.531,5.556c-.415.755-1.137,2.058-2.237,1.705a1.012,1.012,0,0,1-.153-.066c-.178-.154-.361-.307-.531-.461a4.677,4.677,0,0,1-.332-1.336C468.98,248.437,470.291,243.694,472.029,239.333Z" transform="translate(-469.505 -227.566)"/><path class="l" d="M468.8,246.983c.726-3.261,2.892-10.9,4.548-8.676s2.149,5.124-.664,8.187S468.132,249.963,468.8,246.983Z" transform="translate(-466.138 -232.059)"/><path class="g" d="M468.91,245.146c.568-2.585,2.282-8.639,3.6-6.867,1.3,1.768,1.693,4.054-.531,6.477S468.387,247.5,468.91,245.146Z" transform="translate(-465.617 -231.894)"/></g><g transform="translate(2.283 9.896)"><path class="b" d="M494.409,238.875a21.05,21.05,0,0,0-2.228-.141c-.718-.021-1.581.008-2.573.066a25.388,25.388,0,0,0-3.315.432,23.707,23.707,0,0,0-3.834,1.062,17.758,17.758,0,0,0-3.967,2.025c-1.282.917-2.432,1.954-3.68,2.967-1.232,1.012-2.494,2.042-3.747,3.071-1.237,1.037-2.51,2.041-3.764,3.025l-1.888,1.419c-.627.465-1.274.884-1.892,1.319s-1.257.813-1.871,1.2a19.9,19.9,0,0,1-1.834,1.075c-.307.162-.606.311-.9.469l-.448.237c-.1.054-.3.112-.436.17-.618.224-1.2.477-1.776.66-.589.125-1.133.245-1.664.361-.544.071-1.058.1-1.544.145a12.47,12.47,0,0,1-2.531-.154,6.8,6.8,0,0,1-.921-.2,4.876,4.876,0,0,1-.676-.187,5.523,5.523,0,0,1-.548-.2,5.353,5.353,0,0,0,.535.245,6.128,6.128,0,0,0,.66.232,4.977,4.977,0,0,0,.917.257,12.745,12.745,0,0,0,2.564.32c.5-.025,1.037-.012,1.6-.058.556-.1,1.145-.207,1.763-.32.593-.166,1.183-.39,1.8-.593.166-.058.295-.091.494-.17l.456-.22c.307-.145.622-.3.942-.452a19.936,19.936,0,0,0,1.913-1.025c.639-.361,1.29-.747,1.921-1.183s1.286-.851,1.921-1.32,1.278-.934,1.925-1.4c1.274-.979,2.573-1.971,3.826-3.008s2.49-2.087,3.714-3.116,2.4-2.1,3.593-2.958a19.247,19.247,0,0,1,3.772-2.058,23.344,23.344,0,0,1,3.705-1.183c1.174-.278,2.274-.444,3.245-.585.975-.116,1.834-.183,2.544-.212C493.6,238.834,494.409,238.875,494.409,238.875Z" transform="translate(66.444 -225.303)"/><path class="b" d="M463.831,242.751a3.722,3.722,0,0,0-1.125.2,3.348,3.348,0,0,0-.506.2,4.421,4.421,0,0,0-.568.27,6.826,6.826,0,0,0-1.091.772c-.162.158-.336.315-.494.469a4,4,0,0,0-.423.51c-.125.17-.245.34-.357.506a2.889,2.889,0,0,0-.253.49,7.693,7.693,0,0,0-.386,1.066,8.535,8.535,0,0,0,.792-.788,10.618,10.618,0,0,1,.78-.768,8.266,8.266,0,0,1,.9-.838c.295-.3.66-.527.95-.788.154-.129.316-.232.461-.344s.278-.224.423-.307C463.466,243.008,463.831,242.751,463.831,242.751Z" transform="translate(54.45 -212.631)"/><path class="b" d="M482.843,253.111a5,5,0,0,0-.274-.772c-.112-.241-.253-.523-.44-.842a10.85,10.85,0,0,0-1.6-2.145,14.318,14.318,0,0,0-1.149-1.154c-.432-.349-.855-.759-1.349-1.091s-.967-.689-1.486-.992-1.037-.614-1.564-.871-1.046-.519-1.564-.718a23.3,23.3,0,0,0-2.884-1.021c-.851-.274-1.593-.369-2.1-.506-.506-.108-.793-.158-.793-.158s.266.129.755.32c.469.2,1.162.448,1.967.809.4.178.842.361,1.307.56s.921.452,1.423.681.992.51,1.494.768c.519.261,1.012.56,1.5.867.514.278.979.618,1.46.934s.9.676,1.349,1c.4.357.83.664,1.182,1.021.365.332.7.664,1,.983s.56.622.788.9.406.531.552.747A7.293,7.293,0,0,1,482.843,253.111Z" transform="translate(-1.989 -212.347)"/><path class="b" d="M470.6,246.791a10.134,10.134,0,0,0-.2,1.228,19.447,19.447,0,0,0-.1,3.3,20.853,20.853,0,0,0,.776,4.631,17.463,17.463,0,0,0,.95,2.49,16.843,16.843,0,0,0,1.378,2.394,15.98,15.98,0,0,0,3.822,3.826,14.744,14.744,0,0,0,2.141,1.282,10.661,10.661,0,0,0,1.041.485c.344.137.664.3.983.4a18.088,18.088,0,0,0,1.793.552c.535.137,1,.261,1.394.324l1.228.208s-.432-.133-1.187-.369c-.382-.1-.826-.282-1.344-.469-.514-.17-1.079-.444-1.7-.7-.311-.12-.61-.29-.938-.452a9.425,9.425,0,0,1-.975-.535,18.251,18.251,0,0,1-1.983-1.336,16.545,16.545,0,0,1-3.573-3.714,20.324,20.324,0,0,1-3.324-9.058,26.288,26.288,0,0,1-.22-3.253C470.56,247.243,470.6,246.791,470.6,246.791Z" transform="translate(-15.802 -199.907)"/><path class="b" d="M474.118,237.513s.1.129.274.353.427.539.726.917c.149.187.319.386.5.585s.361.423.548.66c.365.469.788.946,1.2,1.423.207.236.423.473.635.705.187.245.394.477.581.705.378.456.755.876,1.087,1.22a15.911,15.911,0,0,0,1.162,1.133,12.9,12.9,0,0,0-.772-1.419c-.245-.423-.548-.9-.884-1.4-.178-.249-.34-.51-.535-.768-.212-.236-.415-.485-.631-.73-.436-.481-.867-.958-1.3-1.378a10.961,10.961,0,0,0-1.257-1.1A7.918,7.918,0,0,0,474.118,237.513Z" transform="translate(-26.82 -229.127)"/><path class="b" d="M491.37,238.654s-.145.29-.386.8-.618,1.228-1.037,2.083c-.44.855-.946,1.846-1.523,2.9s-1.183,2.162-1.871,3.232c-.328.544-.685,1.062-1.033,1.581s-.71,1.008-1.058,1.494c-.361.469-.73.909-1.071,1.336-.365.4-.714.78-1.037,1.129s-.664.614-.942.884a5.869,5.869,0,0,1-.784.627c-.452.328-.705.531-.705.531s.282-.133.8-.39a6.663,6.663,0,0,0,.888-.515c.32-.224.705-.456,1.079-.772s.776-.668,1.179-1.054c.377-.415.8-.834,1.187-1.307.373-.486.8-.946,1.154-1.481s.738-1.054,1.066-1.614a31.681,31.681,0,0,0,1.826-3.34c.27-.539.494-1.083.722-1.585.212-.51.4-1,.577-1.452.336-.909.573-1.681.739-2.22S491.37,238.654,491.37,238.654Z" transform="translate(-61.446 -225.534)"/><path class="b" d="M475.868,236.371s-.349.51-.83,1.278c-.224.382-.506.834-.8,1.315-.311.461-.581,1-.917,1.481-.3.51-.606,1.021-.917,1.49s-.543.934-.8,1.307a12.46,12.46,0,0,0-.768,1.307,13.684,13.684,0,0,0,1.158-1.008,9.76,9.76,0,0,0,1.033-1.174c.174-.228.378-.452.539-.705s.324-.51.49-.768a15.5,15.5,0,0,0,.851-1.581c.124-.253.224-.519.328-.755.1-.253.187-.477.253-.7A8.752,8.752,0,0,0,475.868,236.371Z" transform="translate(-8.239 -232.724)"/><path class="b" d="M465.989,235.492s.141.527.423,1.266c.133.373.311.8.519,1.245.187.452.407.929.631,1.4.124.237.237.465.357.7s.249.444.348.672c.207.44.432.842.631,1.183a11.218,11.218,0,0,0,.734,1.124,11.4,11.4,0,0,0-.278-1.311c-.108-.386-.236-.834-.4-1.3s-.415-.95-.622-1.436c-.245-.469-.477-.946-.739-1.378s-.519-.809-.759-1.129A7.03,7.03,0,0,0,465.989,235.492Z" transform="translate(18.105 -235.492)"/><path class="b" d="M521.474,261.4s-.564.307-1.506.921-2.282,1.5-3.8,2.7c-.763.585-1.573,1.257-2.415,1.971s-1.71,1.5-2.593,2.315c-.842.867-1.76,1.718-2.618,2.66s-1.743,1.871-2.552,2.867l-1.22,1.5c-.378.519-.759,1.037-1.141,1.548-.768,1-1.448,2.058-2.1,3.075-.328.515-.685.983-.954,1.5s-.556,1.008-.822,1.494-.527.963-.78,1.415c-.224.469-.436.929-.639,1.361-.411.876-.78,1.681-1.083,2.4-.269.734-.5,1.378-.693,1.909-.373,1.058-.581,1.664-.581,1.664s.257-.581.73-1.6c.236-.506.514-1.129.83-1.838.365-.693.78-1.469,1.22-2.315.232-.419.452-.871.7-1.315.274-.444.552-.9.838-1.365.556-.942,1.166-1.929,1.855-2.9.656-1,1.34-2.025,2.12-3,.374-.5.763-1,1.145-1.51l1.224-1.465c.784-1,1.643-1.946,2.49-2.876.826-.95,1.718-1.8,2.544-2.668.875-.818,1.672-1.652,2.485-2.39s1.573-1.448,2.311-2.058c1.452-1.249,2.689-2.261,3.589-2.934C520.952,261.771,521.474,261.4,521.474,261.4Z" transform="translate(-158.202 -153.904)"/><path class="b" d="M517.28,277.31s-.39.772-1.1,2.091c-.353.66-.793,1.456-1.316,2.361s-1.141,1.913-1.8,3.013-1.427,2.261-2.261,3.469-1.759,2.452-2.747,3.7c-.477.647-1.012,1.253-1.548,1.876-.527.639-1.112,1.224-1.689,1.826a28.906,28.906,0,0,1-3.809,3.3c-.664.514-1.415.9-2.116,1.361-.743.436-1.469.88-2.2,1.311a39.871,39.871,0,0,0-4.141,2.822,21.339,21.339,0,0,0-1.838,1.527c-.568.527-1.162,1.017-1.685,1.539-1.008,1.1-2.037,2.054-2.826,3.087-.4.51-.8.988-1.166,1.44-.34.494-.656.95-.954,1.382a25.9,25.9,0,0,0-1.428,2.311,13.507,13.507,0,0,0-.792,1.56c-.17.365-.27.56-.27.56l.307-.543c.212-.34.469-.875.892-1.494a26.105,26.105,0,0,1,1.556-2.207c.311-.411.656-.846,1.012-1.307.386-.44.788-.9,1.208-1.382.813-1,1.867-1.909,2.888-2.954.535-.5,1.137-.958,1.718-1.46.606-.473,1.166-1.029,1.83-1.465a37.627,37.627,0,0,1,4.091-2.722c.722-.423,1.452-.851,2.182-1.274.739-.473,1.531-.867,2.22-1.394a29.455,29.455,0,0,0,3.888-3.44c.589-.623,1.179-1.228,1.7-1.88.535-.647,1.075-1.27,1.56-1.925a45.955,45.955,0,0,0,2.668-3.817c.809-1.241,1.523-2.448,2.17-3.569s1.2-2.162,1.664-3.1.871-1.755,1.183-2.444C516.956,278.111,517.28,277.31,517.28,277.31Z" transform="translate(-94.264 -103.792)"/><path class="b" d="M530.036,279.1s-.992.9-2.635,2.589c-.826.847-1.8,1.884-2.909,3.091-.543.618-1.124,1.266-1.739,1.954-.589.705-1.207,1.452-1.859,2.224-1.266,1.573-2.614,3.295-3.954,5.191-.664.95-1.365,1.913-2,2.95-.328.514-.656,1.033-.991,1.556-.311.543-.618,1.1-.934,1.643-.647,1.087-1.174,2.27-1.768,3.436-.295.577-.51,1.207-.772,1.809a18.68,18.68,0,0,0-.71,1.863c-.207.643-.407,1.282-.61,1.925s-.349,1.295-.527,1.938q-.517,1.942-1.029,3.888c-.357,1.295-.71,2.585-1.071,3.871-.34,1.295-.8,2.531-1.191,3.793-.2.627-.4,1.253-.606,1.871s-.477,1.207-.706,1.809c-.485,1.195-.954,2.378-1.431,3.539-.556,1.12-1.1,2.228-1.639,3.307-.27.535-.531,1.079-.788,1.606-.282.519-.6,1.008-.888,1.506q-.89,1.475-1.726,2.867c-.295.456-.544.925-.846,1.353s-.606.838-.9,1.249c-1.187,1.622-2.262,3.12-3.228,4.444-1.045,1.257-1.963,2.34-2.714,3.241-1.5,1.813-2.365,2.842-2.365,2.842s.9-.988,2.485-2.726c.8-.875,1.751-1.938,2.855-3.153,1.012-1.286,2.129-2.764,3.353-4.373.311-.4.618-.813.942-1.228.3-.427.569-.892.867-1.348.585-.921,1.191-1.871,1.809-2.851.307-.5.639-.979.93-1.5s.552-1.066.83-1.606c.556-1.083,1.125-2.2,1.7-3.32.481-1.178.975-2.361,1.469-3.568.245-.606.51-1.208.73-1.826.2-.631.411-1.253.631-1.88.4-1.27.876-2.523,1.22-3.817q.554-1.942,1.1-3.884c.344-1.3.681-2.606,1.008-3.9.174-.639.32-1.3.506-1.934s.4-1.253.585-1.876a18.025,18.025,0,0,1,.681-1.834c.249-.593.461-1.207.743-1.78.573-1.154,1.087-2.32,1.722-3.4.307-.548.61-1.083.909-1.622.32-.523.643-1.046.963-1.56.606-1.041,1.278-2.013,1.909-2.971,1.3-1.909,2.593-3.651,3.826-5.249,1.245-1.573,2.407-3,3.461-4.261s2-2.32,2.788-3.2C529.094,280.062,530.036,279.1,530.036,279.1Z" transform="translate(-131.576 -98.157)"/><path class="b" d="M521.706,282.058s-.373.934-1.013,2.568c-.311.826-.722,1.809-1.125,2.967s-.838,2.473-1.324,3.9c-.942,2.863-2.05,6.207-3.237,9.788a34.337,34.337,0,0,1-2.224,5.295c-.477.851-.917,1.734-1.477,2.552-.27.419-.527.846-.813,1.249l-.88,1.2c-.56.83-1.245,1.548-1.859,2.324-.651.751-1.361,1.44-2.033,2.149-.722.664-1.436,1.324-2.153,1.958-.764.6-1.49,1.2-2.232,1.759-.772.531-1.531,1.058-2.27,1.573-.768.465-1.523.925-2.249,1.382s-1.494.8-2.2,1.195c-.718.386-1.407.751-2.1,1.041-.685.307-1.34.606-1.958.892s-1.241.5-1.8.734c-1.137.452-2.12.851-2.967,1.1-1.664.568-2.618.888-2.618.888l2.672-.73c.855-.216,1.863-.568,3.029-.963.569-.212,1.207-.394,1.842-.651s1.307-.543,2.008-.838c.7-.274,1.415-.614,2.145-.983s1.506-.7,2.257-1.145,1.531-.884,2.324-1.34c.755-.5,1.531-1.029,2.324-1.556.759-.564,1.515-1.17,2.295-1.768.734-.639,1.469-1.307,2.216-1.975.693-.722,1.423-1.419,2.087-2.178.652-.78,1.349-1.523,1.929-2.357l.892-1.237c.286-.419.544-.859.817-1.286.56-.842,1.008-1.751,1.494-2.627a36.706,36.706,0,0,0,2.212-5.427c.589-1.826,1.087-3.552,1.589-5.2s.971-3.22,1.4-4.664.809-2.768,1.162-3.954c.344-1.166.718-2.178.979-3.012C521.387,283.016,521.706,282.058,521.706,282.058Z" transform="translate(-105.263 -88.838)"/><path class="b" d="M515.813,278.2s-.1.29-.261.838-.436,1.344-.705,2.378-.631,2.286-1.021,3.722-.851,3.058-1.249,4.846c-.419,1.788-.872,3.722-1.349,5.768-.237,1.029-.477,2.079-.73,3.153-.2,1.083-.411,2.2-.627,3.324-.415,2.249-.851,4.581-1.3,6.946-.208,1.187-.444,2.373-.647,3.581-.187,1.2-.382,2.411-.564,3.618-.373,2.411-.684,4.842-.983,7.232-.348,2.39-.527,4.755-.759,7.041-.2,2.282-.286,4.506-.365,6.61.008,1.058.008,2.079.017,3.066V341.8c.033.477.062.938.1,1.4.058.913.116,1.793.174,2.631.037.838.216,1.614.307,2.361.232,1.473.369,2.763.647,3.809.477,2.083.751,3.27.751,3.27s-.212-1.2-.589-3.3c-.237-1.041-.324-2.344-.5-3.817-.2-1.473-.232-3.153-.311-4.971-.021-.461-.041-.921-.058-1.4.008-.469.017-.959.029-1.452.017-.979.042-2,.066-3.046s.141-2.116.212-3.22c.1-1.091.116-2.216.257-3.345.261-2.278.461-4.626.817-7.008.311-2.378.643-4.792,1.037-7.2.178-1.208.353-2.419.531-3.627.2-1.191.423-2.382.622-3.564.419-2.369.838-4.693,1.241-6.946.2-1.129.39-2.237.581-3.324.224-1.079.448-2.133.656-3.162.427-2.054.838-4,1.207-5.784s.747-3.427,1.083-4.88.639-2.714.871-3.751C515.5,279.388,515.813,278.2,515.813,278.2Z" transform="translate(-190.997 -100.973)"/><path class="b" d="M509.045,282.47s-.419,1.709-.8,4.319c-.112.647-.187,1.361-.282,2.108s-.2,1.548-.27,2.361c-.112,1.647-.278,3.4-.311,5.158-.017.88-.042,1.759-.054,2.623-.037.871.012,1.722.046,2.548s.071,1.614.1,2.378.083,1.461.166,2.124c.129,1.311.295,2.4.378,3.158.108.763.166,1.191.166,1.191v-1.207c-.021-.759-.013-1.859-.067-3.166-.083-1.315.029-2.846.008-4.481s.062-3.39.1-5.137c0-.875.058-1.747.1-2.606s.083-1.7.116-2.527c.112-1.631.166-3.162.278-4.469C508.92,284.217,509.045,282.47,509.045,282.47Z" transform="translate(-192.797 -87.541)"/><path class="b" d="M488.812,295.609s.066.357.187.979c.149.627.237,1.531.448,2.593.1.531.2,1.108.319,1.714s.166,1.27.278,1.934c.187,1.336.423,2.764.656,4.191.125.709.261,1.419.332,2.124.091.7.187,1.4.278,2.071.178,1.34.394,2.589.56,3.66s.349,1.963.452,2.589c.129.627.2.983.2.983s-.008-.361-.033-1c-.041-.635-.054-1.543-.145-2.626s-.166-2.353-.29-3.71c-.066-.676-.137-1.373-.212-2.087-.058-.714-.178-1.427-.3-2.141-.253-1.432-.5-2.867-.764-4.195-.129-.672-.249-1.32-.419-1.921s-.311-1.174-.448-1.7c-.29-1.058-.543-1.925-.755-2.523S488.812,295.609,488.812,295.609Z" transform="translate(-99.489 -46.161)"/><path class="b" d="M472.4,342.819a9.048,9.048,0,0,0,.855-1.133,16.123,16.123,0,0,0,.826-1.411,12.409,12.409,0,0,0,.8-1.967,14.7,14.7,0,0,0,.568-2.477,13.058,13.058,0,0,0,.075-2.834,13.224,13.224,0,0,0-.212-1.494,10.35,10.35,0,0,0-.423-1.486,5.777,5.777,0,0,0-1.88-2.676,6,6,0,0,0-3.054-1.1,12.936,12.936,0,0,0-3.046.116c-.975.12-1.892.311-2.755.481s-1.685.34-2.44.486c-1.51.307-2.759.61-3.639.8-.448.1-.78.224-1.008.286l-.361.108s.51-.1,1.394-.228,2.178-.257,3.7-.481c.768-.108,1.585-.22,2.469-.34s1.788-.261,2.73-.357a13.251,13.251,0,0,1,2.867-.042,5.089,5.089,0,0,1,2.627.963,4.966,4.966,0,0,1,1.622,2.245,13.222,13.222,0,0,1,.419,1.394,12.278,12.278,0,0,1,.236,1.407,14.762,14.762,0,0,1,.058,2.7,13.867,13.867,0,0,1-.4,2.407,18.239,18.239,0,0,1-.643,1.967c-.232.577-.461,1.066-.668,1.461A12.2,12.2,0,0,1,472.4,342.819Z" transform="translate(50.692 50.147)"/><path class="b" d="M458.965,343.136a7.151,7.151,0,0,0,.585-.672c.17-.224.365-.5.569-.834a10.287,10.287,0,0,0,.631-1.166,12.776,12.776,0,0,0,.552-1.486,11.518,11.518,0,0,0,.34-1.738,10.367,10.367,0,0,0,.037-1.9c-.037-.328-.058-.651-.112-.979l-.195-.963c-.216-.614-.427-1.22-.647-1.822-.241-.593-.6-1.158-.884-1.7-.315-.535-.709-.979-1.029-1.436-.349-.432-.751-.788-1.083-1.141-.353-.332-.718-.6-1.021-.842-.319-.232-.606-.415-.842-.577-.485-.282-.78-.415-.78-.415l.187.141c.116.1.286.232.5.411s.448.419.73.68c.257.291.564.593.871.942.286.378.618.751.925,1.191.282.46.618.917.888,1.423.245.523.523,1.025.759,1.593.2.577.39,1.174.589,1.763l.2.892c.058.307.091.61.125.909a12.624,12.624,0,0,1,.033,1.768,14.432,14.432,0,0,1-.212,1.651,14.961,14.961,0,0,1-.386,1.452,12.946,12.946,0,0,1-.888,2.1C459.143,342.867,458.965,343.136,458.965,343.136Z" transform="translate(71.274 47.851)"/><path class="b" d="M501.427,328.74a.927.927,0,0,0,.179.286,2.742,2.742,0,0,0,.792.573c.195.079.411.17.647.27l.793.224a14.374,14.374,0,0,0,1.938.324c.714.05,1.486.1,2.307.145a19.824,19.824,0,0,1,2.486.307,14.728,14.728,0,0,1,2.543.759,11.568,11.568,0,0,1,2.361,1.34,12.442,12.442,0,0,1,3.411,4.112c.207.378.382.788.556,1.141.158.4.353.788.457,1.154a6.644,6.644,0,0,1,.4,2.158,4.117,4.117,0,0,1-1.145,3.008,6.333,6.333,0,0,1-.722.622l-.286.191s.108-.05.307-.158a4.078,4.078,0,0,0,1.788-1.718,4.465,4.465,0,0,0,.539-1.934,7.3,7.3,0,0,0-.286-2.369c-.1-.419-.257-.793-.394-1.208-.17-.419-.344-.817-.544-1.232a13.637,13.637,0,0,0-1.486-2.39,12.356,12.356,0,0,0-2.079-2.058,12.791,12.791,0,0,0-2.564-1.427,14.487,14.487,0,0,0-2.722-.734,15.045,15.045,0,0,0-2.61-.183c-.813,0-1.581,0-2.286,0-.357,0-.689-.058-1-.071a6.811,6.811,0,0,1-.909-.087q-.417-.075-.784-.137c-.241-.075-.448-.141-.643-.2a2.789,2.789,0,0,1-.826-.452A.807.807,0,0,1,501.427,328.74Z" transform="translate(-180.096 58.18)"/><path class="b" d="M516.347,343.878a12.131,12.131,0,0,0,.514-1.938,14.519,14.519,0,0,0,.266-2c.033-.34.025-.676.025-1.013a9.156,9.156,0,0,0-.037-1.012c-.029-.34-.046-.68-.108-1.012s-.091-.68-.187-1l-.278-1c-.12-.324-.257-.635-.39-.958a5.8,5.8,0,0,0-.469-.917,5.482,5.482,0,0,0-.568-.867l-.639-.817-.755-.722a4.643,4.643,0,0,0-.817-.639l-.851-.585-.029-.021-.037-.008-1.473-.415a3.778,3.778,0,0,0-.739-.158l-.751-.1-.751-.1a5.672,5.672,0,0,0-.751-.033l-1.5-.025-1.5.091c-.49.021-.988.1-1.477.162s-.979.154-1.465.245a14.176,14.176,0,0,0-1.452.324c.494-.058.987-.1,1.473-.133s.979-.071,1.469-.079c.494.008.987-.042,1.477-.033l1.465.017,1.461.116c.241.029.485.029.722.079l.71.12.722.12a3.381,3.381,0,0,1,.693.17l1.374.407-.062-.033.776.56a3.82,3.82,0,0,1,.747.593l.689.647.6.747a4.716,4.716,0,0,1,.531.793,7.683,7.683,0,0,1,.465.834c.12.29.266.577.386.871l.294.921c.1.307.154.626.232.938a6.491,6.491,0,0,1,.162.963,6.9,6.9,0,0,1,.112.967c.021.332.046.656.042.983A20.111,20.111,0,0,1,516.347,343.878Z" transform="translate(-171.087 57.557)"/><path class="b" d="M557.911,305.527s-.332-.531-.946-1.432-1.494-2.187-2.6-3.689-2.4-3.266-3.859-5.091-3.046-3.751-4.668-5.639c-1.66-1.871-3.353-3.705-5-5.365a54.617,54.617,0,0,0-4.776-4.266,20.429,20.429,0,0,0-3.813-2.452,7.632,7.632,0,0,0-1.2-.452c-.278-.079-.432-.116-.432-.116l.415.162a8.9,8.9,0,0,1,1.133.552,16.487,16.487,0,0,1,1.622,1.079c.6.452,1.257.992,1.959,1.593s1.444,1.3,2.2,2.037c.751.759,1.539,1.552,2.357,2.382,1.614,1.676,3.266,3.523,4.884,5.4,1.647,1.863,3.261,3.755,4.739,5.552s2.867,3.477,4.058,4.913C556.339,303.6,557.911,305.527,557.911,305.527Z" transform="translate(-338.339 -104.689)"/><path class="b" d="M587.775,278.072a8.729,8.729,0,0,0-.946.73c-.149.12-.319.262-.506.411-.166.162-.357.349-.56.544-.4.407-.892.826-1.365,1.378s-1.008,1.154-1.585,1.817-1.1,1.456-1.726,2.257c-1.261,1.589-2.407,3.568-3.743,5.676-.672,1.058-1.224,2.237-1.871,3.411-.618,1.2-1.315,2.4-1.913,3.7-1.149,2.614-2.469,5.336-3.631,8.224-2.344,5.763-4.83,11.9-7.324,18.054-1.253,3.075-2.5,6.145-3.739,9.162s-2.5,5.975-3.73,8.826c-1.249,2.846-2.436,5.606-3.622,8.195-.581,1.3-1.166,2.556-1.743,3.764s-1.116,2.386-1.689,3.485-1.1,2.174-1.614,3.178c-.535,1-1.046,1.946-1.527,2.834s-.983,1.689-1.415,2.44c-.233.374-.448.734-.647,1.079-.228.332-.44.639-.651.942q-.61.9-1.1,1.6c-.352.436-.664.8-.9,1.1l-.763.917s.278-.311.8-.884c.257-.295.581-.647.963-1.07.324-.452.714-.975,1.141-1.564.212-.29.444-.606.68-.934.212-.332.436-.689.677-1.058.461-.743,1-1.527,1.506-2.4s1.042-1.813,1.6-2.8,1.1-2.058,1.68-3.149,1.149-2.27,1.755-3.473,1.212-2.448,1.813-3.739c1.236-2.573,2.485-5.315,3.743-8.158s2.518-5.809,3.784-8.813c1.249-3.021,2.523-6.087,3.8-9.149,2.448-6.166,4.913-12.328,7.216-18.108.552-1.456,1.2-2.834,1.776-4.207s1.166-2.722,1.726-4.025,1.253-2.506,1.838-3.705c.627-1.183,1.15-2.374,1.8-3.427,1.3-2.112,2.382-4.124,3.6-5.734.581-.813,1.087-1.622,1.643-2.286s1.054-1.3,1.523-1.859c.448-.556.934-1,1.315-1.415.191-.2.374-.39.535-.564l.485-.427A9.132,9.132,0,0,1,587.775,278.072Z" transform="translate(-404.912 -101.392)"/><path class="b" d="M593.578,304.78s-.2-.224-.544-.656c-.365-.423-.888-1.046-1.593-1.809s-1.564-1.68-2.589-2.705-2.211-2.145-3.539-3.336c-.672-.577-1.378-1.183-2.108-1.8-.747-.61-1.531-1.224-2.328-1.859-.826-.606-1.676-1.22-2.539-1.859-.884-.61-1.822-1.187-2.751-1.793-.955-.581-1.959-1.12-2.958-1.693-1.017-.535-2.083-1.017-3.137-1.535-1.079-.469-2.2-.867-3.311-1.3-1.137-.357-2.294-.664-3.444-1-1.191-.2-2.361-.407-3.568-.577-1.178-.075-2.34-.2-3.514-.22a46.559,46.559,0,0,0-6.9.324c-.556.075-1.108.154-1.651.22-.535.112-1.074.22-1.6.324-1.058.187-2.075.5-3.058.772s-1.925.643-2.834.95c-.88.39-1.759.709-2.556,1.12s-1.573.763-2.266,1.207a19.759,19.759,0,0,0-1.934,1.261c-.618.394-1.116.863-1.614,1.236-.473.423-.884.822-1.261,1.187-.336.394-.664.726-.9,1.05-.224.34-.432.618-.573.859-.245.494-.382.759-.382.759s.153-.253.419-.743c.153-.228.373-.485.618-.809.249-.307.589-.622.942-1,.386-.349.809-.73,1.286-1.12.519-.357,1.021-.8,1.644-1.166a22.428,22.428,0,0,1,1.962-1.162c.7-.4,1.465-.759,2.261-1.133s1.672-.672,2.544-1.033c.917-.282,1.834-.627,2.822-.871s1.979-.523,3.025-.681c.518-.1,1.046-.195,1.577-.29q.8-.1,1.631-.2a45.4,45.4,0,0,1,6.759-.27c1.15.037,2.328.17,3.51.249,1.12.17,2.282.386,3.432.585,1.129.315,2.257.606,3.373.946,1.087.423,2.187.805,3.249,1.249,1.045.5,2.091.967,3.1,1.485.987.556,1.979,1.075,2.929,1.643.93.593,1.855,1.17,2.747,1.738.871.606,1.726,1.2,2.56,1.78.8.614,1.589,1.207,2.357,1.78.734.6,1.452,1.2,2.137,1.747,2.71,2.29,4.867,4.315,6.315,5.793C592.785,303.9,593.578,304.78,593.578,304.78Z" transform="translate(-363.615 -87.038)"/><path class="b" d="M539.16,328.483l.29.564c.195.349.444.859.751,1.465.133.315.311.639.465.992s.328.726.481,1.116.307.8.436,1.207l.1.311.046.133.046.17.145.668a8.137,8.137,0,0,1,.158,1.257,5.3,5.3,0,0,1-.1,1.216,4.619,4.619,0,0,1-.352,1.083c-.154.324-.378.6-.544.884-.228.232-.44.456-.614.664a4.3,4.3,0,0,1-.548.452c-.311.249-.486.407-.486.407s.212-.087.577-.266a3.961,3.961,0,0,0,.648-.34c.236-.166.5-.357.788-.585a7.752,7.752,0,0,0,.738-.909,4.168,4.168,0,0,0,.527-1.216,5.154,5.154,0,0,0,.2-1.4,9.616,9.616,0,0,0-.149-1.44l-.174-.664-.042-.17a1.829,1.829,0,0,0-.054-.183l-.12-.332a10.366,10.366,0,0,0-.531-1.249,12.026,12.026,0,0,0-.6-1.108c-.191-.349-.423-.652-.606-.942A14.341,14.341,0,0,0,539.16,328.483Z" transform="translate(-358.779 57.371)"/><path class="b" d="M537.772,328.464s.1.2.257.581c.145.378.39.88.6,1.535.12.32.241.664.373,1.029.153.357.236.764.369,1.166s.241.83.382,1.249l.2.622.145.672a6.977,6.977,0,0,1,.154,1.249,4.761,4.761,0,0,1-.157,1.187,3.813,3.813,0,0,1-1.145,1.793,8.813,8.813,0,0,1-1.307.979c-.336.212-.527.34-.527.34s.22-.058.606-.191a6.645,6.645,0,0,0,1.527-.743,3.831,3.831,0,0,0,1.56-1.946,4.419,4.419,0,0,0,.27-1.411,7.6,7.6,0,0,0-.141-1.465l-.174-.664c-.066-.224-.145-.448-.228-.664-.149-.436-.315-.855-.452-1.265a9.132,9.132,0,0,0-.494-1.149c-.179-.357-.357-.689-.523-1a12.745,12.745,0,0,0-.9-1.415,3.718,3.718,0,0,0-.291-.361A1.109,1.109,0,0,1,537.772,328.464Z" transform="translate(-348.499 57.311)"/><path class="b" d="M555.367,337.655s-.245,0-.651-.042a12.393,12.393,0,0,1-1.672-.27c-.336-.075-.7-.178-1.075-.3a11.347,11.347,0,0,1-1.149-.44,9.148,9.148,0,0,1-1.166-.6,11.143,11.143,0,0,1-1.129-.755,9.787,9.787,0,0,1-1.013-.884c-.324-.311-.643-.639-.942-.958-.614-.643-1.2-1.224-1.718-1.718s-.963-.884-1.262-1.17-.5-.427-.5-.427.137.2.373.544.581.822,1.029,1.378c.427.569.938,1.216,1.515,1.9.282.336.568.689.921,1.037a11.527,11.527,0,0,0,1.079.983,12.66,12.66,0,0,0,1.236.793,8,8,0,0,0,1.3.581,8.716,8.716,0,0,0,2.436.527,9.215,9.215,0,0,0,1.739-.046A4.532,4.532,0,0,0,555.367,337.655Z" transform="translate(-387.546 62.435)"/><path class="b" d="M550.483,317.726a5.943,5.943,0,0,0-.319.527c-.187.349-.444.842-.7,1.461a10.106,10.106,0,0,0-.382,1.013,10.737,10.737,0,0,0-.382,1.153c-.1.411-.22.826-.324,1.253s-.178.871-.249,1.311c-.054.448-.12.892-.187,1.328s-.041.876-.066,1.295-.025.822-.033,1.212a6.949,6.949,0,0,0,.058,1.083c.062.664.162,1.22.2,1.606.058.382.1.606.1.606s.033-.224.07-.614.091-.938.125-1.6a9.835,9.835,0,0,1,.087-1.058c.05-.373.1-.772.137-1.174.054-.407.074-.83.149-1.257s.137-.851.2-1.286a12.03,12.03,0,0,1,.224-1.282c.083-.423.154-.838.237-1.241s.178-.788.257-1.149.145-.726.245-1.046c.162-.635.265-1.187.39-1.544C550.421,317.946,550.483,317.726,550.483,317.726Z" transform="translate(-402.355 23.493)"/><path class="b" d="M599.961,328.177l-.867.568c-.544.373-1.34.875-2.261,1.523s-2.033,1.349-3.182,2.158c-.564.411-1.2.743-1.809,1.154l-.925.589-.241.149-.228.108a3.245,3.245,0,0,1-.5.2,10.858,10.858,0,0,1-2.07.5c-.718.091-1.427.187-2.121.22a30.241,30.241,0,0,1-3.8-.017c-.552-.054-1.066-.1-1.511-.162a9.216,9.216,0,0,1-1.149-.228,4.793,4.793,0,0,1-.726-.228l-.253-.1s.079.05.236.137a3.414,3.414,0,0,0,.685.344,9.747,9.747,0,0,0,1.145.378,11.094,11.094,0,0,0,1.515.324c.564.1,1.183.17,1.83.228s1.344.091,2.058.071a18.542,18.542,0,0,0,2.212-.154,10.923,10.923,0,0,0,2.278-.527,3.775,3.775,0,0,0,.535-.232l.278-.133.237-.154c.319-.207.635-.419.954-.622.623-.419,1.245-.809,1.805-1.241,1.133-.859,2.166-1.668,3.037-2.386C598.862,329.206,599.961,328.177,599.961,328.177Z" transform="translate(-578.318 56.408)"/><path class="b" d="M596.269,329.065l-.685.685c-.432.436-1.054,1.062-1.8,1.8s-1.618,1.606-2.548,2.523c-.469.452-.975.909-1.469,1.378-.51.456-1.029.917-1.564,1.353a17.387,17.387,0,0,1-1.643,1.2c-.286.133-.569.34-.842.432l-.473.187-.436.1a7.8,7.8,0,0,1-1.792.187,10.03,10.03,0,0,1-1.639-.166,16.676,16.676,0,0,1-2.427-.651c-.585-.212-.9-.353-.9-.353a7.912,7.912,0,0,0,.83.5,11.863,11.863,0,0,0,2.39.971,8.366,8.366,0,0,0,3.706.253l.535-.12.477-.166a5.6,5.6,0,0,0,1-.465,15.9,15.9,0,0,0,1.759-1.253,31.293,31.293,0,0,0,3.025-2.863c.913-.963,1.7-1.917,2.382-2.718.676-.817,1.191-1.535,1.564-2.029S596.269,329.065,596.269,329.065Z" transform="translate(-573.51 59.204)"/><path class="b" d="M572.871,293.615s-.489,1.444-1.394,3.527c-.423,1.05-1.012,2.241-1.631,3.506-.332.631-.647,1.29-1.012,1.929-.353.656-.718,1.311-1.12,1.954-.369.656-.776,1.286-1.182,1.909s-.817,1.224-1.224,1.8-.817,1.128-1.207,1.647c-.195.257-.386.511-.573.751s-.382.456-.564.672c-.361.44-.7.834-1,1.187s-.585.639-.809.88c-.44.5-.693.788-.693.788s.295-.245.809-.664c.253-.216.56-.481.917-.78s.726-.676,1.129-1.087c.207-.2.411-.419.63-.639.2-.232.419-.473.639-.718.436-.49.909-1.008,1.332-1.589s.9-1.149,1.295-1.792c.427-.627.85-1.266,1.24-1.929s.76-1.328,1.112-2c.369-.664.647-1.353.963-2,.577-1.311,1.042-2.573,1.4-3.664a24.9,24.9,0,0,0,.743-2.664C572.821,293.993,572.871,293.615,572.871,293.615Z" transform="translate(-477.128 -52.441)"/><path class="b" d="M567.63,270.23l-1.622-.319c-1.029-.191-2.5-.531-4.257-.9-1.759-.382-3.8-.859-5.987-1.411-1.091-.253-2.2-.577-3.344-.863s-2.291-.635-3.444-.963c-1.149-.349-2.3-.676-3.415-1.042-1.116-.382-2.236-.705-3.282-1.1s-2.087-.718-3.037-1.112-1.872-.722-2.685-1.087-1.573-.7-2.245-.988-1.224-.606-1.7-.838c-.942-.465-1.482-.735-1.482-.735s.51.324,1.4.88c.452.265.987.639,1.635.975s1.374.738,2.183,1.149,1.718.788,2.647,1.228c.95.436,1.971.817,3.021,1.241s2.166.78,3.287,1.174c1.124.374,2.282.714,3.431,1.079,2.32.647,4.656,1.262,6.859,1.73,2.212.5,4.286.838,6.062,1.141C565.227,270.056,567.63,270.23,567.63,270.23Z" transform="translate(-350.178 -161.828)"/><path class="b" d="M569.351,260.75a29.66,29.66,0,0,0-2.261,2.07c-.32.336-.672.689-1.042,1.071a14.008,14.008,0,0,0-1.124,1.224c-.755.871-1.531,1.826-2.307,2.772-.386.486-.764.967-1.145,1.44-.349.49-.681.992-1,1.461-.643.963-1.228,1.863-1.722,2.643s-.871,1.444-1.158,1.9c-.27.465-.415.739-.415.739s.208-.232.552-.639.859-1,1.423-1.718,1.237-1.552,1.93-2.465c.336-.461.7-.929,1.05-1.411.378-.469.772-.942,1.158-1.411.755-.954,1.515-1.909,2.208-2.826.676-.917,1.4-1.706,1.95-2.436.581-.714,1.025-1.349,1.382-1.747C569.165,260.995,569.351,260.75,569.351,260.75Z" transform="translate(-459.987 -155.945)"/></g><g transform="translate(407.599 18.265)"><path class="e" d="M475.44,261.862c1.5-8.556,4.282-9.631,14.987-13.058a14.624,14.624,0,0,0,7.262-4.954,19.771,19.771,0,0,1-1.44,4.456c-1.357,3.037-2.506,2.826-2.714,1.573s-5.967-.108-10.784,2.618-5.025,5.963-4.917,11.514-2.2,7.95.1,7.635,2.1,5.444,4.191,4.718,3.245,3.452,5.025,6.066,3.979,3.975,4.817.734.631-4.5,4.083-4.817c2.129-.2,2.722-1.88,2.407-5.755s-1.357-6.49,1.465-8.274,4.614-1.564,3.452-8.888c-1.564-10.788,1.054-16.755,5.025-17.8,2.639-.7,4.444,1.681,5.361,3.365-3.286,4.506-5.531,12.726-.207,26.863,6.2,16.477,13.058,27.83,4.282,43.456S502.2,334.011,500.062,324.38,496,301.04,480.577,287.555C472.876,276.849,473.938,270.426,475.44,261.862Z" transform="translate(-474.375 -237.509)"/></g><path class="m" d="M497.445,246.32s3.266,8.149,7.336,19.83,4.349,14.938-.813,24.714c1.627-11.407-.817-16.838-4.344-20.1s2.622,17.3-5.266,8.336c-7.871-8.963-4.241,4.975-3.158,12.577s-1.361,14.394-1.626,9.506-4.348-17.382-11.676-24.44.539-5.979,3.8-1.631,2.17-10.867,7.058-7.066,8.963,3.535,7.332-9.506S494.188,238.984,497.445,246.32Z" transform="translate(-54.657 -201.154)"/><path class="d" d="M601.647,351.917c4.85-8.564-1.718-10.851-7.718-14.556s-34.908-16.17-40.809-37.967c-5.328-19.676,3.9-27.485,9.269-37.2,5.843-10.544,7.307-16.544,5.357-22.705-1.9-6.021,4.037-6.411,6.788,4.714-1.17-2.336-2.419-4.465-3.41-5.178-2.515-1.83,4.468,9.506-5.544,23.162-11.681,15.917-18.838,36.88,11.938,59.041,20.133,12.415,25.722,14.282,32.12,13.274,7.635-1.207,11.5-3.921,7.328-4.245a20.137,20.137,0,0,0,9.826-2.369,37.081,37.081,0,0,1,7.523-3.378C623.938,328.71,612.361,336.805,601.647,351.917Z" transform="translate(-499.19 -226.158)"/><g class="n" transform="translate(182.241 106.377)"><path class="o" d="M495.051,263.272c1.315-.846,2.685-1.647,4.125-2.386-1.336.772-2.548,1.461-3.581,2.071C495.412,263.069,495.229,263.168,495.051,263.272Z" transform="translate(-311.985 -251.998)"/><path class="o" d="M500.5,288.146s-.714-4.037,5.689-13.046,1.423-7.834-9.958-7.6l-.183,0c13.988-.776,18.992-.934,27.817-6.037C508.29,271.436,500.5,288.146,500.5,288.146Z" transform="translate(-340.796 -250.187)"/><path class="o" d="M549.055,263.57c-1.145,1.705,18.265,6.56,21.693,7.129s-15.706.29-28.838-5.137a88.454,88.454,0,0,1-12.975-6.817c7.415,2.436,9.22,1.846,23.705,4.116,6.743,1.062,14.606,2.706,22.888,4.353l-.216.062S550.192,261.856,549.055,263.57Z" transform="translate(-528.935 -258.744)"/><path class="o" d="M494.638,261.635c.552-.315,1.112-.639,1.714-.987-.012.058-.012.1-.029.162C495.75,261.071,495.194,261.353,494.638,261.635Z" transform="translate(-307.447 -252.747)"/></g><path class="p" d="M724.9,282.956s-10.278,0-26.257-.577-38.822-4-55.954-3.423-25.681-5.137-39.959-11.987-29.112-13.7-43.954-7.423-38.817,26.834-47.39,54.8c8.572-16.552,26.834-36.531,46.244-42.241s43.178,10.722,70.581,11.859S684.37,288.088,724.9,282.956Z" transform="translate(-423.258 -157.628)"/><g transform="translate(74.779 37.169)"><path class="e" d="M485.827,257.787c-1.3,2.079-1.494,4.3-.436,4.962s2.975-.481,4.274-2.564,1.49-4.295.432-4.963S487.121,255.712,485.827,257.787Z" transform="translate(-153.215 -201.213)"/><path class="e" d="M483.026,261.971c-.71,1.61-.672,3.183.075,3.515s1.929-.71,2.643-2.32.668-3.183-.083-3.51S483.731,260.361,483.026,261.971Z" transform="translate(-139.584 -186.858)"/><path class="e" d="M484.9,254.212a.9.9,0,1,0,1.419-.319A1.059,1.059,0,0,0,484.9,254.212Z" transform="translate(-148.251 -205.335)"/><path class="e" d="M491.282,258.131c.826-.208,2.6-.257,2.954.809.419,1.228-.307,2.461-.842,3.631-.784,3.56-1.846,8.44-5.855,9.212-2.689.519-2.855-4-2.846-5.568A8.23,8.23,0,0,1,491.282,258.131Z" transform="translate(-156.729 -191.843)"/><path class="e" d="M482.216,262.479a.354.354,0,0,1,.224.017c.963-.365,1.863.319,2.278,1.431a4.226,4.226,0,0,1-1.128,4.755,2.254,2.254,0,0,1-3.7-1.3C479.552,265.712,480.5,263.089,482.216,262.479Z" transform="translate(-127.156 -178.03)"/><path class="e" d="M479.656,271.039c1.041-2,2.344-3.938,3.5-5.871.344-.581,1.158-2.079,2.05-1.481a2.3,2.3,0,0,1,.751,1.9c.29,2.809-.348,6.328-2.357,8.332-1.058,1.05-3.4,2.079-4.369.411C478.639,273.308,479.162,271.964,479.656,271.039Z" transform="translate(-124.637 -174.406)"/><path class="e" d="M488.925,268.693c.436-1.527,2.373-2.228,3.792-2.266a.633.633,0,0,1,.465.348c2.224,1.17-.178,4.071-2.021,4.428A2.022,2.022,0,0,1,488.925,268.693Z" transform="translate(-173.716 -165.339)"/><path class="e" d="M497.3,262.466a.42.42,0,0,1,.394.112c2.56-.037,3.6,3.062,3.934,5.2a12.954,12.954,0,0,1-.033,4.9c-.415,1.726-2.747,2.477-4.2,2.954-2.913.963-7-.079-7.261-3.726C489.823,267.37,493.259,263.756,497.3,262.466Z" transform="translate(-186.705 -177.863)"/><path class="e" d="M500.249,263.4a.224.224,0,0,1,.108-.1c1.614-.527,1.934,1.174,1.822,2.39-.133,1.622-.626,4.046-2.386,4.618-1.091.357-2.394-.332-3.423-.622-.6-.178-1.606-.552-1.668-1.32C494.469,265.807,498.507,264.441,500.249,263.4Z" transform="translate(-206.057 -175.469)"/><path class="e" d="M493.755,276.8a18.206,18.206,0,0,1,2.946-5.49,6.8,6.8,0,0,1,5.676-3.332c.021-.058.079-.1.187-.091,4.187.261,6.178,4.635,5.568,8.324-.776,4.672-5.286,6.614-9.581,6.685A4.643,4.643,0,0,1,493.755,276.8Z" transform="translate(-207.438 -160.751)"/><path class="e" d="M485.753,277.783a14.863,14.863,0,0,1,2.747-3.573c1.544-1.461,4.548-3.4,6.365-1.27a4.183,4.183,0,0,1,.8,1.813,8.528,8.528,0,0,1-.336,4.129q-.293,1.033-.631,2.058c-.593,1.834-1.34,3.543-3.212,4.324a7.44,7.44,0,0,1-5.452-.274C483.234,283.6,484.649,279.779,485.753,277.783Z" transform="translate(-156.946 -147.794)"/><path class="e" d="M504.059,266.445c.315-.349.768-.066,1.05.274.411.145.842.581.8.979-.241,2.183-2.282,14.4-6.328,11.681C493.889,275.57,501.358,269.362,504.059,266.445Z" transform="translate(-221.402 -165.784)"/><path class="e" d="M484.484,272.156a2.016,2.016,0,0,1,.544,1.88,7.377,7.377,0,0,1-1.091,3.7c-.411.672-1.137,1.822-2.054,1.776-1.2-.046-1.622-1.378-1.6-2.382C480.323,275.281,481.692,269.612,484.484,272.156Z" transform="translate(-129.122 -149.329)"/><path class="e" d="M489.1,279.5a3.807,3.807,0,0,1,1.556-2.336c.021-.2.133-.382.378-.369.108.008.2.029.3.046h0a.892.892,0,0,1,.838.236,1.731,1.731,0,0,1,.892,2.51,6.854,6.854,0,0,1-3.033,2.987c-.436.183-.987-.249-1.133-.635A2.7,2.7,0,0,1,489.1,279.5Z" transform="translate(-172.288 -132.674)"/><path class="e" d="M498.487,286.751c1.224-2.676,4.3-7.909,7.431-4.759,2.129,1.4,1.78,5.174,1.328,7.378-.743,3.581-3.988,10.315-8.622,8.987C494.388,297.141,497.429,289.062,498.487,286.751Z" transform="translate(-218.693 -119.401)"/><path class="e" d="M499.164,284.925c0,1.1.5,2,1.124,2s1.125-.892,1.125-2-.5-2-1.125-2S499.164,283.817,499.164,284.925Z" transform="translate(-223.826 -113.38)"/><path class="e" d="M512.094,276.025c-.664,1.058-.709,2.22-.112,2.585s1.618-.183,2.266-1.245c.664-1.062.706-2.22.112-2.589S512.742,274.967,512.094,276.025Z" transform="translate(-288.64 -139.406)"/><path class="e" d="M530.472,280.755c-.855,1.378-.921,2.892-.137,3.373s2.1-.245,2.954-1.631.921-2.9.145-3.378S531.323,279.369,530.472,280.755Z" transform="translate(-383.458 -125.829)"/><path class="e" d="M538.305,272.638c-.859,1.382-.926,2.892-.149,3.378s2.112-.245,2.967-1.631.917-2.892.137-3.378S539.16,271.26,538.305,272.638Z" transform="translate(-423.763 -151.383)"/><path class="e" d="M544.826,268.893c-.543,1.535-.282,3.025.585,3.332s2-.689,2.548-2.22.29-3.025-.581-3.332S545.369,267.358,544.826,268.893Z" transform="translate(-458.952 -164.734)"/><path class="e" d="M548.764,260.18c-.751.9-.959,1.967-.448,2.39s1.522.042,2.27-.85.958-1.967.452-2.39S549.515,259.288,548.764,260.18Z" transform="translate(-476.517 -188.241)"/><path class="e" d="M536.132,271.106c-.88.153-1.527.689-1.436,1.178s.875.78,1.755.626,1.535-.685,1.44-1.183S537.02,270.952,536.132,271.106Z" transform="translate(-407.715 -150.736)"/><path class="e" d="M550.934,279.959c-.307.842-.166,1.672.307,1.842s1.108-.378,1.407-1.22.174-1.672-.307-1.846S551.233,279.117,550.934,279.959Z" transform="translate(-489.363 -126.672)"/><path class="e" d="M552.585,295.148c-.311.847-.166,1.668.307,1.838s1.1-.373,1.415-1.216.166-1.668-.315-1.842S552.884,294.305,552.585,295.148Z" transform="translate(-497.861 -78.823)"/><path class="e" d="M546.5,299.865c-.456,1.249-.253,2.465.457,2.722s1.635-.556,2.079-1.8.241-2.461-.456-2.714S546.936,298.62,546.5,299.865Z" transform="translate(-467.071 -65.835)"/><path class="e" d="M561.972,274.2c-.3.842-.153,1.668.315,1.838s1.108-.382,1.415-1.224.158-1.66-.311-1.83S562.279,273.345,561.972,274.2Z" transform="translate(-546.239 -144.804)"/><path class="e" d="M560.291,283.143c-.643,1.793-.348,3.535.66,3.9s2.34-.8,2.987-2.585.349-3.531-.66-3.892S560.93,281.359,560.291,283.143Z" transform="translate(-538.92 -121.021)"/><path class="e" d="M512.687,270.192c-1.635,2.639-1.751,5.531-.261,6.448s4.021-.465,5.655-3.112c1.631-2.631,1.751-5.527.27-6.448S514.326,267.549,512.687,270.192Z" transform="translate(-292.49 -164.182)"/><path class="e" d="M497.9,289.006c-1.6,2.78-1.664,5.739-.149,6.614s4.037-.685,5.631-3.465,1.664-5.751.158-6.618S499.5,286.217,497.9,289.006Z" transform="translate(-216.617 -105.917)"/><path class="e" d="M504.421,276.273c-1.543,3.627-1.178,7.253.809,8.1,2,.85,4.859-1.411,6.4-5.033s1.178-7.253-.809-8.1S505.964,272.647,504.421,276.273Z" transform="translate(-252.846 -150.753)"/><path class="e" d="M503.717,280.308c-.909,1.751-.73,3.647.407,4.232s2.784-.348,3.693-2.1.722-3.647-.4-4.228S504.626,278.565,503.717,280.308Z" transform="translate(-247.296 -128.78)"/><path class="e" d="M501.924,305.446c0,5.008,1.519,9.07,3.39,9.07s3.39-4.062,3.39-9.07-1.519-9.075-3.39-9.075S501.924,300.429,501.924,305.446Z" transform="translate(-242.569 -71.034)"/><path class="e" d="M503.64,299.533c0,2.108.946,3.818,2.116,3.818s2.124-1.71,2.124-3.818-.95-3.817-2.124-3.817S503.64,297.425,503.64,299.533Z" transform="translate(-248.866 -73.097)"/><path class="e" d="M485.721,308.1c1.539,3.573,4.245,5.838,6.054,5.058s2.029-4.3.494-7.867-4.245-5.846-6.054-5.066S484.186,304.524,485.721,308.1Z" transform="translate(-155.69 -59.391)"/><path class="e" d="M486.921,300.44c0,.983.539,1.776,1.195,1.776s1.187-.793,1.187-1.776-.535-1.78-1.187-1.78S486.921,299.452,486.921,300.44Z" transform="translate(-160.915 -63.825)"/><path class="e" d="M483.664,299.278c.149,2.9,1.519,5.187,3.066,5.1s2.668-2.494,2.519-5.394-1.531-5.187-3.07-5.108S483.5,296.377,483.664,299.278Z" transform="translate(-147.297 -78.887)"/><path class="e" d="M483.937,293.653c0,.938.494,1.693,1.108,1.693s1.1-.755,1.1-1.693-.494-1.7-1.1-1.7S483.937,292.711,483.937,293.653Z" transform="translate(-145.379 -84.938)"/><path class="e" d="M519.343,285.673a20.587,20.587,0,0,1-2.693,9.3c-2.61,4.191-5.307,2.419-5.685.56s-2.51.647-2.137-3.913S519.9,277.291,519.343,285.673Z" transform="translate(-281.698 -115.066)"/><path class="e" d="M518.182,279.245s1.386,8.88-3.112,9.1-6.311-3-3.959-6.635S517.647,273.568,518.182,279.245Z" transform="translate(-286.088 -133.459)"/><path class="e" d="M533.428,279.488s-3.759,9.224-6.315,9.224-9.05,1.191-7.17-6.315,6.992-7.855,10.071-9.05S534.449,276.418,533.428,279.488Z" transform="translate(-340.999 -144.192)"/><path class="e" d="M527.876,271.045s1.875,4.44-1.88,7-5.8-1.88-3.071-4.784S527.187,270.365,527.876,271.045Z" transform="translate(-344.152 -151.965)"/><path class="e" d="M524.626,270.578s-5.121,1.369-3.925-1.2,3.925-5.29,5.12-2.9S526.505,270.408,524.626,270.578Z" transform="translate(-337.491 -168.054)"/><path class="e" d="M538.238,269.12s1.191,5.8-2.046,5.967-9.05,0-5.98-4.431S536.362,264.174,538.238,269.12Z" transform="translate(-386.095 -165.911)"/><path class="e" d="M543.137,272.068c-1.871,3.49-2.087,7.025-.465,7.892s4.452-1.249,6.328-4.743,2.083-7.016.465-7.884S545.013,268.586,543.137,272.068Z" transform="translate(-448.977 -163.1)"/><path class="e" d="M544.6,264.751c-1.876,3.486-2.079,7.021-.465,7.888s4.456-1.253,6.332-4.743,2.079-7.017.46-7.884S546.476,261.261,544.6,264.751Z" transform="translate(-456.498 -186.161)"/><path class="e" d="M560.295,279.807c-1.635,3.046-1.647,6.22-.033,7.091s4.261-.892,5.9-3.938,1.651-6.22.037-7.091S561.93,276.757,560.295,279.807Z" transform="translate(-538.338 -136.299)"/><path class="e" d="M543.043,268.835c-1.261,2.353-1.4,4.734-.315,5.32s3-.847,4.27-3.2,1.4-4.734.307-5.315S544.308,266.487,543.043,268.835Z" transform="translate(-448.181 -168.216)"/><path class="e" d="M560.886,265.423s1.286,8.556-5.556,8.129c-4.722-.212-5.573-3.639-2.149-7.49S560.886,259.423,560.886,265.423Z" transform="translate(-498.888 -179.472)"/><path class="e" d="M565.26,266.4a13.033,13.033,0,0,1,0,5.017c-.506,3.07-2.452,1.734-4.394,2.149s-5.016-.407-3.481-4.2S563.625,261.088,565.26,266.4Z" transform="translate(-527.755 -173.079)"/><path class="e" d="M565.247,272.176s-1.066,1.178-.958,5.033-1.714,5.668-6.1,6.207-5.349-2.892-4.282-6.747,6.85-8.344,9.639-8.344S565.675,270.678,565.247,272.176Z" transform="translate(-513.527 -159.361)"/><path class="e" d="M558.508,285.67s-.187,7.523-6.709,8.07-5.618-5.444-3.979-9.245C549.446,280.678,558.508,278.33,558.508,285.67Z" transform="translate(-477.883 -119.798)"/><path class="e" d="M566.449,290.618s0,8.278-5.141,8-1.573-7.71.577-10.133S566.735,286.339,566.449,290.618Z" transform="translate(-535.778 -100.699)"/><path class="e" d="M563.762,298.451s-3.706,9.7-6.415,7.988S563.916,292.883,563.762,298.451Z" transform="translate(-525.532 -69.135)"/><path class="e" d="M573.636,304.978s-3.854,7.56-8.846,9.133S572.922,297.841,573.636,304.978Z" transform="translate(-563.658 -49.259)"/><path class="e" d="M554.6,306.087s-.863,9.7-5.568,8.411-4.427-5.56-2.145-9.27S553.887,296.66,554.6,306.087Z" transform="translate(-468.407 -57.646)"/><path class="e" d="M481.529,247.181a1.964,1.964,0,0,1,1.336-.95,5.535,5.535,0,0,0,2.917-1.817c.822-.934,2.2-.51,3.1.05.95.61.871,1.863.656,2.8-.037.137-.141.162-.266.12-.477,3.593-.564,7.573-4.564,9.021-2.88,1.037-3.539-2.295-3.693-4.295A10.269,10.269,0,0,1,481.529,247.181Z" transform="translate(-136.473 -236.395)"/><path class="e" d="M485.616,242.124a2.246,2.246,0,0,1,.216.079c1.792.793,1.249,5.8-1.013,5.328C482.263,247,483.255,241.431,485.616,242.124Z" transform="translate(-143.548 -242.065)"/><path class="e" d="M467.686,251.5c-.564,1.423-.2,2.909.834,3.315s2.311-.423,2.88-1.846.2-2.921-.834-3.324S468.246,250.065,467.686,251.5Z" transform="translate(-62.369 -218.52)"/><path class="e" d="M471.612,248.6c-.813,1.971-.461,3.975.776,4.49s2.9-.672,3.706-2.639c.822-1.963.473-3.971-.768-4.49S472.429,246.636,471.612,248.6Z" transform="translate(-82.809 -230.162)"/><path class="e" d="M473.637,246.331c-.7,2.008-.158,4.025,1.224,4.506s3.062-.763,3.759-2.772.153-4.029-1.224-4.506S474.338,244.319,473.637,246.331Z" transform="translate(-94.145 -237.679)"/><path class="e" d="M474.607,244.037c0,.909.444,1.643,1,1.643s1-.734,1-1.643-.44-1.639-1-1.639S474.607,243.137,474.607,244.037Z" transform="translate(-97.116 -241.015)"/></g><path class="p" d="M468.308,244.086c8.51-2.672,17.361,4.336,18.373,12.834a.243.243,0,0,1-.469.108,17.436,17.436,0,0,0-6.552-8.639c-3.344-2.5-7.278-3.008-11.274-3.544A.4.4,0,0,1,468.308,244.086Z" transform="translate(-5.254 -200.347)"/><path class="g" d="M486.7,235.518A69.287,69.287,0,0,1,460.273,240c-10.079-.892-2.917,1.573,4.929,1.573,3.809,0-5.6,1.12-7.622,2.237s2.021,1.12,10.535-1.344S490.957,235.294,486.7,235.518Z" transform="translate(46.835 -225.539)"/><path class="g" d="M551.556,252.783s-7.311,15.909-28.307,28.95-32.141,20.68-37.863,35.95c9.228-11.133,27.037-25.133,40.407-34.041S551.241,262.965,551.556,252.783Z" transform="translate(-142.021 -171.14)"/><path class="g" d="M508.754,259.974S490.48,285.1,485.343,297.082,501.334,276.53,508.754,259.974Z" transform="translate(-95.737 -148.493)"/><path class="g" d="M497.516,303.369a47.74,47.74,0,0,1,3.207-13.452,35.271,35.271,0,0,1,6.9-10.22c3.336-3.51,7.373-5.913,11.494-8.373.336-.2.635.324.361.552a56.709,56.709,0,0,0-15.207,20.685c-3.975,9.07-5.68,18.639-8.141,28.178-.071.286-.519.166-.494-.12C496.146,314.859,496.781,309.12,497.516,303.369Z" transform="translate(-152.598 -112.892)"/><path class="p" d="M599.524,287.333s-29.813-9.672-37.141-34.784c-4.187-13.34-5.228,6.8,9.157,20.66S606.591,291.258,599.524,287.333Z" transform="translate(-499.557 -185.657)"/><g transform="translate(438.22 4.715)"><path class="d" d="M447.464,372.412c3.718-12.278,9.432-29.4,19.129-45.668s7.992-17.415,4.564-12.564-8.274,12.851-5.137,5.71,6.282-11.419,3.427-14.27-3.705-4.353-4.141-13.988c.643,2.357,2.788,8.992,9.635,11.56s14.772.212,19.913-5.568,8.349-10.49,21.834-17.552c6.539-3.427,12.635-4.714,10.705-5.78s-4.324.6-4.324.6A7.559,7.559,0,0,1,528.26,270l-1.784,1.481c7.71,2.374,14.456-3.975,21.154-9.718s7.448-6.407,14.133-8.635c6.7-2.232,19.149-2.2,1.083-9.3-7.2-2.83-9.154-6.88-9.606-9.544a11.363,11.363,0,0,1,4.552.622c4.282,1.278,12.971,7.017,12.971,7.017a14.752,14.752,0,0,0,6.083,4.137c3.535,1.1,1.469,6.822-5.232,6.942.365,5.967.851,7.793-5.353,8.4s-10.614,3.685-22.884,10.967-17.983,8.27-26.261,11.988-17.838,11.274-21.693,16.556-5.651,8.656-14.4,6.469a318.983,318.983,0,0,0-20.407,40.282C454.04,356.9,443.808,384.52,447.464,372.412Z" transform="translate(-446.696 -234.243)"/></g><g transform="translate(545.905 0)"><g transform="translate(0)"><path class="e" d="M461.967,247.364s-7.917-2.05-12.071-6.195c-3.058-3.191-.569-5.552,2.174-7.017s7.975-1.851,11.108,3.7S464.324,248,461.967,247.364Z" transform="translate(-448.067 -232.783)"/><path d="M462.718,248.169h0a2.475,2.475,0,0,0,2.1-1.39c.942-1.614,1.257-4.888-.954-8.817-2.378-4.224-5.809-4.855-7.635-4.855a8.661,8.661,0,0,0-4.041.988c-2.266,1.212-3.539,2.573-3.763,4.046a4.327,4.327,0,0,0,1.481,3.651c4.191,4.183,11.938,6.22,12.265,6.307A2.219,2.219,0,0,0,462.718,248.169Zm-6.486-14.212c2,0,4.83.772,6.888,4.423,1.9,3.382,1.847,6.436.955,7.967a1.657,1.657,0,0,1-1.357.967h0a1.514,1.514,0,0,1-.328-.042c-.079-.025-7.851-2.066-11.863-6.083a3.514,3.514,0,0,1-1.257-2.921c.191-1.191,1.3-2.34,3.324-3.419A7.852,7.852,0,0,1,456.233,233.958Z" transform="translate(-448.387 -233.107)"/></g><g class="n" transform="translate(0.424 0.427)"><path class="e" d="M452.071,234.152a8.212,8.212,0,0,1,3.9-.942,4.643,4.643,0,0,1-.527.079c-4.319.394-7.336,4.792-4.013,7.274s8.042,4.328,6.494,1,4.174,3.793,5.187.929c1-2.867-1.241-6.266-1.241-6.266l.129-.071a10.9,10.9,0,0,1,1.174,1.689c3.12,5.548,1.145,10.149-1.212,9.514,0,0-7.917-2.05-12.071-6.195C446.838,237.978,449.328,235.617,452.071,234.152Z" transform="translate(-448.491 -233.21)"/></g><path class="p" d="M456.5,236.888a5.677,5.677,0,0,1-.593-.4,7.345,7.345,0,0,0-5.486-1.631c-2.884.378-.129-2.257,3.129-1.253a7.237,7.237,0,0,1,3.071,1.838c.228.236,1.166,1.282.656,1.622C457.11,237.178,456.791,237.049,456.5,236.888Z" transform="translate(-443.688 -232.261)"/><path class="p" d="M451.253,234.766c.116.349.631.506,1.162.336s.859-.585.751-.942-.626-.5-1.158-.332S451.14,234.413,451.253,234.766Z" transform="translate(-447.834 -231.056)"/></g><g transform="translate(0.439 4.711)"><path class="d" d="M448.777,618.987c3.191-4.967,8.149-4.61,11.1-6.734s-2.008-6.855,4.253-7.56,6.382-2.6,9.336-13.826,6.452-21.925,8.743-30.913.56-11.133.141-15.274,0-6.564,6.274-8.706,25.266-16.556,38.536-29.4,14.552-31.037,9.2-55.017-7.349-26.618-8.489-46.315c-.009-.178-.009-.349-.017-.527,1.145,8.606,5.44,20.2,12.286,45.34,8.573,31.407,9.141,48.531,26.27,34.257s46.241-51.954,48.523-73.075,30.253-15.992,80.49,13.7c68.51,45.1,60.518-24.548,65.087-16.56s6.855,25.693,9.709,14.278,10.274-25.124,5.705,9.133,3.427,45.1,31.871,21.149,18.066-59.079,53.763-77.1c17.311-8.739,11.411-48.523,7.419-41.1s-6.851,17.7-3.423-2.278-5.714-31.975-9.137-27.407c-.183.257-.4.514-.618.793,1.465-2.514,2.892-5.174,4.257-8-7.7-10.705-6.639-17.129-5.137-25.693s4.282-9.631,14.987-13.058c6-2.141,7.274-4.925,10.062-8.992s7.274-9.419,16.054-2.353c0,0,5.776-1.444,11.577-2.751a4.611,4.611,0,0,1-.871.4c-5.137,1.705-8.133,2.564-4.282,8.133s4.066,7.49-1.286,3.212-7.7-.863-8.133,8.349c-.5,10.693,8.228,24.058,8.747,19.365s1.747-5.39,1.921-1.216.17,10.253,6.6,14.776,16.693.523,28.867-11.826c9.174-9.3,18.776-6.954,20.68-11.987s8.17-5.39,8.17-5.39-.51.519-1.734,2.087c4.693.7,10.432-2.784,16.863-8.867s10.083-10.091,15.822-10.78,6.776-3.133,0-6.606-8-4-8.17-6.436c-.17-2.328-2.768-2.739-5.585-2.494,5.39-1.776,7.033-1.813,10.365-.809,4.282,1.278,12.971,7.017,12.971,7.017a14.752,14.752,0,0,0,6.083,4.137c3.535,1.1,1.469,6.822-5.232,6.942.365,5.967.851,7.793-5.353,8.4s-10.614,3.685-22.884,10.967-17.983,8.27-26.261,11.988-17.838,11.274-21.693,16.556-5.651,8.656-14.4,6.469c-10.61,17.5-21.062,39.27-33.486,73.738-9.627,23.332-11.988,29.12-10.913,43.456s-.573,28.332-3.423,54.025-.394,29.286,6.3,35.494,25.527,24.021,37.373,39.435,24.183,35.456,34.892,46.17c10.278,10.274,11.353,8.133,12.423,12.415.51.938,3.477,2.025,6.025,1.241s5.755-1.212,6.963-.668c0,0,6-4.3,8.722,1.029s2.668,17.274-4.963,16.664c-2.3,2.967-6.427,2.241-6.971,1.7-3.515,3.51-14.419,3.444-18.415-.266s-4.216-10.776-7.78-10.776-4.784-.432-4.992-3.5.531-6.921-6.851-12.6c-5.245-3.635-9.1-4.813-12.1-4.705s-3.639-3-3.639-6.851-1.178-6.888-7.6-15.452-27.689-23.548-41.1-34.394-20.7-15.415-23.552-15.274-9.419-2.423-10.278-11.27-4.427-27.4-9.129-37.108c0,0-9.9,3.428-14.369,6.805s-16.1,14.531-20.6,33.581-14.349,49.668-17.124,62.514-4.78,19.431,1.075,34.241c1.772,5.851,5.581,7.975,7.618,8.685s3.639-.266,6.3.975c5.763-3.809,9.838-1.593,10.809,4.88s-3.1,9.747-6.465,9.3c-2.037,4.432-5.5,3.191-6.826,2.307-4.523,1.6-10.382.448-14.809-.535s-7.266.407-8.514-6.378c-.963-5.307-2.676-9.27-4.286-10.768s-.963-2.245-.751-6.743a65.369,65.369,0,0,0-4.846-25.262c-4.29-10.564-.718-12.7,1.423-17.419,2.145-4.7,8.992-24.116,10.921-38.245s2.137-24.838,1.075-31.685-2.361-12.631-2.361-12.631a79.307,79.307,0,0,1-48.166-9.2c-23.979-13.49-36.087-29.394-50.182-34.481s-21.042.51-25.9,8.5-4.763,15.56-1.556,32.178,1.129,23.124-16.353,49.253c-19.477,29.108-28.681,39.386-25.9,50.946s5.141,17.34,11.353,25.265,7.776,11.481,11.34,9.49,5.855-3.137,9.71-.291c.855-3.568,7.415-1.714,8.988.145,3.427-2.423,6.572.145,7.992,5.419,1.435,5.286-1.564,7.423-8.56,6.855-6.141,2.141-8.137.286-8.137.286-9.133,2.286-21.975,3.141-25.406-2.643a24.051,24.051,0,0,0-8.768-9.2c-2.577-1.718-1.934-4.286-3.436-9.212s-9.2-19.909-14.336-27.614-8.137-10.278-.436-18.627,24.838-23.12,6.423-61.016c-16.05,14.345-31.253,19.054-51.373,29.12s-27.49,16.2-31.046,24.195c-8.776,19.693-16.054,41.315-18.842,49.021s-5.925,14.643-11.95,21.494-11.1,7.44-13.581,7.091a3.906,3.906,0,0,1-3.307-4.137c-5.792-2.481-4.846-4.61-4.61-6.025C446.528,628.908,445.581,623.95,448.777,618.987ZM875.5,282.751c-.178-7.17,0-7.884,2.863-10.934,2.88-3.046,2.66-3.847,2.66-11.734s-1.22-6.9-1.581-5.286c0,0-3.4,11.108-13.079,15.95-4.66,1.606,0-2.154,2.332-4.842s-9.855-.174-9.855,4.66,0,6.809-.718,8.6,1.61-.9,1.967,2.149,2.506,4.3,3.589,2.154,1.784,3.4,3.759,5.913,2.685-.357,2.685-4.125S875.676,289.917,875.5,282.751Z" transform="translate(-446.696 -234.242)"/></g><g class="q" transform="translate(0.439 169.004)"><path class="d" d="M456.287,494.289c3.191-4.967,8.149-4.61,11.1-6.734s-2.008-6.855,4.253-7.56,6.382-2.6,9.336-13.826,6.452-21.925,8.743-30.913.56-11.133.141-15.274c-.021-.162-.029-.316-.05-.469,2,5.689,2.789,13.037-.531,25.73-5.137,19.7-7.7,35.112-13.693,37.253s2.564,4.282-9.851,8.988-9.85,12.846-.427,9.855,9.85-6.427,11.56-5.145,5.137,2.569,12.851-17.983c8.992-25.689,16.269-43.809,11.7-46.668s-4-5.71,7.419-8,30.826-15.407,56.523-29.685,39.386-45.668,54.8-81.635,23.419-31.971,37.68-17.124,23.224,33.158,68.78,42.083c42.021,8.228,41.407-38.087,43.685-34.091s1.718,23.979,2.291,18.838,6.846-25.12,3.992-6.851-1.714,30.83,2.855,58.8,10.278,14.27,24.552-2.286,18.266-34.826,29.68-54.232,40.544-44.535,26.838-26.834-17.7,27.975-8.564,22.265c21.124-14.842,23.975-21.7,30.257-33.112a65.891,65.891,0,0,1,3.656-5.851c-3.793,10.324-4.676,16.145-3.942,26.041,1.075,14.349-.573,28.332-3.423,54.025s-.394,29.286,6.3,35.494,25.527,24.021,37.373,39.436c8.846,11.515,17.975,25.618,26.494,36.477-.494-.577-.963-1.166-1.4-1.788,5.012,13.6,9.307,21.469,12.166,22.9,0,0-3.938,0-5.365-.714,1.428,2.855,4.295,2.855,6.44,3.216-4.294,2.506-3.22,4.29-3.22,4.29s3.22.361,4.647,2.51,13.237-.718,15.025,3.929,5.012-3.581,2.506-6.079-8.228-1.432-8.228-1.432,10.373-3.581,11.8,1.788c.718,5.365,4.8,5.344,2.656-2.166-1.075-3.577,2.722.452,3.431,5.386.365,2.527,1.539,3.149,3.564,1.9-.527,3.817-2.444,6.954-6.452,6.635-2.3,2.967-6.427,2.241-6.971,1.7-3.515,3.51-14.419,3.444-18.415-.266s-4.216-10.776-7.78-10.776-4.784-.432-4.992-3.5.531-6.921-6.851-12.6c-5.245-3.635-9.1-4.813-12.1-4.706s-3.639-3-3.639-6.851-1.178-6.888-7.6-15.452-27.689-23.548-41.1-34.394-20.7-15.415-23.552-15.274-9.419-2.423-10.278-11.27-4.427-27.4-9.129-37.108c0,0-9.9,3.428-14.369,6.805s-16.1,14.531-20.6,33.581S784.5,445.243,781.727,458.09s-4.78,19.431,1.075,34.241a13.939,13.939,0,0,0,3.859,6.407,11.643,11.643,0,0,1-4.934-1.253c-5.145-2.573-2.568,1.278,0,2.569s-3.431,1.709-6.859-.432,0,4.709.859,8.987,14.556,6,16.7,3.859-.423-6.846-5.56-8.564c6.419-1.71,8.266,3.4,8.842,7.054,1.431,4.51,8.489.643,2.544-7.1,3.419-1.079,3.963,4.506,3.963,6.846,0,1.2,2.834,1.178,5.357-.452-.614,4.22-3.793,6.29-6.506,5.925-2.037,4.432-5.5,3.191-6.826,2.307-4.523,1.6-10.382.448-14.809-.535s-7.266.407-8.514-6.378c-.963-5.307-2.676-9.27-4.286-10.768s-.963-2.245-.751-6.743A65.367,65.367,0,0,0,761.03,468.8c-4.29-10.564-.718-12.7,1.423-17.419,2.145-4.7,8.992-24.116,10.921-38.245s2.137-24.838,1.075-31.685-2.361-12.631-2.361-12.631a79.307,79.307,0,0,1-48.166-9.2c-23.979-13.49-36.087-29.394-50.182-34.481s-21.042.51-25.9,8.5-4.763,15.56-1.556,32.178,1.129,23.124-16.353,49.253c-19.477,29.108-28.681,39.386-25.9,50.946s5.141,17.34,11.353,25.265,7.776,11.481,11.34,9.49,5.855-3.137,9.71-.291c.854-3.568,7.415-1.714,8.988.145,3.427-2.423,6.572.145,7.992,5.419,1.435,5.286-1.564,7.423-8.56,6.855-6.141,2.141-8.137.286-8.137.286-9.133,2.286-21.975,3.141-25.406-2.643a24.052,24.052,0,0,0-8.768-9.2c-2.577-1.718-1.934-4.286-3.436-9.212s-9.2-19.909-14.336-27.614-8.137-10.278-.436-18.627,24.838-23.12,6.423-61.016c-16.05,14.344-31.253,19.054-51.373,29.12s-27.49,16.2-31.046,24.195c-8.776,19.693-16.054,41.315-18.842,49.021s-5.925,14.643-11.95,21.494-11.1,7.44-13.581,7.091a3.906,3.906,0,0,1-3.307-4.137c-5.792-2.481-4.846-4.61-4.61-6.025C454.039,504.21,453.092,499.251,456.287,494.289Z" transform="translate(-454.207 -273.837)"/></g></g></svg>