<svg xmlns="http://www.w3.org/2000/svg" xmlns:xlink="http://www.w3.org/1999/xlink" width="50.752" height="50.748" viewBox="0 0 50.752 50.748"><defs><style>.a{fill:url(#a);}</style><radialGradient id="a" cx="0.5" cy="0.5" r="0.5" gradientUnits="objectBoundingBox"><stop offset="0" stop-color="#fad419"/><stop offset="1" stop-color="#db9d48"/></radialGradient></defs><path class="a" d="M39.584,24.126a13.778,13.778,0,0,0-4.562.5C28.848,19.368,12.538,5.485,11.294,4.192a2.461,2.461,0,0,0-1.83-.817,4.071,4.071,0,0,0-2.6,1.171c-.842.805-4.026,4.245-3.416,4.88,1.83,1.879,2.318,2.257,3.074,3.025,1.135,1.159,3.452-.122,4.392.281a1.8,1.8,0,0,1,1.269,1.525c.146.7-.354,1.927-.366,2.891a3.052,3.052,0,0,0,1.122,2.318,2.567,2.567,0,0,0,1.9,1.061c1.1.024,2.55-1.561,3.709-.378s-.756,2.891-.61,4.148a4.606,4.606,0,0,0,2.635,2.94c.744.159,2.659-1.427,3.745-1.183a2.545,2.545,0,0,1,1.342,1.391c.122.561-.842,3.05-.72,3.611a8.578,8.578,0,0,0,1.269,2.123A13.74,13.74,0,0,0,25.067,39c0,8.356,6.514,15.127,14.541,15.127S54.125,47.353,54.125,39A14.621,14.621,0,0,0,39.584,24.126Zm2.83,22.19a3.9,3.9,0,1,1,3.9-3.9A3.9,3.9,0,0,1,42.414,46.316Z" transform="translate(-3.373 -3.375)"/></svg>