<svg xmlns="http://www.w3.org/2000/svg" width="35.126" height="35.125" viewBox="0 0 35.126 35.125"><defs><style>.a{fill:none;stroke:#fff;stroke-linecap:round;stroke-linejoin:round;stroke-width:2px;}</style></defs><g transform="translate(0.999 1)"><path class="a" d="M11.281,3H27.844a8.281,8.281,0,0,1,8.281,8.281V27.844a8.281,8.281,0,0,1-8.281,8.281H11.281A8.281,8.281,0,0,1,3,27.844V11.281A8.281,8.281,0,0,1,11.281,3Z" transform="translate(-2.999 -3)"/><path class="a" d="M25.244,17.588a6.625,6.625,0,1,1-5.582-5.582A6.625,6.625,0,0,1,25.244,17.588Z" transform="translate(-2.055 -2.069)"/><path class="a" d="M26.25,9.75h0" transform="translate(-0.577 -2.297)"/></g></svg>