<svg xmlns="http://www.w3.org/2000/svg" width="34.757" height="28.229" viewBox="0 0 34.757 28.229"><defs><style>.a{fill:#fff;}</style></defs><path class="a" d="M31.185,10.416c.022.309.022.618.022.926,0,9.417-7.168,20.268-20.268,20.268A20.131,20.131,0,0,1,0,28.412a14.737,14.737,0,0,0,1.72.088,14.266,14.266,0,0,0,8.844-3.043,7.136,7.136,0,0,1-6.66-4.94,8.983,8.983,0,0,0,1.345.11,7.534,7.534,0,0,0,1.875-.243,7.124,7.124,0,0,1-5.712-6.991v-.088a7.174,7.174,0,0,0,3.22.9A7.134,7.134,0,0,1,2.426,4.682a20.248,20.248,0,0,0,14.688,7.454,8.041,8.041,0,0,1-.176-1.632A7.13,7.13,0,0,1,29.266,5.63a14.025,14.025,0,0,0,4.521-1.72,7.1,7.1,0,0,1-3.132,3.926,14.281,14.281,0,0,0,4.1-1.1,15.313,15.313,0,0,1-3.573,3.683Z" transform="translate(0 -3.381)"/></svg>