<svg xmlns="http://www.w3.org/2000/svg" width="55.558" height="37.053" viewBox="0 0 55.558 37.053"><defs><style>.a{fill:#edffd9;opacity:0.6;}</style></defs><path class="a" d="M28.009,47.6a2.522,2.522,0,0,0,.019-3.551L16.315,32.293H60.95a2.509,2.509,0,0,0,0-5.017H16.315L28.048,15.524a2.54,2.54,0,0,0-.019-3.551,2.5,2.5,0,0,0-3.531.019L8.6,28.009h0a2.817,2.817,0,0,0-.521.791,2.394,2.394,0,0,0-.193.965A2.515,2.515,0,0,0,8.6,31.521L24.5,47.538A2.458,2.458,0,0,0,28.009,47.6Z" transform="translate(-7.882 -11.251)"/></svg>