<svg xmlns="http://www.w3.org/2000/svg" xmlns:xlink="http://www.w3.org/1999/xlink" width="55.557" height="37.053" viewBox="0 0 55.557 37.053"><defs><style>.a{fill:url(#a);}</style><radialGradient id="a" cx="0.5" cy="0.5" r="0.5" gradientUnits="objectBoundingBox"><stop offset="0" stop-color="#fad419"/><stop offset="1" stop-color="#db9d48"/></radialGradient></defs><path class="a" d="M43.312,47.6a2.522,2.522,0,0,1-.019-3.551L55.006,32.293H10.371a2.509,2.509,0,0,1,0-5.017H55.006L43.273,15.524a2.54,2.54,0,0,1,.019-3.551,2.5,2.5,0,0,1,3.531.019l15.9,16.017h0a2.817,2.817,0,0,1,.521.791,2.394,2.394,0,0,1,.193.965,2.515,2.515,0,0,1-.714,1.756l-15.9,16.017A2.458,2.458,0,0,1,43.312,47.6Z" transform="translate(-7.882 -11.251)"/></svg>