<svg xmlns="http://www.w3.org/2000/svg" xmlns:xlink="http://www.w3.org/1999/xlink" width="14" height="13" viewBox="0 0 14 13"><defs><style>.a{fill:#f46150;opacity:0;}.b{fill:url(#a);}</style><radialGradient id="a" cx="0.5" cy="0.5" r="0.5" gradientUnits="objectBoundingBox"><stop offset="0" stop-color="#fad419"/><stop offset="1" stop-color="#db9d48"/></radialGradient></defs><g transform="translate(0.35 0.393)"><g transform="translate(0 0)"><rect class="a" width="13" height="14" transform="translate(13.65 -0.393) rotate(90)"/><path class="b" d="M10.98,12.945a.576.576,0,0,1-.265-.063L7.777,11.344,4.839,12.882A.576.576,0,0,1,4,12.271l.576-3.244-2.374-2.3a.567.567,0,0,1,.323-.968l3.284-.478L7.258,2.321a.576.576,0,0,1,1.037,0l1.463,2.95,3.284.478a.567.567,0,0,1,.323.968l-2.374,2.3.576,3.244a.57.57,0,0,1-.588.68Z" transform="translate(-0.786 -1.853)"/></g></g></svg>