<svg xmlns="http://www.w3.org/2000/svg" xmlns:xlink="http://www.w3.org/1999/xlink" width="82.47" height="65.101" viewBox="0 0 82.47 65.101"><defs><style>.a{fill:url(#a);}</style><radialGradient id="a" cx="0.5" cy="0.5" r="0.5" gradientUnits="objectBoundingBox"><stop offset="0" stop-color="#fad419"/><stop offset="1" stop-color="#db9d48"/></radialGradient></defs><g transform="translate(-1 -6.055)"><g transform="translate(1 6.055)"><circle class="a" cx="5.699" cy="5.699" r="5.699" transform="translate(12.957)"/><path class="a" d="M82.984,40.919,81.51,39.364s-.556-5.22-3.295-4.084c0,0-1.611-1.426-2.819-.266,0,0-2.159-.338-2.247,2.3A12.664,12.664,0,0,1,70.6,38.89L44.92,22.107a3.249,3.249,0,0,0-3-5.76c-7.2,3.476-14.409,1-17.714-.549a5.793,5.793,0,0,0-6.942-1.525C8.577,15.487,1.887,25.117,1.568,25.584a3.256,3.256,0,0,0,5.377,3.674,27.915,27.915,0,0,1,6.479-6.5C12.2,36.119,12,36.1,12.419,37.65c-.049.492-.718,8.551-.763,9.082L3.794,60.03A3.257,3.257,0,1,0,9.4,63.345c10.4-17.594,8.473-12.787,9.191-21.4a5.769,5.769,0,0,0,1.29-.274l5.208,6.757-3.81,13.064a3.256,3.256,0,0,0,6.252,1.824L31.8,48.658a3.258,3.258,0,0,0-.547-2.9l-7.312-9.485,1.227-13.091a26.257,26.257,0,0,0,17.782-.2L68.539,39.7c-10.07,2.959-14.88-1.8-17.7,2.393l-.1.04c-.4.158-.97.4-1.633.726-1.787.9-7.32,5.93-11.209,1.134,3.554,5.464,10.253.645,11.973.033-1.421,5.057,3.011,9.029-.526,13.156-1.305,1.483.065,3,.556,4.72l.9,3.053.709-.508c-.8-5.178-1.089-5.171,1.208-8.926-.226.483-1.176,2.739.757,3.19l3.722,2.167,1.361-.258c-2.517-2.224-4.07-3.094-3.4-4.938,1.621-4.51,1.3-4.592,3.851-4.237,0,0,6.041,2.779,8.458,1.724-1.274,1.434-.783,2.491-1.273,4.914a3.873,3.873,0,0,0,.572,3.142l2.312,4.43s3.118-.451.653-.9L69,62.5a10.581,10.581,0,0,1-.129-6.106l3.271.862-1.813,3.319v1.458s5.6-6.082,2.4-6.283a12.738,12.738,0,0,1-3.053-.66c5.461-6.486,3.973-7.468,5.639-10.722V42.3l2.868,2.119.508-.306s.5.1,0,2.062c0,0,.6.991.918-.282,0,0,.6-2.771-.935-2.7L77.7,41.86l.1-.5a2.984,2.984,0,0,1,1.933,1.152s1.909,1.643,2.9-.08C82.63,42.433,84.257,41.49,82.984,40.919Zm-4.543-3.842a.564.564,0,1,1,1.128,0A.564.564,0,0,1,78.441,37.076Z" transform="translate(-1 -0.556)"/></g></g></svg>