<svg xmlns="http://www.w3.org/2000/svg" xmlns:xlink="http://www.w3.org/1999/xlink" width="100.08" height="52.856" viewBox="0 0 100.08 52.856"><defs><style>.a{fill:url(#a);}</style><radialGradient id="a" cx="0.5" cy="0.5" r="0.5" gradientUnits="objectBoundingBox"><stop offset="0" stop-color="#fad419"/><stop offset="1" stop-color="#db9d48"/></radialGradient></defs><g transform="translate(-2.417 -24.667)"><path class="a" d="M102.254,62.476l-2.631-1.263a30.93,30.93,0,0,1-9.365-7.05l-2.42-2.841a18.25,18.25,0,0,0-7.26-4.945l-.316-.105a36.526,36.526,0,0,0-9.365-2.1l-8.1-.631a55.251,55.251,0,0,0-12.521.421l-1.368.21a13.626,13.626,0,0,1-4.63-.105l-4.419-.631a10.55,10.55,0,0,1-6.734-4.419,4.772,4.772,0,0,1-1.578,2.21l-6,4.84a1.778,1.778,0,0,1-1.052.316h-.21a2.508,2.508,0,0,1-1.157-.631l-.737-.842a5.531,5.531,0,0,1-1.052-4.63L22.5,35.119a6.37,6.37,0,0,0,0-2l-.421-1.473a3.3,3.3,0,0,1,.631-2.946l1.157-1.368c.105-.21.421-.21.631-.105s.21.421.105.631l-.105.105-1.052,1.263a2.577,2.577,0,0,0-.526,2.1l.421,1.473a4.713,4.713,0,0,1,0,2.42L22.181,40.38a4.638,4.638,0,0,0,.842,3.893l.737.842a.579.579,0,0,0,.526.316.773.773,0,0,0,.631-.21l6.1-4.84a4.1,4.1,0,0,0,1.368-2.1,3.086,3.086,0,0,0-1.052-3.157l-4.63-3.893c-.21-.105-.21-.421-.105-.631l.105-.105a.47.47,0,0,1,.526,0l3.157,2.631-2.525-5.366a4.514,4.514,0,0,0-2.21-2.21,11.612,11.612,0,0,0-8-.316l-1.157.421a3.758,3.758,0,0,0-2.21,2l-.21.526a6.182,6.182,0,0,1-3.262,3.262L3.03,35.013A1.052,1.052,0,0,0,2.715,36.7l.421.421a9.979,9.979,0,0,0,8.628,2.736l3.262-.526a4.632,4.632,0,0,1,5.156,2.946l1.368,3.683a11.5,11.5,0,0,1,.631,4.63l-.105.947a10.5,10.5,0,0,0,4,9.259L31.44,65a2.409,2.409,0,0,1,.842,1.789l-.316,4.735a1.8,1.8,0,0,1-.737,1.368l-1.684,1.052a3.849,3.849,0,0,0-1.684,2.841v.421a.279.279,0,0,0,.316.316h4.1A5.319,5.319,0,0,0,37.543,73.1L38.7,66.79a.893.893,0,0,1,.842-.737h0A22.287,22.287,0,0,0,50.7,62.686l1.578-.947a23.349,23.349,0,0,1,7.786-2.946l9.575-1.578a4.913,4.913,0,0,1,4.524,1.578l.526.631a16.64,16.64,0,0,0,7.786,4.735l.421.105a1.578,1.578,0,0,1,1.157,1.473l.105,4.314A1.1,1.1,0,0,1,83.63,71l-1.157.631a4.03,4.03,0,0,0-2.21,3.262.226.226,0,0,0,.21.21h5.892a2.876,2.876,0,0,0,2.841-2.736l.316-7.05A4.506,4.506,0,0,1,90.153,63a1.188,1.188,0,0,0-.421-1.578L87,59.635a.85.85,0,0,1-.421-.947l.316-4.1a.285.285,0,0,1,.421-.21,31.132,31.132,0,0,0,13.468,7.892l1.473.421C102.464,63.107,102.674,62.581,102.254,62.476Z" transform="translate(0)"/></g></svg>