<svg xmlns="http://www.w3.org/2000/svg" xmlns:xlink="http://www.w3.org/1999/xlink" width="70.767" height="59.877" viewBox="0 0 70.767 59.877"><defs><style>.a{fill:url(#a);}</style><radialGradient id="a" cx="0.5" cy="0.5" r="0.5" gradientUnits="objectBoundingBox"><stop offset="0" stop-color="#fad419"/><stop offset="1" stop-color="#db9d48"/></radialGradient></defs><g transform="translate(-6 -10)"><g transform="translate(6 10)"><path class="a" d="M7.5,31.486l32.66,16.33a2.727,2.727,0,0,0,2.436,0l32.66-16.33a2.723,2.723,0,0,0,0-4.869L42.6,10.287a2.727,2.727,0,0,0-2.435,0L7.505,26.617a2.722,2.722,0,0,0,0,4.869Z" transform="translate(-5.999 -10)"/><path class="a" d="M72.824,30.288,41.382,46.009,9.94,30.288a2.723,2.723,0,0,0-2.435,4.87l32.66,16.33a2.73,2.73,0,0,0,2.435,0l32.66-16.33a2.722,2.722,0,1,0-2.436-4.869Z" transform="translate(-6 -2.784)"/><path class="a" d="M72.824,38.287,41.382,54.009,9.94,38.287a2.723,2.723,0,0,0-2.435,4.87l32.66,16.33a2.73,2.73,0,0,0,2.435,0l32.66-16.33a2.722,2.722,0,1,0-2.436-4.869Z" transform="translate(-6 0.103)"/></g></g></svg>