<svg xmlns="http://www.w3.org/2000/svg" xmlns:xlink="http://www.w3.org/1999/xlink" width="90.226" height="47.907" viewBox="0 0 90.226 47.907"><defs><style>.a{fill:url(#a);}</style><radialGradient id="a" cx="0.5" cy="0.5" r="0.5" gradientUnits="objectBoundingBox"><stop offset="0" stop-color="#fad419"/><stop offset="1" stop-color="#db9d48"/></radialGradient></defs><g transform="translate(-4.774 -26.093)"><path class="a" d="M94,32.1h0l-5.1-.8-2.4-1.5c-3-1.8-7.3-1.4-10.4.7H71.4l-1.2,1.2,1.2,1.2h1.7l-4.9,4c-2.9,2.4-8.6,5.1-11.7,2.9l-3-3.3C49.8,30,43.6,25.9,37.4,26.1c-5.8.2-10.8,4.1-13.9,11C19,46.9,14,47.9,12,47.9a6.464,6.464,0,0,1-5.9-4.4.751.751,0,0,0-.9-.4.751.751,0,0,0-.4.9,7.758,7.758,0,0,0,7.1,5.2H12c4.7,0,9.2-4.2,12.6-11.5a15.089,15.089,0,0,1,1.5-2.8V35a1.146,1.146,0,0,1,1.3-.7.969.969,0,0,1,.7.8v.5h0A8.958,8.958,0,0,0,34.2,44a5.57,5.57,0,0,1,2.6,3.3L38,50.6l-.9,1-2.8-.3-1.2,1.8,1.6,1.3,3.3-.2,1.1-.7.6,1.5-6.9,1.4L29.6,55l-1.9,1.3,1,1.8,4.1,1.1,8.7-1.1,2.1,2.2-4.2,7.2L41.8,74h4.8V72.4l-3-.8-1.1-3.7,4-4.4,3.3,3.4h4.7l-.1-1.4L50.5,64l-2.1-2.6,2.1-2.3,5.8-1a10.081,10.081,0,0,0,6.2-1.2,8.961,8.961,0,0,0,1.9-1.5h0L78.6,41.5c3.5-4,6-4.3,9.9-4.3h2.8A1.51,1.51,0,0,0,93,35.8H91.6v-.7l-.3.7H86.9a1.688,1.688,0,0,1,1.8-1.1h3.5v.9l.4-.9H94l.4-.4h0l.6-.6h0v-1Zm-47.4,18-2.2,2.6.1-2.3,1.9-1.1C46.5,49.5,46.5,49.8,46.6,50.1Z"/></g></svg>