<svg xmlns="http://www.w3.org/2000/svg" xmlns:xlink="http://www.w3.org/1999/xlink" width="338" height="246" viewBox="0 0 338 246"><defs><style>.a{stroke:#d8d7d7;stroke-width:0.4px;fill:url(#a);}.b{stroke:none;}.c{fill:none;}</style><radialGradient id="a" cx="0.5" cy="0.5" r="0.5" gradientUnits="objectBoundingBox"><stop offset="0" stop-color="#fad419"/><stop offset="1" stop-color="#db9d48"/></radialGradient></defs><g class="a"><path class="b" d="M30,0H308a30,30,0,0,1,30,30V246a0,0,0,0,1,0,0H0a0,0,0,0,1,0,0V30A30,30,0,0,1,30,0Z"/><path class="c" d="M30,.2H308A29.8,29.8,0,0,1,337.8,30V245.6a.2.2,0,0,1-.2.2H.4a.2.2,0,0,1-.2-.2V30A29.8,29.8,0,0,1,30,.2Z"/></g></svg>