<svg id="Layer_1" data-name="Layer 1" xmlns="http://www.w3.org/2000/svg" viewBox="0 0 152 152"><defs><style>.cls-1{fill:#c32a28;}.cls-2{fill:#fdc113;}.cls-3{fill:#1e2c44;}</style></defs><path class="cls-1" d="M16.65,67a57.42,57.42,0,0,1,4.7-15.85,59.86,59.86,0,0,1,11.5-16.81A61.26,61.26,0,0,1,47.47,23.19,57.4,57.4,0,0,1,62.3,17.57a40.79,40.79,0,0,1,8.38-1.34.77.77,0,0,0,.63-.23h8.45c1.09.51,2.29.29,3.43.42A60.28,60.28,0,0,1,107,24.61a58.88,58.88,0,0,1,14,11.74,58.3,58.3,0,0,1,12.69,23.2,62.45,62.45,0,0,1,2.12,12.15,58.8,58.8,0,0,1-5.68,30.19,54.44,54.44,0,0,1-3.25,6,1.52,1.52,0,0,0-.13,1.59c3,7.06,5.85,14.13,8.76,21.19.8,1.93.63,3.13-.66,4.39s-2.7,1.26-4.31.59c-7.08-3-14.2-5.86-21.29-8.82a1.3,1.3,0,0,0-1.38.13,60.48,60.48,0,0,1-16,7,61.76,61.76,0,0,1-11.48,1.94,66.23,66.23,0,0,1-6.9.17,57.54,57.54,0,0,1-20.2-4.41,58.84,58.84,0,0,1-18.72-12.18A59.49,59.49,0,0,1,17,87a40.14,40.14,0,0,1-.78-5.78,1.67,1.67,0,0,0-.21-.53V71.82Zm59.51,54.59A45.55,45.55,0,1,0,75.5,30.5C51,30.73,30.3,51,30.5,76.08,30.33,101,51,121.67,76.16,121.59Z"/><path class="cls-2" d="M115.5,76c0,21-17.09,38.32-37.91,38.32A38.3,38.3,0,1,1,115.5,76Z"/><path class="cls-3" d="M97.88,48.57H90a1,1,0,0,0-1,1.07c0,.3,0,.61,0,.93H87.8a1,1,0,0,0-1.15,1v.09l-6,.23a.74.74,0,0,0,.07-.34,1,1,0,0,0-1.09-1A18.77,18.77,0,0,0,71.3,52l-11,4.69c-1.78.76-3.57,1.51-5.33,2.31a3,3,0,0,0-.76,5.1,3.3,3.3,0,0,0,3,.6c2.56-.66,5.11-1.37,7.67-2.06l1.4-.38a.92.92,0,0,1,.4-.43l8.54-4.65a1,1,0,0,1,1.28.37v0a.94.94,0,0,1-.38,1.27l-8.54,4.66a.8.8,0,0,1-.26.09,2.75,2.75,0,0,0,2.39.87c1.7-.22,3.42-.42,5.11-.75a8.42,8.42,0,0,1,5.42.55,15.72,15.72,0,0,0,1.48.59,10.53,10.53,0,0,0,4.79.91c.8-.08,1.59-.31,2.39-.47.08.93.36,1.18,1.35,1.18,2.44,0,4.88,0,7.32,0a1.25,1.25,0,0,0,1.3-.7V49.27A1.14,1.14,0,0,0,97.88,48.57Zm-3.93,6a1,1,0,1,1,1-1A1,1,0,0,1,94,54.54Z"/><path class="cls-2" d="M85.05,51.65a1,1,0,0,1-1,1,1,1,0,0,1-1-1,1,1,0,0,1,1-1A1,1,0,0,1,85.05,51.65Z"/><path class="cls-3" d="M87.38,72.58V71.34c0-.94-.32-1.26-1.24-1.26-4.48,0-9,0-13.44,0a.9.9,0,0,1-.78-.37,6.88,6.88,0,0,0-7.4-2.35A7,7,0,1,0,71.18,79.2c.41-.38.76-.94,1.24-1.12a4,4,0,0,1,1.78,0,3.47,3.47,0,0,0,3.6-1.52A1.32,1.32,0,0,1,79,76c.6,0,.84.39,1.17.71C81.76,78.32,81,78,83.26,78a1.61,1.61,0,0,0,.95-.39c.64-.56,1.22-1.18,1.81-1.78C87.7,74.14,87.34,74.89,87.38,72.58Zm-22.9,2.47a1,1,0,1,1,1-1A1,1,0,0,1,64.48,75.05Z"/><path class="cls-2" d="M93.93,52.56a1,1,0,1,1,0,2,1,1,0,0,1,0-2Z"/><path class="cls-3" d="M54.18,101.51H62a1,1,0,0,0,1-1.07v-.93h1.17a1,1,0,0,0,1.16-1v-.09l6-.23a.9.9,0,0,0-.06.34,1,1,0,0,0,1.09,1,18.71,18.71,0,0,0,8.29-1.46l11-4.69c1.78-.77,3.57-1.51,5.33-2.31a3,3,0,0,0,.76-5.1,3.27,3.27,0,0,0-3-.6c-2.56.66-5.11,1.37-7.66,2.06l-1.41.38a.88.88,0,0,1-.4.43l-8.53,4.65a1,1,0,0,1-1.28-.37v0a.94.94,0,0,1,.38-1.28l8.53-4.65a1,1,0,0,1,.27-.1,2.78,2.78,0,0,0-2.39-.86c-1.7.22-3.42.42-5.11.75a8.38,8.38,0,0,1-5.43-.56,15.47,15.47,0,0,0-1.47-.58,10.53,10.53,0,0,0-4.79-.91c-.8.08-1.6.31-2.39.47-.08-.93-.36-1.19-1.36-1.19-2.44,0-4.87,0-7.32,0a1.28,1.28,0,0,0-1.3.71v16.52A1.15,1.15,0,0,0,54.18,101.51Zm3.93-6a1,1,0,1,1-1,1A1,1,0,0,1,58.11,95.54Z"/><path class="cls-2" d="M67.39,98.38a1,1,0,0,1,1-1,1,1,0,0,1,1,1,1,1,0,0,1-1,1A1,1,0,0,1,67.39,98.38Z"/><path class="cls-2" d="M58.12,97.53a1,1,0,1,1,0-2,1,1,0,0,1,0,2Z"/></svg>