<svg id="Layer_1" data-name="Layer 1" xmlns="http://www.w3.org/2000/svg" viewBox="0 0 152 152"><defs><style>.cls-1{fill:#c32a28;}.cls-2{fill:#fdc113;}.cls-3{fill:#fff;}.cls-4{fill:#1e2c44;}</style></defs><path class="cls-1" d="M16.65,67a57.42,57.42,0,0,1,4.7-15.85,59.86,59.86,0,0,1,11.5-16.81A61.26,61.26,0,0,1,47.47,23.19,57.4,57.4,0,0,1,62.3,17.57a40.79,40.79,0,0,1,8.38-1.34.77.77,0,0,0,.63-.23h8.45c1.09.51,2.29.29,3.43.42A60.28,60.28,0,0,1,107,24.61a58.88,58.88,0,0,1,14,11.74,58.3,58.3,0,0,1,12.69,23.2,62.45,62.45,0,0,1,2.12,12.15,58.8,58.8,0,0,1-5.68,30.19,54.44,54.44,0,0,1-3.25,6,1.52,1.52,0,0,0-.13,1.59c3,7.06,5.85,14.13,8.76,21.19.8,1.93.63,3.13-.66,4.39s-2.7,1.26-4.31.59c-7.08-3-14.2-5.86-21.29-8.82a1.3,1.3,0,0,0-1.38.13,60.48,60.48,0,0,1-16,7,61.76,61.76,0,0,1-11.48,1.94,66.23,66.23,0,0,1-6.9.17,57.54,57.54,0,0,1-20.2-4.41,58.84,58.84,0,0,1-18.72-12.18A59.49,59.49,0,0,1,17,87a40.14,40.14,0,0,1-.78-5.78,1.67,1.67,0,0,0-.21-.53V71.82Zm59.51,54.59A45.55,45.55,0,1,0,75.5,30.5C51,30.73,30.3,51,30.5,76.08,30.33,101,51,121.67,76.16,121.59Z"/><circle class="cls-2" cx="75.97" cy="76.04" r="38.3"/><path class="cls-3" d="M37.72,78S54.39,51.22,74.44,44.26A24.12,24.12,0,0,1,94.05,46c7.71,4.28,17,11,15.53,28.61,0,0-1.14,21.72-46.15,37.61l6.43,2.1s23.43-10.19,35.59-23.24A24.48,24.48,0,0,0,112.07,75c.2-9.8-3.14-25.66-24.72-33.63,0,0-20.86-8.66-49.37,29.85Z"/><ellipse class="cls-4" cx="75.16" cy="53.29" rx="3.3" ry="2.25" transform="translate(-15.67 68.76) rotate(-45)"/><ellipse class="cls-4" cx="81.66" cy="54.08" rx="3.3" ry="2.25" transform="translate(-14.32 73.58) rotate(-45)"/><ellipse class="cls-4" cx="85.93" cy="57.69" rx="3.3" ry="2.25" transform="translate(-15.62 77.66) rotate(-45)"/><ellipse class="cls-4" cx="87.07" cy="63.34" rx="3.3" ry="2.25" transform="translate(-19.29 80.12) rotate(-45)"/><ellipse class="cls-4" cx="91.57" cy="68.44" rx="3.3" ry="2.07" transform="translate(-18.39 99.72) rotate(-52.66)"/><ellipse class="cls-4" cx="96.69" cy="70.42" rx="3.3" ry="1.83" transform="translate(-16.27 109.74) rotate(-55.26)"/><ellipse class="cls-4" cx="99.1" cy="75.04" rx="3.3" ry="1.81" transform="translate(-24.04 92.06) rotate(-45)"/><ellipse class="cls-4" cx="98.98" cy="81.57" rx="3.3" ry="1.65" transform="translate(-28.69 93.88) rotate(-45)"/><path class="cls-4" d="M70.83,63.34A2.56,2.56,0,0,1,69.68,59s2.47-3.19,5.9-1.35a15.9,15.9,0,0,0,3.37,0s4.21.51,3.31,4.48a5.52,5.52,0,0,0,.13,2.35s.83,2-.43,3.07c0,0-3.13,3.49-5.24.42C76.72,68,74,63.91,70.83,63.34Z"/><path class="cls-4" d="M86.06,79.45a2.53,2.53,0,0,1,.09-4.36s1.62-3.61,4.29-1a5.17,5.17,0,0,1,3.13-1S97.18,76,95.74,78.6c0,0,.58,4,.66,5,0,0,.24,2.1-1.21,2.79,0,0-3.82,2.48-4.94-1C90.25,85.39,88.85,80.82,86.06,79.45Z"/></svg>