<svg id="Layer_1" data-name="Layer 1" xmlns="http://www.w3.org/2000/svg" viewBox="0 0 152 152"><defs><style>.cls-1{fill:#c32a28;}.cls-2{fill:#fdc113;}.cls-3{fill:#1e2c44;}</style></defs><path class="cls-1" d="M16.65,67a57.42,57.42,0,0,1,4.7-15.85,59.86,59.86,0,0,1,11.5-16.81A61.26,61.26,0,0,1,47.47,23.19,57.4,57.4,0,0,1,62.3,17.57a40.79,40.79,0,0,1,8.38-1.34.77.77,0,0,0,.63-.23h8.45c1.09.51,2.29.29,3.43.42A60.28,60.28,0,0,1,107,24.61a58.88,58.88,0,0,1,14,11.74,58.3,58.3,0,0,1,12.69,23.2,62.45,62.45,0,0,1,2.12,12.15,58.8,58.8,0,0,1-5.68,30.19,54.44,54.44,0,0,1-3.25,6,1.52,1.52,0,0,0-.13,1.59c3,7.06,5.85,14.13,8.76,21.19.8,1.93.63,3.13-.66,4.39s-2.7,1.26-4.31.59c-7.08-3-14.2-5.86-21.29-8.82a1.3,1.3,0,0,0-1.38.13,60.48,60.48,0,0,1-16,7,61.76,61.76,0,0,1-11.48,1.94,66.23,66.23,0,0,1-6.9.17,57.54,57.54,0,0,1-20.2-4.41,58.84,58.84,0,0,1-18.72-12.18A59.49,59.49,0,0,1,17,87a40.14,40.14,0,0,1-.78-5.78,1.67,1.67,0,0,0-.21-.53V71.82Zm59.51,54.59A45.55,45.55,0,1,0,75.5,30.5C51,30.73,30.3,51,30.5,76.08,30.33,101,51,121.67,76.16,121.59Z"/><path class="cls-2" d="M115.5,76c0,21-17.09,38.32-37.91,38.32A38.3,38.3,0,1,1,115.5,76Z"/><path class="cls-2" d="M85.05,51.65a1,1,0,0,1-1,1,1,1,0,0,1-1-1,1,1,0,0,1,1-1A1,1,0,0,1,85.05,51.65Z"/><path class="cls-2" d="M93.93,52.56a1,1,0,1,1,0,2,1,1,0,0,1,0-2Z"/><path class="cls-2" d="M67.39,98.38a1,1,0,0,1,1-1,1,1,0,0,1,1,1,1,1,0,0,1-1,1A1,1,0,0,1,67.39,98.38Z"/><path class="cls-2" d="M58.12,97.53a1,1,0,1,1,0-2,1,1,0,0,1,0,2Z"/><path class="cls-3" d="M95.24,51.34l1.25-1.48s.37-.23.23.46c0,0-1.34,2.63.51,3.88A5.92,5.92,0,0,0,101,55.82a1.86,1.86,0,0,1-2.13,1.29s1.06.65.88,1.11c0,0-.42.6-2.5,0a3.09,3.09,0,0,0-3.09.55,3.94,3.94,0,0,1-1.25.88s.7,2.22,0,2.68c0,0,5.22-.32,5.22,4.25A9.29,9.29,0,0,1,96,72.26l-.23-2a1.45,1.45,0,0,0,.46-1.75L95,69.9A4.82,4.82,0,0,1,95,67.27s-.14-.42-3.42,1c0,0-2.86,1.8-4.71-.83a5.69,5.69,0,0,1-5.77-.24,8,8,0,0,0-6.56.7s-2.68,2.86-6,3l-3,0a38,38,0,0,0-4,3.46.72.72,0,0,1-.6.42c-.46,0-4.89.09-1.94-1.11,0,0,3.42-.51,3.51-3.61a30.29,30.29,0,0,0-4.89,3.05s-3.84.6-3-1.15a5,5,0,0,1,2.4-.19l2.27-2.35a3.53,3.53,0,0,1,3-1.48l1.71-.28s2.58-2,2.81-3.42a23.16,23.16,0,0,1-10.9-.23c-.37-.09-4.25-2.86-4.94-4.29,0,0,6.14,3.09,9.56,2.91,0,0,5-1.76,7.62-1,0,0,12.66-.46,16.91-4.44,0,0,6.79-4.43,7.16-5a16.31,16.31,0,0,0,2.49-3.42S96.07,49.49,95.24,51.34Z"/><rect class="cls-3" x="70.16" y="73.83" width="2.49" height="28.45" rx="1.02"/><rect class="cls-3" x="84.94" y="68.19" width="1.99" height="19.49" rx="0.81"/><path class="cls-3" d="M86.93,80.06l-.08.06-1.91,1.41L73.09,90.26a.88.88,0,0,1-1.22-.19l-.44-.6a.88.88,0,0,1,.18-1.23l13.33-9.81.43-.32a.88.88,0,0,1,1.22.19l.34.45Z"/><path class="cls-3" d="M86.93,72.85l-.08.07-1.91,1.4L73.09,83.05a.88.88,0,0,1-1.22-.19l-.44-.6A.87.87,0,0,1,71.61,81l13.33-9.82.43-.31a.87.87,0,0,1,1.22.18l.34.45Z"/><rect class="cls-3" x="68.64" y="101.68" width="6.05" height="1.48" rx="0.6"/><rect class="cls-3" x="83.72" y="87.13" width="4.43" height="1.11" rx="0.45"/></svg>