<svg id="Layer_1" data-name="Layer 1" xmlns="http://www.w3.org/2000/svg" viewBox="0 0 152 152"><defs><style>.cls-1{fill:#c32a28;}.cls-2{fill:#fdc113;}.cls-3{fill:#1e2c44;}</style></defs><path class="cls-1" d="M18.94,67a57.42,57.42,0,0,1,4.7-15.85,59.86,59.86,0,0,1,11.5-16.81A61.26,61.26,0,0,1,49.76,23.19a57.4,57.4,0,0,1,14.83-5.62A40.23,40.23,0,0,1,73,16.23a.8.8,0,0,0,.64-.23h8.44c1.09.51,2.29.29,3.43.42a60.28,60.28,0,0,1,23.81,8.19A60.31,60.31,0,0,1,136,59.54a63.43,63.43,0,0,1,2.11,12.16,58.8,58.8,0,0,1-5.68,30.19,54.44,54.44,0,0,1-3.25,6,1.52,1.52,0,0,0-.13,1.59c2.95,7.06,5.85,14.13,8.77,21.19.79,1.93.62,3.13-.67,4.39s-2.7,1.26-4.31.59c-7.08-3-14.2-5.86-21.29-8.82a1.3,1.3,0,0,0-1.38.13,60.13,60.13,0,0,1-16,7,61.78,61.78,0,0,1-11.48,1.95,66.23,66.23,0,0,1-6.9.17,57.54,57.54,0,0,1-20.2-4.41A60.49,60.49,0,0,1,19.24,87a41.8,41.8,0,0,1-.78-5.78,1.91,1.91,0,0,0-.2-.53V71.82C18.48,70.21,18.71,68.61,18.94,67Zm59.51,54.58a45.54,45.54,0,1,0-.66-91.08c-24.55.23-45.2,20.53-45,45.58C32.62,101,53.32,121.67,78.45,121.58Z"/><path class="cls-2" d="M116.56,76c0,21-17.09,38.32-37.91,38.32A38.3,38.3,0,1,1,116.56,76Zm-52-.06c0,5.67.14,11.34,0,17a3.81,3.81,0,0,0,5.95,3.47C80.17,90.72,90,85.16,99.68,79.53c3.3-1.91,3.26-5.08-.07-7s-6.56-3.79-9.83-5.68L70.51,55.71a3.92,3.92,0,0,0-3.22-.65,3.62,3.62,0,0,0-2.69,3.78C64.59,64.55,64.6,70.25,64.59,76Z"/><path class="cls-3" d="M64.6,76c0-5.71,0-11.41,0-17.12a3.62,3.62,0,0,1,2.69-3.78,3.92,3.92,0,0,1,3.22.65L89.78,66.84c3.27,1.89,6.56,3.78,9.83,5.68s3.37,5.1.07,7C90,85.16,80.17,90.72,70.49,96.43A3.81,3.81,0,0,1,64.54,93C64.73,87.3,64.59,81.63,64.6,76Z"/></svg>