<svg id="Layer_1" data-name="Layer 1" xmlns="http://www.w3.org/2000/svg" viewBox="0 0 152 152"><defs><style>.cls-1{fill:#c32a28;}.cls-2{fill:#fdc113;}.cls-3{fill:#1e2c44;}</style></defs><path class="cls-1" d="M19.83,67a57.42,57.42,0,0,1,4.7-15.85A59.86,59.86,0,0,1,36,34.34,61.26,61.26,0,0,1,50.65,23.19a57.4,57.4,0,0,1,14.83-5.62,40.9,40.9,0,0,1,8.38-1.34A.8.8,0,0,0,74.5,16h8.44c1.09.51,2.29.29,3.43.42a60.28,60.28,0,0,1,23.81,8.19,60.29,60.29,0,0,1,26.74,34.94A63.2,63.2,0,0,1,139,71.7a58.8,58.8,0,0,1-5.68,30.19,54.44,54.44,0,0,1-3.25,6,1.52,1.52,0,0,0-.13,1.59c2.95,7.06,5.85,14.13,8.77,21.19.79,1.93.62,3.13-.67,4.39s-2.7,1.26-4.31.59c-7.08-3-14.2-5.86-21.29-8.82a1.3,1.3,0,0,0-1.38.13,60.48,60.48,0,0,1-16,7,61.76,61.76,0,0,1-11.48,1.94,66.23,66.23,0,0,1-6.9.17,57.54,57.54,0,0,1-20.2-4.41A60.49,60.49,0,0,1,20.13,87a41.6,41.6,0,0,1-.78-5.78,1.91,1.91,0,0,0-.2-.53V71.82C19.37,70.21,19.6,68.61,19.83,67Zm59.51,54.59a45.55,45.55,0,1,0-.66-91.09c-24.55.23-45.2,20.53-45,45.58C33.51,101,54.21,121.67,79.34,121.59Z"/><path class="cls-2" d="M117.42,76c0,21-17.09,38.32-37.91,38.32A38.3,38.3,0,1,1,117.42,76Z"/><path class="cls-3" d="M97.15,52.9s3.4-4.54,3.87-1.17a2.82,2.82,0,0,1-.56,2.79l-.54,1a1.47,1.47,0,0,1,.91,1.52s3-.32,2.07,1.07c0,0,0,1.08-2.83,1.19a4.32,4.32,0,0,1-1.78,3.59L96.63,65.5s2.82,6.24-2.55,10.79c0,0,5.15,3.78,3.73,5.46l0,2.23s-.69,3.08-2.52,2.88l-.85-1,0-1.15s-.29-.46.7-1.11V81.56l-.86-.24-.57-.72s-.46.29-.82,2.36a17.42,17.42,0,0,0-1.28,2.69s-.95.65-1.25-.83a3,3,0,0,1,.11-2.47l.78-1.59s-1.68,1.15-2.7,1.93c0,0-1.91,3-9.18,2.19A35.49,35.49,0,0,0,74.76,89a4,4,0,0,1-2.6,1.73,23.22,23.22,0,0,1-6.71,3.14,21,21,0,0,0-3.6,3l-1.49,3.44s-.14,2.51-1.07.38l0-.71s-.24-.19-.24-.3.58-.53.09-1.05a1.38,1.38,0,0,1,.56-1.2,4.78,4.78,0,0,0,.57-.87l.08-.65,1.4-2.35s-.52-1.17,2-1.5c0,0,1.79-.21,3.35-3.55l-.61-.69s-.37-.12-1.54.4c0,0-4.35,1.19-7.08,2L49.29,95s-1.87.64-1.93-1c0,0-.27-.87,2-1.53,0,0,7.3-1.75,8.46-6.53,0,0,.31-1.6,1.41-2a10.14,10.14,0,0,0-2.49-1.53s-.45-.22-.14,1.56l.22,1.28s.86.66-.07.85c-.4.08-2.1.83-3.43-2.91,0,0-2.27,0-1.46-2.78,0,0,1-2.58,5-1.52a26.45,26.45,0,0,0,11.85-.64S69.45,77.06,73,77c0,0,4-1.34,4.78-2.15,0,0,7-9.89,9.93-12.4a12.91,12.91,0,0,1,2.06-1.84l1.49-2.39L89.47,59a4.1,4.1,0,0,1,3.13-3.77.91.91,0,0,0,.89-.65S94.17,52.84,97.15,52.9Z"/><path class="cls-2" d="M59.89,83.43s5.79-4,9.25-4.24C69.14,79.19,65.23,78.44,59.89,83.43Z"/><path class="cls-2" d="M89.86,72.91s-1.46,1.64-1.48,2.36c0,0-.62,1.51.86,1.77,0,0,5.24.24,4.43,3.08,0,0,1-1.85-.78-2.55l-3.38-1s-1-.17-.46-1.5Z"/><circle class="cls-3" cx="105.03" cy="53.62" r="3.24"/></svg>